<?xml version="1.0" encoding="utf-8" standalone="no"?>
<!DOCTYPE svg PUBLIC "-//W3C//DTD SVG 1.1//EN"
  "http://www.w3.org/Graphics/SVG/1.1/DTD/svg11.dtd">
<!-- Created with matplotlib (https://matplotlib.org/) -->
<svg height="277.314375pt" version="1.1" viewBox="0 0 368.925 277.314375" width="368.925pt" xmlns="http://www.w3.org/2000/svg" xmlns:xlink="http://www.w3.org/1999/xlink">
 <metadata>
  <rdf:RDF xmlns:cc="http://creativecommons.org/ns#" xmlns:dc="http://purl.org/dc/elements/1.1/" xmlns:rdf="http://www.w3.org/1999/02/22-rdf-syntax-ns#">
   <cc:Work>
    <dc:type rdf:resource="http://purl.org/dc/dcmitype/StillImage"/>
    <dc:date>2021-02-02T12:44:49.684369</dc:date>
    <dc:format>image/svg+xml</dc:format>
    <dc:creator>
     <cc:Agent>
      <dc:title>Matplotlib v3.3.3, https://matplotlib.org/</dc:title>
     </cc:Agent>
    </dc:creator>
   </cc:Work>
  </rdf:RDF>
 </metadata>
 <defs>
  <style type="text/css">*{stroke-linecap:butt;stroke-linejoin:round;}</style>
 </defs>
 <g id="figure_1">
  <g id="patch_1">
   <path d="M -0 277.314375 
L 368.925 277.314375 
L 368.925 0 
L -0 0 
z
" style="fill:none;"/>
  </g>
  <g id="axes_1">
   <g id="patch_2">
    <path d="M 26.925 239.758125 
L 361.725 239.758125 
L 361.725 22.318125 
L 26.925 22.318125 
z
" style="fill:#ffffff;"/>
   </g>
   <g id="matplotlib.axis_1">
    <g id="xtick_1">
     <g id="line2d_1">
      <defs>
       <path d="M 0 0 
L 0 3.5 
" id="m412013858a" style="stroke:#000000;stroke-width:0.8;"/>
      </defs>
      <g>
       <use style="stroke:#000000;stroke-width:0.8;" x="41.679213" xlink:href="#m412013858a" y="239.758125"/>
      </g>
     </g>
     <g id="text_1">
      <!-- 0 -->
      <g transform="translate(38.497963 254.356562)scale(0.1 -0.1)">
       <defs>
        <path d="M 31.78125 66.40625 
Q 24.171875 66.40625 20.328125 58.90625 
Q 16.5 51.421875 16.5 36.375 
Q 16.5 21.390625 20.328125 13.890625 
Q 24.171875 6.390625 31.78125 6.390625 
Q 39.453125 6.390625 43.28125 13.890625 
Q 47.125 21.390625 47.125 36.375 
Q 47.125 51.421875 43.28125 58.90625 
Q 39.453125 66.40625 31.78125 66.40625 
z
M 31.78125 74.21875 
Q 44.046875 74.21875 50.515625 64.515625 
Q 56.984375 54.828125 56.984375 36.375 
Q 56.984375 17.96875 50.515625 8.265625 
Q 44.046875 -1.421875 31.78125 -1.421875 
Q 19.53125 -1.421875 13.0625 8.265625 
Q 6.59375 17.96875 6.59375 36.375 
Q 6.59375 54.828125 13.0625 64.515625 
Q 19.53125 74.21875 31.78125 74.21875 
z
" id="DejaVuSans-48"/>
       </defs>
       <use xlink:href="#DejaVuSans-48"/>
      </g>
     </g>
    </g>
    <g id="xtick_2">
     <g id="line2d_2">
      <g>
       <use style="stroke:#000000;stroke-width:0.8;" x="83.858209" xlink:href="#m412013858a" y="239.758125"/>
      </g>
     </g>
     <g id="text_2">
      <!-- 1000 -->
      <g transform="translate(71.133209 254.356562)scale(0.1 -0.1)">
       <defs>
        <path d="M 12.40625 8.296875 
L 28.515625 8.296875 
L 28.515625 63.921875 
L 10.984375 60.40625 
L 10.984375 69.390625 
L 28.421875 72.90625 
L 38.28125 72.90625 
L 38.28125 8.296875 
L 54.390625 8.296875 
L 54.390625 0 
L 12.40625 0 
z
" id="DejaVuSans-49"/>
       </defs>
       <use xlink:href="#DejaVuSans-49"/>
       <use x="63.623047" xlink:href="#DejaVuSans-48"/>
       <use x="127.246094" xlink:href="#DejaVuSans-48"/>
       <use x="190.869141" xlink:href="#DejaVuSans-48"/>
      </g>
     </g>
    </g>
    <g id="xtick_3">
     <g id="line2d_3">
      <g>
       <use style="stroke:#000000;stroke-width:0.8;" x="126.037205" xlink:href="#m412013858a" y="239.758125"/>
      </g>
     </g>
     <g id="text_3">
      <!-- 2000 -->
      <g transform="translate(113.312205 254.356562)scale(0.1 -0.1)">
       <defs>
        <path d="M 19.1875 8.296875 
L 53.609375 8.296875 
L 53.609375 0 
L 7.328125 0 
L 7.328125 8.296875 
Q 12.9375 14.109375 22.625 23.890625 
Q 32.328125 33.6875 34.8125 36.53125 
Q 39.546875 41.84375 41.421875 45.53125 
Q 43.3125 49.21875 43.3125 52.78125 
Q 43.3125 58.59375 39.234375 62.25 
Q 35.15625 65.921875 28.609375 65.921875 
Q 23.96875 65.921875 18.8125 64.3125 
Q 13.671875 62.703125 7.8125 59.421875 
L 7.8125 69.390625 
Q 13.765625 71.78125 18.9375 73 
Q 24.125 74.21875 28.421875 74.21875 
Q 39.75 74.21875 46.484375 68.546875 
Q 53.21875 62.890625 53.21875 53.421875 
Q 53.21875 48.921875 51.53125 44.890625 
Q 49.859375 40.875 45.40625 35.40625 
Q 44.1875 33.984375 37.640625 27.21875 
Q 31.109375 20.453125 19.1875 8.296875 
z
" id="DejaVuSans-50"/>
       </defs>
       <use xlink:href="#DejaVuSans-50"/>
       <use x="63.623047" xlink:href="#DejaVuSans-48"/>
       <use x="127.246094" xlink:href="#DejaVuSans-48"/>
       <use x="190.869141" xlink:href="#DejaVuSans-48"/>
      </g>
     </g>
    </g>
    <g id="xtick_4">
     <g id="line2d_4">
      <g>
       <use style="stroke:#000000;stroke-width:0.8;" x="168.216201" xlink:href="#m412013858a" y="239.758125"/>
      </g>
     </g>
     <g id="text_4">
      <!-- 3000 -->
      <g transform="translate(155.491201 254.356562)scale(0.1 -0.1)">
       <defs>
        <path d="M 40.578125 39.3125 
Q 47.65625 37.796875 51.625 33 
Q 55.609375 28.21875 55.609375 21.1875 
Q 55.609375 10.40625 48.1875 4.484375 
Q 40.765625 -1.421875 27.09375 -1.421875 
Q 22.515625 -1.421875 17.65625 -0.515625 
Q 12.796875 0.390625 7.625 2.203125 
L 7.625 11.71875 
Q 11.71875 9.328125 16.59375 8.109375 
Q 21.484375 6.890625 26.8125 6.890625 
Q 36.078125 6.890625 40.9375 10.546875 
Q 45.796875 14.203125 45.796875 21.1875 
Q 45.796875 27.640625 41.28125 31.265625 
Q 36.765625 34.90625 28.71875 34.90625 
L 20.21875 34.90625 
L 20.21875 43.015625 
L 29.109375 43.015625 
Q 36.375 43.015625 40.234375 45.921875 
Q 44.09375 48.828125 44.09375 54.296875 
Q 44.09375 59.90625 40.109375 62.90625 
Q 36.140625 65.921875 28.71875 65.921875 
Q 24.65625 65.921875 20.015625 65.03125 
Q 15.375 64.15625 9.8125 62.3125 
L 9.8125 71.09375 
Q 15.4375 72.65625 20.34375 73.4375 
Q 25.25 74.21875 29.59375 74.21875 
Q 40.828125 74.21875 47.359375 69.109375 
Q 53.90625 64.015625 53.90625 55.328125 
Q 53.90625 49.265625 50.4375 45.09375 
Q 46.96875 40.921875 40.578125 39.3125 
z
" id="DejaVuSans-51"/>
       </defs>
       <use xlink:href="#DejaVuSans-51"/>
       <use x="63.623047" xlink:href="#DejaVuSans-48"/>
       <use x="127.246094" xlink:href="#DejaVuSans-48"/>
       <use x="190.869141" xlink:href="#DejaVuSans-48"/>
      </g>
     </g>
    </g>
    <g id="xtick_5">
     <g id="line2d_5">
      <g>
       <use style="stroke:#000000;stroke-width:0.8;" x="210.395198" xlink:href="#m412013858a" y="239.758125"/>
      </g>
     </g>
     <g id="text_5">
      <!-- 4000 -->
      <g transform="translate(197.670198 254.356562)scale(0.1 -0.1)">
       <defs>
        <path d="M 37.796875 64.3125 
L 12.890625 25.390625 
L 37.796875 25.390625 
z
M 35.203125 72.90625 
L 47.609375 72.90625 
L 47.609375 25.390625 
L 58.015625 25.390625 
L 58.015625 17.1875 
L 47.609375 17.1875 
L 47.609375 0 
L 37.796875 0 
L 37.796875 17.1875 
L 4.890625 17.1875 
L 4.890625 26.703125 
z
" id="DejaVuSans-52"/>
       </defs>
       <use xlink:href="#DejaVuSans-52"/>
       <use x="63.623047" xlink:href="#DejaVuSans-48"/>
       <use x="127.246094" xlink:href="#DejaVuSans-48"/>
       <use x="190.869141" xlink:href="#DejaVuSans-48"/>
      </g>
     </g>
    </g>
    <g id="xtick_6">
     <g id="line2d_6">
      <g>
       <use style="stroke:#000000;stroke-width:0.8;" x="252.574194" xlink:href="#m412013858a" y="239.758125"/>
      </g>
     </g>
     <g id="text_6">
      <!-- 5000 -->
      <g transform="translate(239.849194 254.356562)scale(0.1 -0.1)">
       <defs>
        <path d="M 10.796875 72.90625 
L 49.515625 72.90625 
L 49.515625 64.59375 
L 19.828125 64.59375 
L 19.828125 46.734375 
Q 21.96875 47.46875 24.109375 47.828125 
Q 26.265625 48.1875 28.421875 48.1875 
Q 40.625 48.1875 47.75 41.5 
Q 54.890625 34.8125 54.890625 23.390625 
Q 54.890625 11.625 47.5625 5.09375 
Q 40.234375 -1.421875 26.90625 -1.421875 
Q 22.3125 -1.421875 17.546875 -0.640625 
Q 12.796875 0.140625 7.71875 1.703125 
L 7.71875 11.625 
Q 12.109375 9.234375 16.796875 8.0625 
Q 21.484375 6.890625 26.703125 6.890625 
Q 35.15625 6.890625 40.078125 11.328125 
Q 45.015625 15.765625 45.015625 23.390625 
Q 45.015625 31 40.078125 35.4375 
Q 35.15625 39.890625 26.703125 39.890625 
Q 22.75 39.890625 18.8125 39.015625 
Q 14.890625 38.140625 10.796875 36.28125 
z
" id="DejaVuSans-53"/>
       </defs>
       <use xlink:href="#DejaVuSans-53"/>
       <use x="63.623047" xlink:href="#DejaVuSans-48"/>
       <use x="127.246094" xlink:href="#DejaVuSans-48"/>
       <use x="190.869141" xlink:href="#DejaVuSans-48"/>
      </g>
     </g>
    </g>
    <g id="xtick_7">
     <g id="line2d_7">
      <g>
       <use style="stroke:#000000;stroke-width:0.8;" x="294.75319" xlink:href="#m412013858a" y="239.758125"/>
      </g>
     </g>
     <g id="text_7">
      <!-- 6000 -->
      <g transform="translate(282.02819 254.356562)scale(0.1 -0.1)">
       <defs>
        <path d="M 33.015625 40.375 
Q 26.375 40.375 22.484375 35.828125 
Q 18.609375 31.296875 18.609375 23.390625 
Q 18.609375 15.53125 22.484375 10.953125 
Q 26.375 6.390625 33.015625 6.390625 
Q 39.65625 6.390625 43.53125 10.953125 
Q 47.40625 15.53125 47.40625 23.390625 
Q 47.40625 31.296875 43.53125 35.828125 
Q 39.65625 40.375 33.015625 40.375 
z
M 52.59375 71.296875 
L 52.59375 62.3125 
Q 48.875 64.0625 45.09375 64.984375 
Q 41.3125 65.921875 37.59375 65.921875 
Q 27.828125 65.921875 22.671875 59.328125 
Q 17.53125 52.734375 16.796875 39.40625 
Q 19.671875 43.65625 24.015625 45.921875 
Q 28.375 48.1875 33.59375 48.1875 
Q 44.578125 48.1875 50.953125 41.515625 
Q 57.328125 34.859375 57.328125 23.390625 
Q 57.328125 12.15625 50.6875 5.359375 
Q 44.046875 -1.421875 33.015625 -1.421875 
Q 20.359375 -1.421875 13.671875 8.265625 
Q 6.984375 17.96875 6.984375 36.375 
Q 6.984375 53.65625 15.1875 63.9375 
Q 23.390625 74.21875 37.203125 74.21875 
Q 40.921875 74.21875 44.703125 73.484375 
Q 48.484375 72.75 52.59375 71.296875 
z
" id="DejaVuSans-54"/>
       </defs>
       <use xlink:href="#DejaVuSans-54"/>
       <use x="63.623047" xlink:href="#DejaVuSans-48"/>
       <use x="127.246094" xlink:href="#DejaVuSans-48"/>
       <use x="190.869141" xlink:href="#DejaVuSans-48"/>
      </g>
     </g>
    </g>
    <g id="xtick_8">
     <g id="line2d_8">
      <g>
       <use style="stroke:#000000;stroke-width:0.8;" x="336.932186" xlink:href="#m412013858a" y="239.758125"/>
      </g>
     </g>
     <g id="text_8">
      <!-- 7000 -->
      <g transform="translate(324.207186 254.356562)scale(0.1 -0.1)">
       <defs>
        <path d="M 8.203125 72.90625 
L 55.078125 72.90625 
L 55.078125 68.703125 
L 28.609375 0 
L 18.3125 0 
L 43.21875 64.59375 
L 8.203125 64.59375 
z
" id="DejaVuSans-55"/>
       </defs>
       <use xlink:href="#DejaVuSans-55"/>
       <use x="63.623047" xlink:href="#DejaVuSans-48"/>
       <use x="127.246094" xlink:href="#DejaVuSans-48"/>
       <use x="190.869141" xlink:href="#DejaVuSans-48"/>
      </g>
     </g>
    </g>
    <g id="text_9">
     <!-- evals -->
     <g transform="translate(181.23125 268.034687)scale(0.1 -0.1)">
      <defs>
       <path d="M 56.203125 29.59375 
L 56.203125 25.203125 
L 14.890625 25.203125 
Q 15.484375 15.921875 20.484375 11.0625 
Q 25.484375 6.203125 34.421875 6.203125 
Q 39.59375 6.203125 44.453125 7.46875 
Q 49.3125 8.734375 54.109375 11.28125 
L 54.109375 2.78125 
Q 49.265625 0.734375 44.1875 -0.34375 
Q 39.109375 -1.421875 33.890625 -1.421875 
Q 20.796875 -1.421875 13.15625 6.1875 
Q 5.515625 13.8125 5.515625 26.8125 
Q 5.515625 40.234375 12.765625 48.109375 
Q 20.015625 56 32.328125 56 
Q 43.359375 56 49.78125 48.890625 
Q 56.203125 41.796875 56.203125 29.59375 
z
M 47.21875 32.234375 
Q 47.125 39.59375 43.09375 43.984375 
Q 39.0625 48.390625 32.421875 48.390625 
Q 24.90625 48.390625 20.390625 44.140625 
Q 15.875 39.890625 15.1875 32.171875 
z
" id="DejaVuSans-101"/>
       <path d="M 2.984375 54.6875 
L 12.5 54.6875 
L 29.59375 8.796875 
L 46.6875 54.6875 
L 56.203125 54.6875 
L 35.6875 0 
L 23.484375 0 
z
" id="DejaVuSans-118"/>
       <path d="M 34.28125 27.484375 
Q 23.390625 27.484375 19.1875 25 
Q 14.984375 22.515625 14.984375 16.5 
Q 14.984375 11.71875 18.140625 8.90625 
Q 21.296875 6.109375 26.703125 6.109375 
Q 34.1875 6.109375 38.703125 11.40625 
Q 43.21875 16.703125 43.21875 25.484375 
L 43.21875 27.484375 
z
M 52.203125 31.203125 
L 52.203125 0 
L 43.21875 0 
L 43.21875 8.296875 
Q 40.140625 3.328125 35.546875 0.953125 
Q 30.953125 -1.421875 24.3125 -1.421875 
Q 15.921875 -1.421875 10.953125 3.296875 
Q 6 8.015625 6 15.921875 
Q 6 25.140625 12.171875 29.828125 
Q 18.359375 34.515625 30.609375 34.515625 
L 43.21875 34.515625 
L 43.21875 35.40625 
Q 43.21875 41.609375 39.140625 45 
Q 35.0625 48.390625 27.6875 48.390625 
Q 23 48.390625 18.546875 47.265625 
Q 14.109375 46.140625 10.015625 43.890625 
L 10.015625 52.203125 
Q 14.9375 54.109375 19.578125 55.046875 
Q 24.21875 56 28.609375 56 
Q 40.484375 56 46.34375 49.84375 
Q 52.203125 43.703125 52.203125 31.203125 
z
" id="DejaVuSans-97"/>
       <path d="M 9.421875 75.984375 
L 18.40625 75.984375 
L 18.40625 0 
L 9.421875 0 
z
" id="DejaVuSans-108"/>
       <path d="M 44.28125 53.078125 
L 44.28125 44.578125 
Q 40.484375 46.53125 36.375 47.5 
Q 32.28125 48.484375 27.875 48.484375 
Q 21.1875 48.484375 17.84375 46.4375 
Q 14.5 44.390625 14.5 40.28125 
Q 14.5 37.15625 16.890625 35.375 
Q 19.28125 33.59375 26.515625 31.984375 
L 29.59375 31.296875 
Q 39.15625 29.25 43.1875 25.515625 
Q 47.21875 21.78125 47.21875 15.09375 
Q 47.21875 7.46875 41.1875 3.015625 
Q 35.15625 -1.421875 24.609375 -1.421875 
Q 20.21875 -1.421875 15.453125 -0.5625 
Q 10.6875 0.296875 5.421875 2 
L 5.421875 11.28125 
Q 10.40625 8.6875 15.234375 7.390625 
Q 20.0625 6.109375 24.8125 6.109375 
Q 31.15625 6.109375 34.5625 8.28125 
Q 37.984375 10.453125 37.984375 14.40625 
Q 37.984375 18.0625 35.515625 20.015625 
Q 33.0625 21.96875 24.703125 23.78125 
L 21.578125 24.515625 
Q 13.234375 26.265625 9.515625 29.90625 
Q 5.8125 33.546875 5.8125 39.890625 
Q 5.8125 47.609375 11.28125 51.796875 
Q 16.75 56 26.8125 56 
Q 31.78125 56 36.171875 55.265625 
Q 40.578125 54.546875 44.28125 53.078125 
z
" id="DejaVuSans-115"/>
      </defs>
      <use xlink:href="#DejaVuSans-101"/>
      <use x="61.523438" xlink:href="#DejaVuSans-118"/>
      <use x="120.703125" xlink:href="#DejaVuSans-97"/>
      <use x="181.982422" xlink:href="#DejaVuSans-108"/>
      <use x="209.765625" xlink:href="#DejaVuSans-115"/>
     </g>
    </g>
   </g>
   <g id="matplotlib.axis_2">
    <g id="ytick_1">
     <g id="line2d_9">
      <defs>
       <path d="M 0 0 
L -3.5 0 
" id="m1fa027ab1c" style="stroke:#000000;stroke-width:0.8;"/>
      </defs>
      <g>
       <use style="stroke:#000000;stroke-width:0.8;" x="26.925" xlink:href="#m1fa027ab1c" y="232.950113"/>
      </g>
     </g>
     <g id="text_10">
      <!-- 0 -->
      <g transform="translate(13.5625 236.749331)scale(0.1 -0.1)">
       <use xlink:href="#DejaVuSans-48"/>
      </g>
     </g>
    </g>
    <g id="ytick_2">
     <g id="line2d_10">
      <g>
       <use style="stroke:#000000;stroke-width:0.8;" x="26.925" xlink:href="#m1fa027ab1c" y="202.195282"/>
      </g>
     </g>
     <g id="text_11">
      <!-- 10 -->
      <g transform="translate(7.2 205.994501)scale(0.1 -0.1)">
       <use xlink:href="#DejaVuSans-49"/>
       <use x="63.623047" xlink:href="#DejaVuSans-48"/>
      </g>
     </g>
    </g>
    <g id="ytick_3">
     <g id="line2d_11">
      <g>
       <use style="stroke:#000000;stroke-width:0.8;" x="26.925" xlink:href="#m1fa027ab1c" y="171.440452"/>
      </g>
     </g>
     <g id="text_12">
      <!-- 20 -->
      <g transform="translate(7.2 175.23967)scale(0.1 -0.1)">
       <use xlink:href="#DejaVuSans-50"/>
       <use x="63.623047" xlink:href="#DejaVuSans-48"/>
      </g>
     </g>
    </g>
    <g id="ytick_4">
     <g id="line2d_12">
      <g>
       <use style="stroke:#000000;stroke-width:0.8;" x="26.925" xlink:href="#m1fa027ab1c" y="140.685621"/>
      </g>
     </g>
     <g id="text_13">
      <!-- 30 -->
      <g transform="translate(7.2 144.48484)scale(0.1 -0.1)">
       <use xlink:href="#DejaVuSans-51"/>
       <use x="63.623047" xlink:href="#DejaVuSans-48"/>
      </g>
     </g>
    </g>
    <g id="ytick_5">
     <g id="line2d_13">
      <g>
       <use style="stroke:#000000;stroke-width:0.8;" x="26.925" xlink:href="#m1fa027ab1c" y="109.93079"/>
      </g>
     </g>
     <g id="text_14">
      <!-- 40 -->
      <g transform="translate(7.2 113.730009)scale(0.1 -0.1)">
       <use xlink:href="#DejaVuSans-52"/>
       <use x="63.623047" xlink:href="#DejaVuSans-48"/>
      </g>
     </g>
    </g>
    <g id="ytick_6">
     <g id="line2d_14">
      <g>
       <use style="stroke:#000000;stroke-width:0.8;" x="26.925" xlink:href="#m1fa027ab1c" y="79.17596"/>
      </g>
     </g>
     <g id="text_15">
      <!-- 50 -->
      <g transform="translate(7.2 82.975179)scale(0.1 -0.1)">
       <use xlink:href="#DejaVuSans-53"/>
       <use x="63.623047" xlink:href="#DejaVuSans-48"/>
      </g>
     </g>
    </g>
    <g id="ytick_7">
     <g id="line2d_15">
      <g>
       <use style="stroke:#000000;stroke-width:0.8;" x="26.925" xlink:href="#m1fa027ab1c" y="48.421129"/>
      </g>
     </g>
     <g id="text_16">
      <!-- 60 -->
      <g transform="translate(7.2 52.220348)scale(0.1 -0.1)">
       <use xlink:href="#DejaVuSans-54"/>
       <use x="63.623047" xlink:href="#DejaVuSans-48"/>
      </g>
     </g>
    </g>
   </g>
   <g id="line2d_16">
    <path clip-path="url(#pef2f46cc70)" d="M 42.143182 229.874489 
L 42.607151 229.47856 
L 43.07112 229.272782 
L 43.999058 229.204766 
L 44.463027 229.048223 
L 44.926996 228.763878 
L 46.782871 228.562733 
L 47.710809 228.158029 
L 48.174778 228.094069 
L 50.030654 228.416006 
L 50.958592 228.285347 
L 52.814468 228.41283 
L 53.278437 228.110736 
L 56.52622 228.021707 
L 57.918126 227.827753 
L 58.382095 227.84891 
L 60.237971 227.308686 
L 61.165909 226.592782 
L 61.629878 226.527385 
L 62.093847 226.243132 
L 62.557816 226.251025 
L 63.021785 226.123064 
L 63.949723 226.222596 
L 65.34163 225.67078 
L 65.805599 225.512985 
L 67.661475 225.563541 
L 69.053381 224.678324 
L 70.445288 224.131539 
L 70.909257 224.044332 
L 71.373226 223.717192 
L 72.765133 223.789673 
L 73.229102 223.61009 
L 74.15704 222.848704 
L 75.548947 222.022626 
L 76.476885 220.681296 
L 76.940854 220.288166 
L 77.404823 220.160021 
L 77.868792 219.552796 
L 78.332761 219.243418 
L 78.796729 219.303188 
L 79.260698 218.81205 
L 79.724667 219.190834 
L 80.188636 218.430426 
L 80.652605 218.115503 
L 81.580543 218.051686 
L 82.044512 217.023984 
L 82.508481 216.818824 
L 82.97245 216.377033 
L 83.436419 215.393684 
L 83.900388 215.422876 
L 84.364357 215.770185 
L 86.220233 211.213692 
L 86.684202 211.181129 
L 87.148171 210.685664 
L 87.61214 210.696709 
L 88.076109 210.022275 
L 88.540078 209.946109 
L 89.004047 210.124746 
L 89.468016 209.317256 
L 89.931984 209.089875 
L 90.395953 207.759216 
L 90.859922 208.495574 
L 91.323891 208.695562 
L 91.78786 207.89425 
L 92.251829 208.750077 
L 92.715798 208.463327 
L 93.179767 207.397531 
L 94.107705 206.775757 
L 94.571674 207.10316 
L 95.035643 207.201167 
L 95.499612 207.736433 
L 95.963581 207.744073 
L 96.42755 207.362423 
L 96.891519 207.684728 
L 97.355488 208.288836 
L 97.819457 207.609295 
L 98.283426 208.451456 
L 98.747395 209.034527 
L 99.211364 209.231606 
L 99.675333 209.104144 
L 100.139302 209.267879 
L 100.603271 209.789661 
L 101.067239 209.72957 
L 101.531208 209.142424 
L 101.995177 207.696046 
L 103.387084 205.070836 
L 103.851053 204.669055 
L 104.315022 203.100304 
L 104.778991 202.444288 
L 105.24296 202.864178 
L 105.706929 202.40958 
L 106.170898 203.160688 
L 106.634867 203.523784 
L 107.098836 203.445284 
L 107.562805 202.792067 
L 108.026774 203.063854 
L 108.490743 204.055612 
L 108.954712 203.6349 
L 109.418681 204.648593 
L 109.88265 204.737541 
L 110.346619 203.578476 
L 110.810588 203.72616 
L 111.274557 203.457344 
L 112.202494 203.479045 
L 112.666463 202.551271 
L 113.130432 201.921781 
L 113.594401 201.827054 
L 114.05837 200.779851 
L 114.522339 202.727376 
L 114.986308 202.987144 
L 115.450277 204.75867 
L 115.914246 204.547875 
L 116.378215 205.165049 
L 116.842184 206.447886 
L 117.770122 206.166724 
L 118.234091 205.830597 
L 118.69806 206.009922 
L 119.162029 205.935451 
L 119.625998 205.441051 
L 120.089967 205.852075 
L 120.553936 204.762093 
L 121.017905 205.245854 
L 121.481874 205.095691 
L 121.945843 205.644615 
L 122.409812 205.746648 
L 122.87378 206.732594 
L 123.337749 206.895687 
L 123.801718 206.071641 
L 124.265687 206.085126 
L 124.729656 205.196804 
L 125.193625 204.952847 
L 125.657594 205.223036 
L 126.585532 206.641498 
L 127.049501 206.753291 
L 127.51347 205.876924 
L 127.977439 206.316992 
L 128.441408 206.98942 
L 128.905377 206.152067 
L 129.833315 206.492336 
L 130.297284 206.507599 
L 130.761253 206.753936 
L 131.689191 207.619935 
L 132.15316 206.420858 
L 132.617129 205.924069 
L 134.473004 202.669298 
L 134.936973 202.362244 
L 135.400942 201.213204 
L 135.864911 200.620946 
L 136.32888 200.316903 
L 136.792849 198.630609 
L 137.256818 199.335258 
L 138.648725 195.111007 
L 139.112694 196.954123 
L 140.040632 197.528787 
L 140.504601 198.707744 
L 140.96857 198.682908 
L 141.432539 198.818355 
L 141.896508 196.826476 
L 142.360477 195.820033 
L 142.824446 196.685621 
L 143.288415 195.909611 
L 144.216353 195.139526 
L 145.608259 195.906421 
L 146.072228 193.882771 
L 146.536197 192.749621 
L 147.000166 192.089617 
L 148.392073 189.247676 
L 148.856042 188.652646 
L 149.78398 188.402132 
L 150.247949 189.522971 
L 150.711918 189.44607 
L 151.175887 188.112652 
L 151.639856 187.279474 
L 152.103825 187.284557 
L 152.567794 186.822133 
L 153.031763 186.970721 
L 153.495732 186.343594 
L 153.959701 185.251756 
L 154.42367 185.816304 
L 154.887639 185.650935 
L 155.351608 184.799271 
L 155.815576 184.247355 
L 156.279545 185.63946 
L 156.743514 184.786241 
L 157.207483 184.886537 
L 157.671452 184.506528 
L 158.59939 182.953341 
L 159.063359 182.440361 
L 159.527328 183.281696 
L 160.919235 182.745045 
L 161.383204 185.179319 
L 161.847173 185.947087 
L 162.311142 187.048303 
L 162.775111 187.640283 
L 163.23908 187.491397 
L 163.703049 188.913782 
L 164.167018 188.732517 
L 164.630987 187.919016 
L 165.094956 187.902592 
L 165.558925 188.864162 
L 166.486863 185.882431 
L 166.950831 186.011266 
L 167.4148 188.132085 
L 167.878769 187.605025 
L 168.342738 187.412247 
L 168.806707 188.872199 
L 169.270676 188.803701 
L 169.734645 188.943812 
L 170.198614 188.677944 
L 170.662583 187.898957 
L 171.126552 187.957554 
L 172.05449 189.142411 
L 172.518459 189.704137 
L 172.982428 189.609909 
L 173.446397 188.354211 
L 173.910366 186.391657 
L 174.374335 185.306694 
L 174.838304 185.481 
L 175.302273 183.739715 
L 176.230211 185.36246 
L 176.69418 186.44477 
L 177.158149 187.044215 
L 177.622118 186.703637 
L 178.086086 185.981962 
L 178.550055 184.813783 
L 179.014024 183.156262 
L 179.477993 183.921363 
L 179.941962 183.96262 
L 180.405931 184.295143 
L 180.8699 181.482703 
L 181.333869 180.894729 
L 181.797838 179.650813 
L 182.261807 179.169878 
L 182.725776 179.813291 
L 183.189745 179.650333 
L 183.653714 180.069231 
L 184.117683 180.653541 
L 184.581652 182.825079 
L 185.045621 183.347729 
L 185.50959 183.244101 
L 185.973559 182.37064 
L 186.437528 181.735727 
L 186.901497 181.358249 
L 187.365466 181.4282 
L 187.829435 182.379375 
L 188.293404 182.474563 
L 188.757373 181.984425 
L 189.221341 183.966366 
L 190.149279 186.896679 
L 190.613248 188.94599 
L 191.541186 190.33891 
L 192.005155 190.056151 
L 192.469124 190.6746 
L 192.933093 190.527136 
L 193.397062 191.978923 
L 193.861031 192.65517 
L 194.325 192.718996 
L 194.788969 192.921436 
L 195.252938 192.926817 
L 195.716907 193.570713 
L 196.180876 193.745169 
L 196.644845 194.192357 
L 197.108814 194.911052 
L 198.036752 194.148899 
L 198.500721 194.208636 
L 198.96469 195.362363 
L 199.428659 195.466952 
L 199.892627 196.360889 
L 200.356596 195.706086 
L 200.820565 195.780068 
L 201.284534 194.532877 
L 201.748503 195.386863 
L 202.212472 194.265492 
L 202.676441 194.668833 
L 203.604379 192.036673 
L 204.068348 188.61467 
L 204.532317 187.449061 
L 204.996286 187.61072 
L 205.460255 186.799595 
L 205.924224 187.129679 
L 206.388193 186.827882 
L 206.852162 185.726291 
L 207.316131 187.349387 
L 207.7801 187.327121 
L 208.244069 189.080202 
L 208.708038 189.546662 
L 210.099945 182.304662 
L 211.027882 181.851105 
L 212.419789 179.208272 
L 213.347727 175.383872 
L 214.275665 168.953405 
L 214.739634 167.92678 
L 215.203603 166.261728 
L 215.667572 166.162097 
L 216.131541 166.484012 
L 216.59551 165.203544 
L 217.059479 164.64796 
L 217.523448 160.67583 
L 218.915355 154.066368 
L 219.379324 156.851095 
L 220.307262 154.618554 
L 220.771231 155.077234 
L 221.2352 155.729884 
L 221.699169 154.066577 
L 222.163137 151.96526 
L 222.627106 151.281715 
L 223.091075 150.883938 
L 223.555044 152.980446 
L 224.019013 150.284371 
L 224.946951 149.380083 
L 225.41092 147.092604 
L 226.802827 142.631942 
L 227.266796 144.383464 
L 227.730765 144.756616 
L 228.194734 146.708966 
L 228.658703 145.43745 
L 229.122672 145.449696 
L 229.586641 145.755731 
L 230.05061 144.550174 
L 230.514579 146.047436 
L 230.978548 145.358843 
L 231.442517 142.401154 
L 231.906486 143.418078 
L 232.370455 140.522975 
L 232.834424 139.840409 
L 233.298392 137.208226 
L 233.762361 139.285162 
L 234.22633 134.9904 
L 234.690299 136.3097 
L 235.618237 137.632451 
L 236.082206 136.655219 
L 236.546175 138.012475 
L 237.010144 143.300434 
L 237.474113 142.938077 
L 238.402051 138.033986 
L 238.86602 137.540142 
L 239.329989 136.494111 
L 240.257927 133.47782 
L 240.721896 131.220057 
L 241.185865 123.638297 
L 241.649834 123.418616 
L 242.113803 122.256455 
L 242.577772 122.91772 
L 243.041741 119.136524 
L 243.50571 118.312009 
L 243.969678 117.730449 
L 244.433647 119.398861 
L 244.897616 116.133787 
L 245.361585 116.400228 
L 245.825554 115.934042 
L 246.289523 116.689514 
L 246.753492 112.423077 
L 247.217461 109.474183 
L 247.68143 108.728202 
L 248.145399 110.103028 
L 248.609368 108.485079 
L 249.073337 105.944413 
L 249.537306 104.946338 
L 250.001275 96.353649 
L 250.465244 97.751233 
L 250.929213 90.514804 
L 251.857151 94.389963 
L 252.32112 93.060903 
L 252.785089 90.409169 
L 253.249058 86.951453 
L 253.713027 82.021703 
L 254.176996 78.927385 
L 254.640965 77.726042 
L 255.104933 74.775158 
L 255.568902 75.2499 
L 256.032871 83.73195 
L 256.49684 84.493522 
L 256.960809 84.306633 
L 257.424778 86.666647 
L 257.888747 82.617984 
L 258.352716 86.708121 
L 258.816685 86.872313 
L 259.280654 87.360909 
L 260.208592 85.127188 
L 260.672561 84.878843 
L 261.13653 81.809752 
L 261.600499 82.251942 
L 262.064468 84.563943 
L 262.528437 79.769318 
L 262.992406 77.050963 
L 263.456375 77.350706 
L 263.920344 76.304326 
L 264.384313 73.21076 
L 264.848282 67.939091 
L 265.77622 61.778783 
L 266.240188 62.022545 
L 267.168126 67.657438 
L 267.632095 69.775313 
L 268.096064 68.854658 
L 268.560033 65.535953 
L 269.024002 61.001914 
L 269.487971 60.646682 
L 269.95194 60.788134 
L 270.415909 57.983922 
L 270.879878 59.512933 
L 271.343847 59.796834 
L 271.807816 59.556343 
L 272.271785 53.062952 
L 272.735754 54.873976 
L 273.199723 53.891761 
L 273.663692 55.808663 
L 274.127661 56.48625 
L 274.59163 53.078451 
L 275.519568 55.445253 
L 276.911475 55.487572 
L 277.375443 48.107661 
L 277.839412 45.513232 
L 278.303381 46.336201 
L 278.76735 43.731336 
L 279.231319 40.104196 
L 279.695288 40.42674 
L 280.159257 37.521497 
L 280.623226 36.061824 
L 281.087195 41.292509 
L 281.551164 41.32505 
L 282.015133 32.201761 
L 282.479102 35.874979 
L 282.943071 36.961811 
L 283.40704 34.770916 
L 283.871009 33.360733 
L 284.334978 39.22991 
L 284.798947 46.536804 
L 285.262916 44.83187 
L 285.726885 50.541755 
L 286.190854 52.939419 
L 287.118792 55.511781 
L 287.582761 50.564663 
L 288.046729 47.970218 
L 288.510698 48.855817 
L 288.974667 53.421255 
L 289.438636 54.44427 
L 289.902605 49.175601 
L 290.366574 47.785338 
L 290.830543 53.507258 
L 291.294512 52.804864 
L 291.758481 50.413827 
L 292.686419 48.171727 
L 293.150388 50.335332 
L 293.614357 46.29032 
L 294.078326 47.135154 
L 294.542295 50.471103 
L 295.006264 46.476261 
L 295.470233 48.972637 
L 295.934202 53.830642 
L 296.398171 56.87293 
L 296.86214 55.030742 
L 297.326109 58.886252 
L 297.790078 53.549856 
L 298.254047 52.419501 
L 299.181984 52.519556 
L 299.645953 54.830576 
L 300.109922 55.694398 
L 300.573891 52.79299 
L 301.03786 53.974081 
L 301.501829 58.054331 
L 301.965798 49.879562 
L 302.429767 49.524031 
L 302.893736 53.192973 
L 303.821674 50.178732 
L 304.285643 48.066921 
L 304.749612 50.706055 
L 305.213581 51.264982 
L 306.141519 57.238718 
L 306.605488 57.46785 
L 307.069457 60.397121 
L 307.533426 66.136525 
L 308.461364 71.2521 
L 309.389302 60.510036 
L 309.853271 57.070932 
L 310.317239 59.441511 
L 310.781208 54.709736 
L 311.245177 60.55535 
L 313.101053 71.5679 
L 313.565022 70.109477 
L 314.028991 71.048028 
L 314.49296 66.884996 
L 314.956929 60.251606 
L 315.420898 52.001709 
L 315.884867 39.862196 
L 316.348836 37.425633 
L 316.812805 37.402855 
L 317.276774 33.344496 
L 318.204712 40.903959 
L 318.668681 39.478312 
L 319.13265 44.399418 
L 319.596619 47.019324 
L 320.060588 46.020172 
L 320.524557 44.338971 
L 320.988525 48.866767 
L 321.452494 44.741134 
L 321.916463 46.995213 
L 322.380432 45.288804 
L 322.844401 44.345066 
L 323.30837 43.691428 
L 323.772339 44.432556 
L 324.236308 44.093774 
L 324.700277 45.07154 
L 325.164246 43.645429 
L 325.628215 44.778215 
L 326.092184 43.44105 
L 326.556153 42.934809 
L 327.020122 39.920027 
L 327.484091 39.352948 
L 327.94806 39.659956 
L 328.412029 46.753177 
L 328.875998 47.468909 
L 329.339967 48.800866 
L 329.803936 45.92599 
L 330.267905 45.70056 
L 330.731874 44.782085 
L 331.195843 44.375221 
L 331.659812 45.991514 
L 332.12378 49.651087 
L 332.587749 54.38147 
L 333.051718 56.884928 
L 333.515687 60.293827 
L 333.979656 58.633657 
L 334.443625 61.554604 
L 334.907594 58.277425 
L 336.299501 66.370844 
L 336.76347 62.263945 
L 337.227439 67.344312 
L 338.155377 60.430098 
L 338.619346 58.406412 
L 339.083315 58.887447 
L 340.011253 48.776826 
L 340.475222 49.030356 
L 340.939191 47.109791 
L 341.40316 51.300678 
L 341.867129 50.927372 
L 343.723004 40.415225 
L 344.186973 40.368929 
L 344.650942 42.926559 
L 345.114911 46.488326 
L 345.57888 43.959072 
L 346.042849 37.877813 
L 346.506818 35.10216 
L 346.506818 35.10216 
" style="fill:none;stroke:#1f77b4;stroke-linecap:square;stroke-width:1.5;"/>
   </g>
   <g id="patch_3">
    <path d="M 26.925 239.758125 
L 26.925 22.318125 
" style="fill:none;stroke:#000000;stroke-linecap:square;stroke-linejoin:miter;stroke-width:0.8;"/>
   </g>
   <g id="patch_4">
    <path d="M 361.725 239.758125 
L 361.725 22.318125 
" style="fill:none;stroke:#000000;stroke-linecap:square;stroke-linejoin:miter;stroke-width:0.8;"/>
   </g>
   <g id="patch_5">
    <path d="M 26.925 239.758125 
L 361.725 239.758125 
" style="fill:none;stroke:#000000;stroke-linecap:square;stroke-linejoin:miter;stroke-width:0.8;"/>
   </g>
   <g id="patch_6">
    <path d="M 26.925 22.318125 
L 361.725 22.318125 
" style="fill:none;stroke:#000000;stroke-linecap:square;stroke-linejoin:miter;stroke-width:0.8;"/>
   </g>
   <g id="text_17">
    <!-- Max axis ratio of the population distribution -->
    <g transform="translate(62.874375 16.318125)scale(0.12 -0.12)">
     <defs>
      <path d="M 9.8125 72.90625 
L 24.515625 72.90625 
L 43.109375 23.296875 
L 61.8125 72.90625 
L 76.515625 72.90625 
L 76.515625 0 
L 66.890625 0 
L 66.890625 64.015625 
L 48.09375 14.015625 
L 38.1875 14.015625 
L 19.390625 64.015625 
L 19.390625 0 
L 9.8125 0 
z
" id="DejaVuSans-77"/>
      <path d="M 54.890625 54.6875 
L 35.109375 28.078125 
L 55.90625 0 
L 45.3125 0 
L 29.390625 21.484375 
L 13.484375 0 
L 2.875 0 
L 24.125 28.609375 
L 4.6875 54.6875 
L 15.28125 54.6875 
L 29.78125 35.203125 
L 44.28125 54.6875 
z
" id="DejaVuSans-120"/>
      <path id="DejaVuSans-32"/>
      <path d="M 9.421875 54.6875 
L 18.40625 54.6875 
L 18.40625 0 
L 9.421875 0 
z
M 9.421875 75.984375 
L 18.40625 75.984375 
L 18.40625 64.59375 
L 9.421875 64.59375 
z
" id="DejaVuSans-105"/>
      <path d="M 41.109375 46.296875 
Q 39.59375 47.171875 37.8125 47.578125 
Q 36.03125 48 33.890625 48 
Q 26.265625 48 22.1875 43.046875 
Q 18.109375 38.09375 18.109375 28.8125 
L 18.109375 0 
L 9.078125 0 
L 9.078125 54.6875 
L 18.109375 54.6875 
L 18.109375 46.1875 
Q 20.953125 51.171875 25.484375 53.578125 
Q 30.03125 56 36.53125 56 
Q 37.453125 56 38.578125 55.875 
Q 39.703125 55.765625 41.0625 55.515625 
z
" id="DejaVuSans-114"/>
      <path d="M 18.3125 70.21875 
L 18.3125 54.6875 
L 36.8125 54.6875 
L 36.8125 47.703125 
L 18.3125 47.703125 
L 18.3125 18.015625 
Q 18.3125 11.328125 20.140625 9.421875 
Q 21.96875 7.515625 27.59375 7.515625 
L 36.8125 7.515625 
L 36.8125 0 
L 27.59375 0 
Q 17.1875 0 13.234375 3.875 
Q 9.28125 7.765625 9.28125 18.015625 
L 9.28125 47.703125 
L 2.6875 47.703125 
L 2.6875 54.6875 
L 9.28125 54.6875 
L 9.28125 70.21875 
z
" id="DejaVuSans-116"/>
      <path d="M 30.609375 48.390625 
Q 23.390625 48.390625 19.1875 42.75 
Q 14.984375 37.109375 14.984375 27.296875 
Q 14.984375 17.484375 19.15625 11.84375 
Q 23.34375 6.203125 30.609375 6.203125 
Q 37.796875 6.203125 41.984375 11.859375 
Q 46.1875 17.53125 46.1875 27.296875 
Q 46.1875 37.015625 41.984375 42.703125 
Q 37.796875 48.390625 30.609375 48.390625 
z
M 30.609375 56 
Q 42.328125 56 49.015625 48.375 
Q 55.71875 40.765625 55.71875 27.296875 
Q 55.71875 13.875 49.015625 6.21875 
Q 42.328125 -1.421875 30.609375 -1.421875 
Q 18.84375 -1.421875 12.171875 6.21875 
Q 5.515625 13.875 5.515625 27.296875 
Q 5.515625 40.765625 12.171875 48.375 
Q 18.84375 56 30.609375 56 
z
" id="DejaVuSans-111"/>
      <path d="M 37.109375 75.984375 
L 37.109375 68.5 
L 28.515625 68.5 
Q 23.6875 68.5 21.796875 66.546875 
Q 19.921875 64.59375 19.921875 59.515625 
L 19.921875 54.6875 
L 34.71875 54.6875 
L 34.71875 47.703125 
L 19.921875 47.703125 
L 19.921875 0 
L 10.890625 0 
L 10.890625 47.703125 
L 2.296875 47.703125 
L 2.296875 54.6875 
L 10.890625 54.6875 
L 10.890625 58.5 
Q 10.890625 67.625 15.140625 71.796875 
Q 19.390625 75.984375 28.609375 75.984375 
z
" id="DejaVuSans-102"/>
      <path d="M 54.890625 33.015625 
L 54.890625 0 
L 45.90625 0 
L 45.90625 32.71875 
Q 45.90625 40.484375 42.875 44.328125 
Q 39.84375 48.1875 33.796875 48.1875 
Q 26.515625 48.1875 22.3125 43.546875 
Q 18.109375 38.921875 18.109375 30.90625 
L 18.109375 0 
L 9.078125 0 
L 9.078125 75.984375 
L 18.109375 75.984375 
L 18.109375 46.1875 
Q 21.34375 51.125 25.703125 53.5625 
Q 30.078125 56 35.796875 56 
Q 45.21875 56 50.046875 50.171875 
Q 54.890625 44.34375 54.890625 33.015625 
z
" id="DejaVuSans-104"/>
      <path d="M 18.109375 8.203125 
L 18.109375 -20.796875 
L 9.078125 -20.796875 
L 9.078125 54.6875 
L 18.109375 54.6875 
L 18.109375 46.390625 
Q 20.953125 51.265625 25.265625 53.625 
Q 29.59375 56 35.59375 56 
Q 45.5625 56 51.78125 48.09375 
Q 58.015625 40.1875 58.015625 27.296875 
Q 58.015625 14.40625 51.78125 6.484375 
Q 45.5625 -1.421875 35.59375 -1.421875 
Q 29.59375 -1.421875 25.265625 0.953125 
Q 20.953125 3.328125 18.109375 8.203125 
z
M 48.6875 27.296875 
Q 48.6875 37.203125 44.609375 42.84375 
Q 40.53125 48.484375 33.40625 48.484375 
Q 26.265625 48.484375 22.1875 42.84375 
Q 18.109375 37.203125 18.109375 27.296875 
Q 18.109375 17.390625 22.1875 11.75 
Q 26.265625 6.109375 33.40625 6.109375 
Q 40.53125 6.109375 44.609375 11.75 
Q 48.6875 17.390625 48.6875 27.296875 
z
" id="DejaVuSans-112"/>
      <path d="M 8.5 21.578125 
L 8.5 54.6875 
L 17.484375 54.6875 
L 17.484375 21.921875 
Q 17.484375 14.15625 20.5 10.265625 
Q 23.53125 6.390625 29.59375 6.390625 
Q 36.859375 6.390625 41.078125 11.03125 
Q 45.3125 15.671875 45.3125 23.6875 
L 45.3125 54.6875 
L 54.296875 54.6875 
L 54.296875 0 
L 45.3125 0 
L 45.3125 8.40625 
Q 42.046875 3.421875 37.71875 1 
Q 33.40625 -1.421875 27.6875 -1.421875 
Q 18.265625 -1.421875 13.375 4.4375 
Q 8.5 10.296875 8.5 21.578125 
z
M 31.109375 56 
z
" id="DejaVuSans-117"/>
      <path d="M 54.890625 33.015625 
L 54.890625 0 
L 45.90625 0 
L 45.90625 32.71875 
Q 45.90625 40.484375 42.875 44.328125 
Q 39.84375 48.1875 33.796875 48.1875 
Q 26.515625 48.1875 22.3125 43.546875 
Q 18.109375 38.921875 18.109375 30.90625 
L 18.109375 0 
L 9.078125 0 
L 9.078125 54.6875 
L 18.109375 54.6875 
L 18.109375 46.1875 
Q 21.34375 51.125 25.703125 53.5625 
Q 30.078125 56 35.796875 56 
Q 45.21875 56 50.046875 50.171875 
Q 54.890625 44.34375 54.890625 33.015625 
z
" id="DejaVuSans-110"/>
      <path d="M 45.40625 46.390625 
L 45.40625 75.984375 
L 54.390625 75.984375 
L 54.390625 0 
L 45.40625 0 
L 45.40625 8.203125 
Q 42.578125 3.328125 38.25 0.953125 
Q 33.9375 -1.421875 27.875 -1.421875 
Q 17.96875 -1.421875 11.734375 6.484375 
Q 5.515625 14.40625 5.515625 27.296875 
Q 5.515625 40.1875 11.734375 48.09375 
Q 17.96875 56 27.875 56 
Q 33.9375 56 38.25 53.625 
Q 42.578125 51.265625 45.40625 46.390625 
z
M 14.796875 27.296875 
Q 14.796875 17.390625 18.875 11.75 
Q 22.953125 6.109375 30.078125 6.109375 
Q 37.203125 6.109375 41.296875 11.75 
Q 45.40625 17.390625 45.40625 27.296875 
Q 45.40625 37.203125 41.296875 42.84375 
Q 37.203125 48.484375 30.078125 48.484375 
Q 22.953125 48.484375 18.875 42.84375 
Q 14.796875 37.203125 14.796875 27.296875 
z
" id="DejaVuSans-100"/>
      <path d="M 48.6875 27.296875 
Q 48.6875 37.203125 44.609375 42.84375 
Q 40.53125 48.484375 33.40625 48.484375 
Q 26.265625 48.484375 22.1875 42.84375 
Q 18.109375 37.203125 18.109375 27.296875 
Q 18.109375 17.390625 22.1875 11.75 
Q 26.265625 6.109375 33.40625 6.109375 
Q 40.53125 6.109375 44.609375 11.75 
Q 48.6875 17.390625 48.6875 27.296875 
z
M 18.109375 46.390625 
Q 20.953125 51.265625 25.265625 53.625 
Q 29.59375 56 35.59375 56 
Q 45.5625 56 51.78125 48.09375 
Q 58.015625 40.1875 58.015625 27.296875 
Q 58.015625 14.40625 51.78125 6.484375 
Q 45.5625 -1.421875 35.59375 -1.421875 
Q 29.59375 -1.421875 25.265625 0.953125 
Q 20.953125 3.328125 18.109375 8.203125 
L 18.109375 0 
L 9.078125 0 
L 9.078125 75.984375 
L 18.109375 75.984375 
z
" id="DejaVuSans-98"/>
     </defs>
     <use xlink:href="#DejaVuSans-77"/>
     <use x="86.279297" xlink:href="#DejaVuSans-97"/>
     <use x="147.558594" xlink:href="#DejaVuSans-120"/>
     <use x="206.738281" xlink:href="#DejaVuSans-32"/>
     <use x="238.525391" xlink:href="#DejaVuSans-97"/>
     <use x="299.804688" xlink:href="#DejaVuSans-120"/>
     <use x="358.984375" xlink:href="#DejaVuSans-105"/>
     <use x="386.767578" xlink:href="#DejaVuSans-115"/>
     <use x="438.867188" xlink:href="#DejaVuSans-32"/>
     <use x="470.654297" xlink:href="#DejaVuSans-114"/>
     <use x="511.767578" xlink:href="#DejaVuSans-97"/>
     <use x="573.046875" xlink:href="#DejaVuSans-116"/>
     <use x="612.255859" xlink:href="#DejaVuSans-105"/>
     <use x="640.039062" xlink:href="#DejaVuSans-111"/>
     <use x="701.220703" xlink:href="#DejaVuSans-32"/>
     <use x="733.007812" xlink:href="#DejaVuSans-111"/>
     <use x="794.189453" xlink:href="#DejaVuSans-102"/>
     <use x="829.394531" xlink:href="#DejaVuSans-32"/>
     <use x="861.181641" xlink:href="#DejaVuSans-116"/>
     <use x="900.390625" xlink:href="#DejaVuSans-104"/>
     <use x="963.769531" xlink:href="#DejaVuSans-101"/>
     <use x="1025.292969" xlink:href="#DejaVuSans-32"/>
     <use x="1057.080078" xlink:href="#DejaVuSans-112"/>
     <use x="1120.556641" xlink:href="#DejaVuSans-111"/>
     <use x="1181.738281" xlink:href="#DejaVuSans-112"/>
     <use x="1245.214844" xlink:href="#DejaVuSans-117"/>
     <use x="1308.59375" xlink:href="#DejaVuSans-108"/>
     <use x="1336.376953" xlink:href="#DejaVuSans-97"/>
     <use x="1397.65625" xlink:href="#DejaVuSans-116"/>
     <use x="1436.865234" xlink:href="#DejaVuSans-105"/>
     <use x="1464.648438" xlink:href="#DejaVuSans-111"/>
     <use x="1525.830078" xlink:href="#DejaVuSans-110"/>
     <use x="1589.208984" xlink:href="#DejaVuSans-32"/>
     <use x="1620.996094" xlink:href="#DejaVuSans-100"/>
     <use x="1684.472656" xlink:href="#DejaVuSans-105"/>
     <use x="1712.255859" xlink:href="#DejaVuSans-115"/>
     <use x="1764.355469" xlink:href="#DejaVuSans-116"/>
     <use x="1803.564453" xlink:href="#DejaVuSans-114"/>
     <use x="1844.677734" xlink:href="#DejaVuSans-105"/>
     <use x="1872.460938" xlink:href="#DejaVuSans-98"/>
     <use x="1935.9375" xlink:href="#DejaVuSans-117"/>
     <use x="1999.316406" xlink:href="#DejaVuSans-116"/>
     <use x="2038.525391" xlink:href="#DejaVuSans-105"/>
     <use x="2066.308594" xlink:href="#DejaVuSans-111"/>
     <use x="2127.490234" xlink:href="#DejaVuSans-110"/>
    </g>
   </g>
   <g id="legend_1">
    <g id="patch_7">
     <path d="M 33.925 44.99625 
L 112.19375 44.99625 
Q 114.19375 44.99625 114.19375 42.99625 
L 114.19375 29.318125 
Q 114.19375 27.318125 112.19375 27.318125 
L 33.925 27.318125 
Q 31.925 27.318125 31.925 29.318125 
L 31.925 42.99625 
Q 31.925 44.99625 33.925 44.99625 
z
" style="fill:#ffffff;opacity:0.8;stroke:#cccccc;stroke-linejoin:miter;"/>
    </g>
    <g id="line2d_17">
     <path d="M 35.925 35.416562 
L 55.925 35.416562 
" style="fill:none;stroke:#1f77b4;stroke-linecap:square;stroke-width:1.5;"/>
    </g>
    <g id="line2d_18"/>
    <g id="text_18">
     <!-- axis ratio -->
     <g transform="translate(63.925 38.916562)scale(0.1 -0.1)">
      <use xlink:href="#DejaVuSans-97"/>
      <use x="61.279297" xlink:href="#DejaVuSans-120"/>
      <use x="120.458984" xlink:href="#DejaVuSans-105"/>
      <use x="148.242188" xlink:href="#DejaVuSans-115"/>
      <use x="200.341797" xlink:href="#DejaVuSans-32"/>
      <use x="232.128906" xlink:href="#DejaVuSans-114"/>
      <use x="273.242188" xlink:href="#DejaVuSans-97"/>
      <use x="334.521484" xlink:href="#DejaVuSans-116"/>
      <use x="373.730469" xlink:href="#DejaVuSans-105"/>
      <use x="401.513672" xlink:href="#DejaVuSans-111"/>
     </g>
    </g>
   </g>
  </g>
 </g>
 <defs>
  <clipPath id="pef2f46cc70">
   <rect height="217.44" width="334.8" x="26.925" y="22.318125"/>
  </clipPath>
 </defs>
</svg>
