<?xml version="1.0" encoding="utf-8" standalone="no"?>
<!DOCTYPE svg PUBLIC "-//W3C//DTD SVG 1.1//EN"
  "http://www.w3.org/Graphics/SVG/1.1/DTD/svg11.dtd">
<!-- Created with matplotlib (https://matplotlib.org/) -->
<svg height="277.314375pt" version="1.1" viewBox="0 0 377.304687 277.314375" width="377.304687pt" xmlns="http://www.w3.org/2000/svg" xmlns:xlink="http://www.w3.org/1999/xlink">
 <metadata>
  <rdf:RDF xmlns:cc="http://creativecommons.org/ns#" xmlns:dc="http://purl.org/dc/elements/1.1/" xmlns:rdf="http://www.w3.org/1999/02/22-rdf-syntax-ns#">
   <cc:Work>
    <dc:type rdf:resource="http://purl.org/dc/dcmitype/StillImage"/>
    <dc:date>2021-03-16T22:38:58.205534</dc:date>
    <dc:format>image/svg+xml</dc:format>
    <dc:creator>
     <cc:Agent>
      <dc:title>Matplotlib v3.3.4, https://matplotlib.org/</dc:title>
     </cc:Agent>
    </dc:creator>
   </cc:Work>
  </rdf:RDF>
 </metadata>
 <defs>
  <style type="text/css">*{stroke-linecap:butt;stroke-linejoin:round;}</style>
 </defs>
 <g id="figure_1">
  <g id="patch_1">
   <path d="M 0 277.314375 
L 377.304687 277.314375 
L 377.304687 0 
L 0 0 
z
" style="fill:none;"/>
  </g>
  <g id="axes_1">
   <g id="patch_2">
    <path d="M 35.304688 239.758125 
L 370.104688 239.758125 
L 370.104688 22.318125 
L 35.304688 22.318125 
z
" style="fill:#ffffff;"/>
   </g>
   <g id="matplotlib.axis_1">
    <g id="xtick_1">
     <g id="line2d_1">
      <defs>
       <path d="M 0 0 
L 0 3.5 
" id="m18c3bde237" style="stroke:#000000;stroke-width:0.8;"/>
      </defs>
      <g>
       <use style="stroke:#000000;stroke-width:0.8;" x="49.912922" xlink:href="#m18c3bde237" y="239.758125"/>
      </g>
     </g>
     <g id="text_1">
      <!-- 0 -->
      <g transform="translate(46.731672 254.356562)scale(0.1 -0.1)">
       <defs>
        <path d="M 31.78125 66.40625 
Q 24.171875 66.40625 20.328125 58.90625 
Q 16.5 51.421875 16.5 36.375 
Q 16.5 21.390625 20.328125 13.890625 
Q 24.171875 6.390625 31.78125 6.390625 
Q 39.453125 6.390625 43.28125 13.890625 
Q 47.125 21.390625 47.125 36.375 
Q 47.125 51.421875 43.28125 58.90625 
Q 39.453125 66.40625 31.78125 66.40625 
z
M 31.78125 74.21875 
Q 44.046875 74.21875 50.515625 64.515625 
Q 56.984375 54.828125 56.984375 36.375 
Q 56.984375 17.96875 50.515625 8.265625 
Q 44.046875 -1.421875 31.78125 -1.421875 
Q 19.53125 -1.421875 13.0625 8.265625 
Q 6.59375 17.96875 6.59375 36.375 
Q 6.59375 54.828125 13.0625 64.515625 
Q 19.53125 74.21875 31.78125 74.21875 
z
" id="DejaVuSans-48"/>
       </defs>
       <use xlink:href="#DejaVuSans-48"/>
      </g>
     </g>
    </g>
    <g id="xtick_2">
     <g id="line2d_2">
      <g>
       <use style="stroke:#000000;stroke-width:0.8;" x="110.907639" xlink:href="#m18c3bde237" y="239.758125"/>
      </g>
     </g>
     <g id="text_2">
      <!-- 100 -->
      <g transform="translate(101.363889 254.356562)scale(0.1 -0.1)">
       <defs>
        <path d="M 12.40625 8.296875 
L 28.515625 8.296875 
L 28.515625 63.921875 
L 10.984375 60.40625 
L 10.984375 69.390625 
L 28.421875 72.90625 
L 38.28125 72.90625 
L 38.28125 8.296875 
L 54.390625 8.296875 
L 54.390625 0 
L 12.40625 0 
z
" id="DejaVuSans-49"/>
       </defs>
       <use xlink:href="#DejaVuSans-49"/>
       <use x="63.623047" xlink:href="#DejaVuSans-48"/>
       <use x="127.246094" xlink:href="#DejaVuSans-48"/>
      </g>
     </g>
    </g>
    <g id="xtick_3">
     <g id="line2d_3">
      <g>
       <use style="stroke:#000000;stroke-width:0.8;" x="171.902356" xlink:href="#m18c3bde237" y="239.758125"/>
      </g>
     </g>
     <g id="text_3">
      <!-- 200 -->
      <g transform="translate(162.358606 254.356562)scale(0.1 -0.1)">
       <defs>
        <path d="M 19.1875 8.296875 
L 53.609375 8.296875 
L 53.609375 0 
L 7.328125 0 
L 7.328125 8.296875 
Q 12.9375 14.109375 22.625 23.890625 
Q 32.328125 33.6875 34.8125 36.53125 
Q 39.546875 41.84375 41.421875 45.53125 
Q 43.3125 49.21875 43.3125 52.78125 
Q 43.3125 58.59375 39.234375 62.25 
Q 35.15625 65.921875 28.609375 65.921875 
Q 23.96875 65.921875 18.8125 64.3125 
Q 13.671875 62.703125 7.8125 59.421875 
L 7.8125 69.390625 
Q 13.765625 71.78125 18.9375 73 
Q 24.125 74.21875 28.421875 74.21875 
Q 39.75 74.21875 46.484375 68.546875 
Q 53.21875 62.890625 53.21875 53.421875 
Q 53.21875 48.921875 51.53125 44.890625 
Q 49.859375 40.875 45.40625 35.40625 
Q 44.1875 33.984375 37.640625 27.21875 
Q 31.109375 20.453125 19.1875 8.296875 
z
" id="DejaVuSans-50"/>
       </defs>
       <use xlink:href="#DejaVuSans-50"/>
       <use x="63.623047" xlink:href="#DejaVuSans-48"/>
       <use x="127.246094" xlink:href="#DejaVuSans-48"/>
      </g>
     </g>
    </g>
    <g id="xtick_4">
     <g id="line2d_4">
      <g>
       <use style="stroke:#000000;stroke-width:0.8;" x="232.897072" xlink:href="#m18c3bde237" y="239.758125"/>
      </g>
     </g>
     <g id="text_4">
      <!-- 300 -->
      <g transform="translate(223.353322 254.356562)scale(0.1 -0.1)">
       <defs>
        <path d="M 40.578125 39.3125 
Q 47.65625 37.796875 51.625 33 
Q 55.609375 28.21875 55.609375 21.1875 
Q 55.609375 10.40625 48.1875 4.484375 
Q 40.765625 -1.421875 27.09375 -1.421875 
Q 22.515625 -1.421875 17.65625 -0.515625 
Q 12.796875 0.390625 7.625 2.203125 
L 7.625 11.71875 
Q 11.71875 9.328125 16.59375 8.109375 
Q 21.484375 6.890625 26.8125 6.890625 
Q 36.078125 6.890625 40.9375 10.546875 
Q 45.796875 14.203125 45.796875 21.1875 
Q 45.796875 27.640625 41.28125 31.265625 
Q 36.765625 34.90625 28.71875 34.90625 
L 20.21875 34.90625 
L 20.21875 43.015625 
L 29.109375 43.015625 
Q 36.375 43.015625 40.234375 45.921875 
Q 44.09375 48.828125 44.09375 54.296875 
Q 44.09375 59.90625 40.109375 62.90625 
Q 36.140625 65.921875 28.71875 65.921875 
Q 24.65625 65.921875 20.015625 65.03125 
Q 15.375 64.15625 9.8125 62.3125 
L 9.8125 71.09375 
Q 15.4375 72.65625 20.34375 73.4375 
Q 25.25 74.21875 29.59375 74.21875 
Q 40.828125 74.21875 47.359375 69.109375 
Q 53.90625 64.015625 53.90625 55.328125 
Q 53.90625 49.265625 50.4375 45.09375 
Q 46.96875 40.921875 40.578125 39.3125 
z
" id="DejaVuSans-51"/>
       </defs>
       <use xlink:href="#DejaVuSans-51"/>
       <use x="63.623047" xlink:href="#DejaVuSans-48"/>
       <use x="127.246094" xlink:href="#DejaVuSans-48"/>
      </g>
     </g>
    </g>
    <g id="xtick_5">
     <g id="line2d_5">
      <g>
       <use style="stroke:#000000;stroke-width:0.8;" x="293.891789" xlink:href="#m18c3bde237" y="239.758125"/>
      </g>
     </g>
     <g id="text_5">
      <!-- 400 -->
      <g transform="translate(284.348039 254.356562)scale(0.1 -0.1)">
       <defs>
        <path d="M 37.796875 64.3125 
L 12.890625 25.390625 
L 37.796875 25.390625 
z
M 35.203125 72.90625 
L 47.609375 72.90625 
L 47.609375 25.390625 
L 58.015625 25.390625 
L 58.015625 17.1875 
L 47.609375 17.1875 
L 47.609375 0 
L 37.796875 0 
L 37.796875 17.1875 
L 4.890625 17.1875 
L 4.890625 26.703125 
z
" id="DejaVuSans-52"/>
       </defs>
       <use xlink:href="#DejaVuSans-52"/>
       <use x="63.623047" xlink:href="#DejaVuSans-48"/>
       <use x="127.246094" xlink:href="#DejaVuSans-48"/>
      </g>
     </g>
    </g>
    <g id="xtick_6">
     <g id="line2d_6">
      <g>
       <use style="stroke:#000000;stroke-width:0.8;" x="354.886506" xlink:href="#m18c3bde237" y="239.758125"/>
      </g>
     </g>
     <g id="text_6">
      <!-- 500 -->
      <g transform="translate(345.342756 254.356562)scale(0.1 -0.1)">
       <defs>
        <path d="M 10.796875 72.90625 
L 49.515625 72.90625 
L 49.515625 64.59375 
L 19.828125 64.59375 
L 19.828125 46.734375 
Q 21.96875 47.46875 24.109375 47.828125 
Q 26.265625 48.1875 28.421875 48.1875 
Q 40.625 48.1875 47.75 41.5 
Q 54.890625 34.8125 54.890625 23.390625 
Q 54.890625 11.625 47.5625 5.09375 
Q 40.234375 -1.421875 26.90625 -1.421875 
Q 22.3125 -1.421875 17.546875 -0.640625 
Q 12.796875 0.140625 7.71875 1.703125 
L 7.71875 11.625 
Q 12.109375 9.234375 16.796875 8.0625 
Q 21.484375 6.890625 26.703125 6.890625 
Q 35.15625 6.890625 40.078125 11.328125 
Q 45.015625 15.765625 45.015625 23.390625 
Q 45.015625 31 40.078125 35.4375 
Q 35.15625 39.890625 26.703125 39.890625 
Q 22.75 39.890625 18.8125 39.015625 
Q 14.890625 38.140625 10.796875 36.28125 
z
" id="DejaVuSans-53"/>
       </defs>
       <use xlink:href="#DejaVuSans-53"/>
       <use x="63.623047" xlink:href="#DejaVuSans-48"/>
       <use x="127.246094" xlink:href="#DejaVuSans-48"/>
      </g>
     </g>
    </g>
    <g id="text_7">
     <!-- generations -->
     <g transform="translate(172.907031 268.034687)scale(0.1 -0.1)">
      <defs>
       <path d="M 45.40625 27.984375 
Q 45.40625 37.75 41.375 43.109375 
Q 37.359375 48.484375 30.078125 48.484375 
Q 22.859375 48.484375 18.828125 43.109375 
Q 14.796875 37.75 14.796875 27.984375 
Q 14.796875 18.265625 18.828125 12.890625 
Q 22.859375 7.515625 30.078125 7.515625 
Q 37.359375 7.515625 41.375 12.890625 
Q 45.40625 18.265625 45.40625 27.984375 
z
M 54.390625 6.78125 
Q 54.390625 -7.171875 48.1875 -13.984375 
Q 42 -20.796875 29.203125 -20.796875 
Q 24.46875 -20.796875 20.265625 -20.09375 
Q 16.0625 -19.390625 12.109375 -17.921875 
L 12.109375 -9.1875 
Q 16.0625 -11.328125 19.921875 -12.34375 
Q 23.78125 -13.375 27.78125 -13.375 
Q 36.625 -13.375 41.015625 -8.765625 
Q 45.40625 -4.15625 45.40625 5.171875 
L 45.40625 9.625 
Q 42.625 4.78125 38.28125 2.390625 
Q 33.9375 0 27.875 0 
Q 17.828125 0 11.671875 7.65625 
Q 5.515625 15.328125 5.515625 27.984375 
Q 5.515625 40.671875 11.671875 48.328125 
Q 17.828125 56 27.875 56 
Q 33.9375 56 38.28125 53.609375 
Q 42.625 51.21875 45.40625 46.390625 
L 45.40625 54.6875 
L 54.390625 54.6875 
z
" id="DejaVuSans-103"/>
       <path d="M 56.203125 29.59375 
L 56.203125 25.203125 
L 14.890625 25.203125 
Q 15.484375 15.921875 20.484375 11.0625 
Q 25.484375 6.203125 34.421875 6.203125 
Q 39.59375 6.203125 44.453125 7.46875 
Q 49.3125 8.734375 54.109375 11.28125 
L 54.109375 2.78125 
Q 49.265625 0.734375 44.1875 -0.34375 
Q 39.109375 -1.421875 33.890625 -1.421875 
Q 20.796875 -1.421875 13.15625 6.1875 
Q 5.515625 13.8125 5.515625 26.8125 
Q 5.515625 40.234375 12.765625 48.109375 
Q 20.015625 56 32.328125 56 
Q 43.359375 56 49.78125 48.890625 
Q 56.203125 41.796875 56.203125 29.59375 
z
M 47.21875 32.234375 
Q 47.125 39.59375 43.09375 43.984375 
Q 39.0625 48.390625 32.421875 48.390625 
Q 24.90625 48.390625 20.390625 44.140625 
Q 15.875 39.890625 15.1875 32.171875 
z
" id="DejaVuSans-101"/>
       <path d="M 54.890625 33.015625 
L 54.890625 0 
L 45.90625 0 
L 45.90625 32.71875 
Q 45.90625 40.484375 42.875 44.328125 
Q 39.84375 48.1875 33.796875 48.1875 
Q 26.515625 48.1875 22.3125 43.546875 
Q 18.109375 38.921875 18.109375 30.90625 
L 18.109375 0 
L 9.078125 0 
L 9.078125 54.6875 
L 18.109375 54.6875 
L 18.109375 46.1875 
Q 21.34375 51.125 25.703125 53.5625 
Q 30.078125 56 35.796875 56 
Q 45.21875 56 50.046875 50.171875 
Q 54.890625 44.34375 54.890625 33.015625 
z
" id="DejaVuSans-110"/>
       <path d="M 41.109375 46.296875 
Q 39.59375 47.171875 37.8125 47.578125 
Q 36.03125 48 33.890625 48 
Q 26.265625 48 22.1875 43.046875 
Q 18.109375 38.09375 18.109375 28.8125 
L 18.109375 0 
L 9.078125 0 
L 9.078125 54.6875 
L 18.109375 54.6875 
L 18.109375 46.1875 
Q 20.953125 51.171875 25.484375 53.578125 
Q 30.03125 56 36.53125 56 
Q 37.453125 56 38.578125 55.875 
Q 39.703125 55.765625 41.0625 55.515625 
z
" id="DejaVuSans-114"/>
       <path d="M 34.28125 27.484375 
Q 23.390625 27.484375 19.1875 25 
Q 14.984375 22.515625 14.984375 16.5 
Q 14.984375 11.71875 18.140625 8.90625 
Q 21.296875 6.109375 26.703125 6.109375 
Q 34.1875 6.109375 38.703125 11.40625 
Q 43.21875 16.703125 43.21875 25.484375 
L 43.21875 27.484375 
z
M 52.203125 31.203125 
L 52.203125 0 
L 43.21875 0 
L 43.21875 8.296875 
Q 40.140625 3.328125 35.546875 0.953125 
Q 30.953125 -1.421875 24.3125 -1.421875 
Q 15.921875 -1.421875 10.953125 3.296875 
Q 6 8.015625 6 15.921875 
Q 6 25.140625 12.171875 29.828125 
Q 18.359375 34.515625 30.609375 34.515625 
L 43.21875 34.515625 
L 43.21875 35.40625 
Q 43.21875 41.609375 39.140625 45 
Q 35.0625 48.390625 27.6875 48.390625 
Q 23 48.390625 18.546875 47.265625 
Q 14.109375 46.140625 10.015625 43.890625 
L 10.015625 52.203125 
Q 14.9375 54.109375 19.578125 55.046875 
Q 24.21875 56 28.609375 56 
Q 40.484375 56 46.34375 49.84375 
Q 52.203125 43.703125 52.203125 31.203125 
z
" id="DejaVuSans-97"/>
       <path d="M 18.3125 70.21875 
L 18.3125 54.6875 
L 36.8125 54.6875 
L 36.8125 47.703125 
L 18.3125 47.703125 
L 18.3125 18.015625 
Q 18.3125 11.328125 20.140625 9.421875 
Q 21.96875 7.515625 27.59375 7.515625 
L 36.8125 7.515625 
L 36.8125 0 
L 27.59375 0 
Q 17.1875 0 13.234375 3.875 
Q 9.28125 7.765625 9.28125 18.015625 
L 9.28125 47.703125 
L 2.6875 47.703125 
L 2.6875 54.6875 
L 9.28125 54.6875 
L 9.28125 70.21875 
z
" id="DejaVuSans-116"/>
       <path d="M 9.421875 54.6875 
L 18.40625 54.6875 
L 18.40625 0 
L 9.421875 0 
z
M 9.421875 75.984375 
L 18.40625 75.984375 
L 18.40625 64.59375 
L 9.421875 64.59375 
z
" id="DejaVuSans-105"/>
       <path d="M 30.609375 48.390625 
Q 23.390625 48.390625 19.1875 42.75 
Q 14.984375 37.109375 14.984375 27.296875 
Q 14.984375 17.484375 19.15625 11.84375 
Q 23.34375 6.203125 30.609375 6.203125 
Q 37.796875 6.203125 41.984375 11.859375 
Q 46.1875 17.53125 46.1875 27.296875 
Q 46.1875 37.015625 41.984375 42.703125 
Q 37.796875 48.390625 30.609375 48.390625 
z
M 30.609375 56 
Q 42.328125 56 49.015625 48.375 
Q 55.71875 40.765625 55.71875 27.296875 
Q 55.71875 13.875 49.015625 6.21875 
Q 42.328125 -1.421875 30.609375 -1.421875 
Q 18.84375 -1.421875 12.171875 6.21875 
Q 5.515625 13.875 5.515625 27.296875 
Q 5.515625 40.765625 12.171875 48.375 
Q 18.84375 56 30.609375 56 
z
" id="DejaVuSans-111"/>
       <path d="M 44.28125 53.078125 
L 44.28125 44.578125 
Q 40.484375 46.53125 36.375 47.5 
Q 32.28125 48.484375 27.875 48.484375 
Q 21.1875 48.484375 17.84375 46.4375 
Q 14.5 44.390625 14.5 40.28125 
Q 14.5 37.15625 16.890625 35.375 
Q 19.28125 33.59375 26.515625 31.984375 
L 29.59375 31.296875 
Q 39.15625 29.25 43.1875 25.515625 
Q 47.21875 21.78125 47.21875 15.09375 
Q 47.21875 7.46875 41.1875 3.015625 
Q 35.15625 -1.421875 24.609375 -1.421875 
Q 20.21875 -1.421875 15.453125 -0.5625 
Q 10.6875 0.296875 5.421875 2 
L 5.421875 11.28125 
Q 10.40625 8.6875 15.234375 7.390625 
Q 20.0625 6.109375 24.8125 6.109375 
Q 31.15625 6.109375 34.5625 8.28125 
Q 37.984375 10.453125 37.984375 14.40625 
Q 37.984375 18.0625 35.515625 20.015625 
Q 33.0625 21.96875 24.703125 23.78125 
L 21.578125 24.515625 
Q 13.234375 26.265625 9.515625 29.90625 
Q 5.8125 33.546875 5.8125 39.890625 
Q 5.8125 47.609375 11.28125 51.796875 
Q 16.75 56 26.8125 56 
Q 31.78125 56 36.171875 55.265625 
Q 40.578125 54.546875 44.28125 53.078125 
z
" id="DejaVuSans-115"/>
      </defs>
      <use xlink:href="#DejaVuSans-103"/>
      <use x="63.476562" xlink:href="#DejaVuSans-101"/>
      <use x="125" xlink:href="#DejaVuSans-110"/>
      <use x="188.378906" xlink:href="#DejaVuSans-101"/>
      <use x="249.902344" xlink:href="#DejaVuSans-114"/>
      <use x="291.015625" xlink:href="#DejaVuSans-97"/>
      <use x="352.294922" xlink:href="#DejaVuSans-116"/>
      <use x="391.503906" xlink:href="#DejaVuSans-105"/>
      <use x="419.287109" xlink:href="#DejaVuSans-111"/>
      <use x="480.46875" xlink:href="#DejaVuSans-110"/>
      <use x="543.847656" xlink:href="#DejaVuSans-115"/>
     </g>
    </g>
   </g>
   <g id="matplotlib.axis_2">
    <g id="ytick_1">
     <g id="line2d_7">
      <defs>
       <path d="M 0 0 
L -3.5 0 
" id="m5081d03bd0" style="stroke:#000000;stroke-width:0.8;"/>
      </defs>
      <g>
       <use style="stroke:#000000;stroke-width:0.8;" x="35.304688" xlink:href="#m5081d03bd0" y="204.080617"/>
      </g>
     </g>
     <g id="text_8">
      <!-- −50 -->
      <g transform="translate(7.2 207.879836)scale(0.1 -0.1)">
       <defs>
        <path d="M 10.59375 35.5 
L 73.1875 35.5 
L 73.1875 27.203125 
L 10.59375 27.203125 
z
" id="DejaVuSans-8722"/>
       </defs>
       <use xlink:href="#DejaVuSans-8722"/>
       <use x="83.789062" xlink:href="#DejaVuSans-53"/>
       <use x="147.412109" xlink:href="#DejaVuSans-48"/>
      </g>
     </g>
    </g>
    <g id="ytick_2">
     <g id="line2d_8">
      <g>
       <use style="stroke:#000000;stroke-width:0.8;" x="35.304688" xlink:href="#m5081d03bd0" y="166.428145"/>
      </g>
     </g>
     <g id="text_9">
      <!-- 0 -->
      <g transform="translate(21.942188 170.227364)scale(0.1 -0.1)">
       <use xlink:href="#DejaVuSans-48"/>
      </g>
     </g>
    </g>
    <g id="ytick_3">
     <g id="line2d_9">
      <g>
       <use style="stroke:#000000;stroke-width:0.8;" x="35.304688" xlink:href="#m5081d03bd0" y="128.775673"/>
      </g>
     </g>
     <g id="text_10">
      <!-- 50 -->
      <g transform="translate(15.579688 132.574892)scale(0.1 -0.1)">
       <use xlink:href="#DejaVuSans-53"/>
       <use x="63.623047" xlink:href="#DejaVuSans-48"/>
      </g>
     </g>
    </g>
    <g id="ytick_4">
     <g id="line2d_10">
      <g>
       <use style="stroke:#000000;stroke-width:0.8;" x="35.304688" xlink:href="#m5081d03bd0" y="91.123201"/>
      </g>
     </g>
     <g id="text_11">
      <!-- 100 -->
      <g transform="translate(9.217188 94.92242)scale(0.1 -0.1)">
       <use xlink:href="#DejaVuSans-49"/>
       <use x="63.623047" xlink:href="#DejaVuSans-48"/>
       <use x="127.246094" xlink:href="#DejaVuSans-48"/>
      </g>
     </g>
    </g>
    <g id="ytick_5">
     <g id="line2d_11">
      <g>
       <use style="stroke:#000000;stroke-width:0.8;" x="35.304688" xlink:href="#m5081d03bd0" y="53.470729"/>
      </g>
     </g>
     <g id="text_12">
      <!-- 150 -->
      <g transform="translate(9.217188 57.269948)scale(0.1 -0.1)">
       <use xlink:href="#DejaVuSans-49"/>
       <use x="63.623047" xlink:href="#DejaVuSans-53"/>
       <use x="127.246094" xlink:href="#DejaVuSans-48"/>
      </g>
     </g>
    </g>
   </g>
   <g id="line2d_12">
    <path clip-path="url(#pf9736cff1c)" d="M 50.522869 145.907611 
L 51.132816 154.86402 
L 51.742764 154.86402 
L 52.352711 157.924499 
L 87.729647 157.924499 
L 88.339594 159.159755 
L 89.559488 159.159755 
L 90.169435 163.698183 
L 93.829118 163.698183 
L 94.439065 165.32729 
L 124.326477 165.406701 
L 124.936424 167.257776 
L 134.695578 167.257776 
L 135.305526 171.944224 
L 148.114416 171.944224 
L 148.724363 172.954829 
L 149.944258 172.954829 
L 150.554205 182.925628 
L 154.823835 182.925628 
L 155.433782 183.745474 
L 167.632725 183.745474 
L 168.242673 186.953735 
L 173.12225 186.953735 
L 173.732197 189.565361 
L 178.611774 189.565361 
L 179.221722 191.197766 
L 179.831669 191.197766 
L 180.441616 196.359069 
L 195.080348 196.359069 
L 195.690295 202.43436 
L 204.229555 202.43436 
L 204.839503 207.683181 
L 205.44945 208.541995 
L 210.938974 208.541995 
L 211.548921 209.846945 
L 214.598657 209.846945 
L 215.208604 210.006439 
L 220.088182 210.006439 
L 220.698129 211.432968 
L 221.308076 211.432968 
L 221.918023 212.072548 
L 222.52797 213.475515 
L 224.357812 213.521615 
L 225.577706 217.829498 
L 226.797601 217.829498 
L 227.407548 218.035721 
L 237.77665 218.035721 
L 238.386597 218.478562 
L 240.826385 218.478562 
L 241.436333 218.638 
L 244.486068 218.638 
L 245.096016 220.926869 
L 251.805434 220.926869 
L 252.415382 221.61259 
L 259.734748 221.61259 
L 260.344695 224.185216 
L 263.394431 224.185216 
L 264.004378 225.597568 
L 287.18237 225.669501 
L 287.792317 225.937092 
L 323.7792 225.937092 
L 324.389147 227.960566 
L 328.04883 227.960566 
L 328.658777 228.648196 
L 353.666611 228.648196 
L 354.276559 229.874489 
L 354.886506 229.874489 
L 354.886506 229.874489 
" style="fill:none;stroke:#1f77b4;stroke-linecap:square;stroke-width:1.5;"/>
   </g>
   <g id="line2d_13">
    <path clip-path="url(#pf9736cff1c)" d="M 50.522869 145.907611 
L 51.132816 154.86402 
L 51.742764 139.563731 
L 52.352711 157.924499 
L 52.962658 149.861624 
L 53.572605 147.950894 
L 54.182552 142.930282 
L 54.792499 141.802396 
L 55.402447 155.780347 
L 56.012394 142.143382 
L 56.622341 148.917248 
L 57.232288 142.458605 
L 57.842235 143.540769 
L 58.452182 155.084718 
L 59.06213 142.261267 
L 59.672077 144.457319 
L 60.282024 150.043399 
L 60.891971 141.814948 
L 61.501918 135.724556 
L 62.111865 148.462907 
L 62.721813 139.91592 
L 63.33176 137.967038 
L 63.941707 136.746749 
L 64.551654 150.197507 
L 65.161601 147.961218 
L 65.771548 149.943987 
L 66.381496 136.401185 
L 66.991443 146.0297 
L 67.60139 152.421639 
L 68.211337 153.24581 
L 68.821284 153.235164 
L 69.431231 141.332688 
L 70.041179 142.345952 
L 70.651126 141.045459 
L 71.261073 146.746477 
L 71.87102 155.532111 
L 72.480967 153.316135 
L 73.090914 145.652355 
L 73.700862 148.575478 
L 74.310809 140.127072 
L 74.920756 150.824233 
L 75.530703 145.630297 
L 76.14065 146.618464 
L 76.750598 147.990566 
L 77.360545 145.85068 
L 77.970492 149.154622 
L 78.580439 149.155549 
L 79.190386 138.356591 
L 79.800333 147.174933 
L 80.410281 144.842237 
L 81.020228 149.363403 
L 81.630175 148.910345 
L 82.240122 148.704656 
L 82.850069 150.537731 
L 83.460016 157.856938 
L 84.069964 150.039804 
L 84.679911 146.540993 
L 85.289858 155.439309 
L 85.899805 149.154922 
L 86.509752 145.356653 
L 87.119699 149.232193 
L 88.339594 159.159755 
L 88.949541 150.456832 
L 89.559488 158.412783 
L 90.169435 163.698183 
L 90.779382 159.257476 
L 91.38933 158.731689 
L 91.999277 159.729459 
L 92.609224 160.957888 
L 93.219171 160.107742 
L 93.829118 158.207744 
L 94.439065 165.32729 
L 95.049013 150.748006 
L 95.65896 159.626667 
L 96.268907 155.274217 
L 96.878854 158.80621 
L 97.488801 157.979655 
L 98.098748 156.847578 
L 98.708696 161.316879 
L 99.318643 159.123945 
L 99.92859 165.089866 
L 100.538537 150.011385 
L 101.148484 153.894803 
L 101.758431 156.279859 
L 102.368379 155.759308 
L 102.978326 156.260053 
L 104.19822 157.863409 
L 104.808167 159.649847 
L 105.418114 155.395503 
L 106.028062 158.830125 
L 106.638009 160.924665 
L 107.247956 147.340071 
L 107.857903 154.98787 
L 108.46785 157.640053 
L 109.077797 154.666593 
L 109.687745 157.321316 
L 110.297692 157.037583 
L 110.907639 156.534761 
L 111.517586 152.5306 
L 112.127533 154.31842 
L 112.73748 158.845685 
L 113.347428 157.388753 
L 113.957375 154.487382 
L 114.567322 157.134217 
L 115.177269 157.207806 
L 115.787216 160.539628 
L 116.397163 157.525735 
L 117.007111 157.073761 
L 117.617058 158.969261 
L 118.227005 154.451034 
L 118.836952 158.168015 
L 119.446899 158.333393 
L 120.056846 161.584918 
L 120.666794 157.795706 
L 121.276741 162.303958 
L 121.886688 165.406701 
L 123.106582 162.695223 
L 123.716529 158.729431 
L 124.326477 160.451787 
L 124.936424 167.257776 
L 125.546371 162.322732 
L 126.766265 161.0941 
L 127.376212 166.44011 
L 127.98616 153.990317 
L 128.596107 161.600799 
L 129.206054 162.434836 
L 129.816001 158.984392 
L 130.425948 159.931543 
L 131.035895 166.602597 
L 131.645843 153.421908 
L 132.25579 161.027863 
L 132.865737 162.025784 
L 133.475684 160.986008 
L 134.085631 163.594003 
L 134.695578 150.848246 
L 135.305526 171.944224 
L 135.915473 157.627791 
L 136.52542 158.378558 
L 137.135367 157.93918 
L 137.745314 162.151148 
L 138.355261 157.969843 
L 138.965209 156.596889 
L 139.575156 161.876057 
L 140.185103 160.569414 
L 140.79505 160.212214 
L 141.404997 158.302921 
L 142.014944 157.61955 
L 142.624892 159.451216 
L 143.234839 158.420613 
L 143.844786 159.738893 
L 144.454733 158.293853 
L 145.06468 165.208465 
L 145.674627 160.264752 
L 146.284575 160.153249 
L 146.894522 169.585503 
L 147.504469 166.538768 
L 148.114416 169.310955 
L 148.724363 172.954829 
L 149.33431 168.305137 
L 149.944258 160.336381 
L 150.554205 182.925628 
L 151.164152 164.955519 
L 151.774099 170.07432 
L 152.384046 167.169196 
L 152.993993 177.158355 
L 153.603941 171.99039 
L 154.213888 169.011792 
L 154.823835 177.431871 
L 155.433782 183.745474 
L 156.043729 171.326529 
L 156.653676 176.289374 
L 157.263624 176.066814 
L 157.873571 180.130011 
L 158.483518 179.989523 
L 159.093465 171.246406 
L 159.703412 177.668006 
L 160.313359 173.40334 
L 160.923307 172.991548 
L 161.533254 173.293238 
L 162.143201 170.829931 
L 162.753148 179.440255 
L 163.363095 170.574295 
L 163.973042 178.329959 
L 164.58299 173.370973 
L 165.192937 182.247919 
L 165.802884 169.366355 
L 166.412831 177.899024 
L 167.022778 183.116414 
L 167.632725 176.324587 
L 168.242673 186.953735 
L 168.85262 175.922136 
L 169.462567 182.401955 
L 170.072514 183.3113 
L 170.682461 183.587428 
L 171.292408 175.121797 
L 172.512303 185.664361 
L 173.12225 183.40401 
L 173.732197 189.565361 
L 174.342144 180.750535 
L 174.952091 186.56219 
L 175.562039 182.114132 
L 176.171986 182.234771 
L 176.781933 189.264883 
L 177.39188 182.452412 
L 178.001827 182.88527 
L 179.221722 191.197766 
L 179.831669 187.593981 
L 180.441616 196.359069 
L 181.051563 184.093387 
L 181.66151 183.81122 
L 182.271457 186.361299 
L 182.881405 183.543499 
L 183.491352 187.024946 
L 184.101299 185.91454 
L 184.711246 183.65233 
L 185.321193 191.280887 
L 185.93114 190.153464 
L 186.541088 187.695122 
L 187.151035 182.622133 
L 187.760982 190.02664 
L 188.370929 186.007306 
L 188.980876 190.270953 
L 189.590823 189.768983 
L 190.200771 193.520488 
L 190.810718 189.392326 
L 191.420665 190.566134 
L 192.030612 196.233008 
L 192.640559 189.304982 
L 193.250506 195.376756 
L 193.860454 195.321799 
L 194.470401 189.87891 
L 195.080348 193.397179 
L 195.690295 202.43436 
L 196.300242 191.663311 
L 196.910189 193.790229 
L 197.520137 187.917013 
L 198.130084 191.553953 
L 198.740031 196.139761 
L 199.349978 197.289248 
L 199.959925 197.254636 
L 200.569872 201.319471 
L 201.17982 198.465338 
L 201.789767 200.028277 
L 202.399714 196.91451 
L 203.009661 197.1035 
L 203.619608 198.504799 
L 204.229555 198.503749 
L 204.839503 207.683181 
L 205.44945 208.541995 
L 206.059397 206.773288 
L 206.669344 207.072505 
L 207.279291 206.150458 
L 207.889238 206.193382 
L 208.499186 205.589943 
L 209.109133 201.376635 
L 209.71908 201.866487 
L 210.329027 208.269577 
L 210.938974 204.783457 
L 211.548921 209.846945 
L 212.158869 200.836608 
L 212.768816 203.39991 
L 213.378763 203.363843 
L 213.98871 209.723667 
L 214.598657 206.677779 
L 215.208604 210.006439 
L 215.818552 204.1777 
L 216.428499 207.449826 
L 217.038446 204.077894 
L 217.648393 202.920816 
L 218.25834 208.372721 
L 218.868287 204.260568 
L 219.478235 207.824723 
L 220.088182 206.989287 
L 220.698129 211.432968 
L 221.308076 211.140413 
L 221.918023 212.072548 
L 222.52797 213.475515 
L 223.137918 208.525841 
L 223.747865 208.617435 
L 224.357812 213.521615 
L 225.577706 217.829498 
L 226.187653 211.526773 
L 226.797601 217.819941 
L 227.407548 218.035721 
L 228.017495 212.530146 
L 228.627442 213.181814 
L 229.237389 213.553764 
L 229.847336 216.933049 
L 230.457284 212.264588 
L 231.067231 213.006928 
L 231.677178 210.075436 
L 232.287125 211.839582 
L 232.897072 212.340291 
L 233.507019 209.872066 
L 234.116967 216.610507 
L 234.726914 207.21497 
L 235.336861 215.624113 
L 235.946808 212.777535 
L 236.556755 215.647542 
L 237.166702 213.070359 
L 237.77665 213.402265 
L 238.386597 218.478562 
L 238.996544 216.882137 
L 239.606491 208.980785 
L 240.216438 215.43806 
L 240.826385 211.18703 
L 241.436333 218.638 
L 242.04628 213.769114 
L 242.656227 211.039753 
L 243.266174 213.743866 
L 243.876121 214.3408 
L 244.486068 216.745201 
L 245.096016 220.926869 
L 245.705963 219.429293 
L 246.31591 213.774836 
L 246.925857 216.22742 
L 247.535804 213.389689 
L 248.145751 216.652029 
L 248.755699 211.619102 
L 249.365646 214.103445 
L 249.975593 215.674012 
L 250.58554 215.94502 
L 251.195487 213.047636 
L 251.805434 215.520374 
L 252.415382 221.61259 
L 253.025329 216.360763 
L 253.635276 217.776202 
L 254.245223 215.087696 
L 254.85517 215.809706 
L 255.465117 215.937723 
L 256.075065 214.749861 
L 256.685012 217.872076 
L 257.294959 216.113705 
L 257.904906 221.59802 
L 258.514853 214.533407 
L 259.1248 215.791991 
L 259.734748 220.563154 
L 260.344695 224.185216 
L 260.954642 220.558619 
L 261.564589 220.488421 
L 262.174536 219.478654 
L 262.784483 223.074235 
L 263.394431 219.282819 
L 264.004378 225.597568 
L 264.614325 220.187832 
L 265.224272 221.277888 
L 265.834219 219.726445 
L 266.444166 219.492719 
L 267.054114 220.254369 
L 267.664061 219.15309 
L 268.274008 218.343477 
L 268.883955 221.22561 
L 269.493902 216.51326 
L 270.103849 222.226698 
L 270.713797 221.249988 
L 271.323744 219.417507 
L 271.933691 220.129498 
L 272.543638 221.402494 
L 273.153585 219.723765 
L 273.763532 222.889306 
L 274.37348 218.960969 
L 274.983427 220.534432 
L 275.593374 220.421449 
L 276.203321 217.221817 
L 276.813268 221.7028 
L 277.423215 224.499064 
L 278.033163 221.146358 
L 278.64311 215.993192 
L 279.253057 216.276853 
L 279.863004 217.259028 
L 280.472951 222.177069 
L 281.082898 217.068215 
L 281.692846 221.904502 
L 282.302793 225.669501 
L 282.91274 218.383619 
L 283.522687 222.638195 
L 284.742581 215.34517 
L 285.352529 218.502751 
L 285.962476 219.7794 
L 286.572423 219.738479 
L 287.18237 220.185935 
L 287.792317 225.937092 
L 289.012212 218.02917 
L 289.622159 221.783772 
L 290.232106 219.572514 
L 290.842053 220.702178 
L 291.452 217.692246 
L 292.061947 222.58729 
L 292.671895 215.756195 
L 293.281842 221.003175 
L 293.891789 222.797747 
L 294.501736 221.547255 
L 295.111683 209.393263 
L 295.72163 223.824174 
L 296.331578 216.356457 
L 296.941525 220.445842 
L 297.551472 215.85755 
L 298.161419 218.936535 
L 298.771366 216.148805 
L 299.381313 219.778849 
L 299.991261 216.536275 
L 300.601208 219.325911 
L 301.211155 216.416392 
L 301.821102 217.817947 
L 302.431049 220.870596 
L 303.040996 216.003197 
L 303.650944 217.955378 
L 304.870838 222.822241 
L 305.480785 218.524952 
L 306.090732 220.987368 
L 306.700679 223.987676 
L 307.310627 223.585812 
L 307.920574 220.579626 
L 308.530521 220.9791 
L 309.140468 223.971804 
L 310.360362 219.58369 
L 310.97031 220.930952 
L 311.580257 221.429746 
L 312.190204 221.76833 
L 312.800151 218.029871 
L 313.410098 215.08364 
L 314.020045 218.203753 
L 314.629993 220.519712 
L 315.23994 221.462711 
L 315.849887 217.449637 
L 316.459834 218.180756 
L 317.069781 222.878935 
L 317.679728 221.938345 
L 318.289676 222.62037 
L 319.50957 216.673638 
L 320.119517 222.972665 
L 320.729464 218.591775 
L 321.339411 224.434597 
L 321.949359 221.638484 
L 322.559306 222.917211 
L 323.169253 222.203177 
L 323.7792 220.801535 
L 324.389147 227.960566 
L 324.999094 218.983716 
L 325.609042 218.717907 
L 326.218989 224.4859 
L 326.828936 221.3593 
L 327.438883 216.919887 
L 328.658777 228.648196 
L 329.268725 220.416834 
L 329.878672 222.552034 
L 330.488619 216.9112 
L 331.098566 218.900713 
L 331.708513 219.160376 
L 332.318461 220.406186 
L 332.928408 219.803573 
L 333.538355 217.40946 
L 334.148302 218.719178 
L 334.758249 222.288667 
L 335.368196 220.312865 
L 335.978144 217.232775 
L 336.588091 220.37013 
L 337.807985 218.558651 
L 338.417932 222.102062 
L 339.027879 218.313899 
L 339.637827 218.112496 
L 340.857721 219.313498 
L 341.467668 218.929819 
L 342.077615 220.890964 
L 342.687562 221.323562 
L 343.29751 217.319714 
L 343.907457 221.12604 
L 344.517404 220.409398 
L 345.127351 224.260698 
L 345.737298 225.544607 
L 346.347245 222.612863 
L 346.957193 222.646029 
L 347.56714 224.180587 
L 348.177087 223.054665 
L 348.787034 222.332719 
L 349.396981 222.33808 
L 350.006928 220.744948 
L 350.616876 226.870044 
L 351.226823 224.088841 
L 351.83677 225.705419 
L 352.446717 221.119262 
L 353.056664 221.731618 
L 353.666611 224.942362 
L 354.276559 229.874489 
L 354.886506 222.752333 
L 354.886506 222.752333 
" style="fill:none;stroke:#ff7f0e;stroke-linecap:square;stroke-width:1.5;"/>
   </g>
   <g id="line2d_14">
    <path clip-path="url(#pf9736cff1c)" d="M 50.522869 90.265307 
L 51.132816 91.822195 
L 51.742764 91.128144 
L 52.352711 92.974613 
L 52.962658 104.459027 
L 53.572605 126.543576 
L 54.182552 125.239981 
L 54.792499 119.796662 
L 55.402447 119.126964 
L 56.012394 117.692353 
L 56.622341 122.205999 
L 57.232288 106.798159 
L 57.842235 121.729528 
L 58.452182 102.793699 
L 59.06213 87.817705 
L 59.672077 102.633237 
L 60.282024 112.31986 
L 60.891971 118.034215 
L 61.501918 107.751823 
L 62.721813 120.783252 
L 63.33176 124.076774 
L 63.941707 123.841614 
L 64.551654 118.055337 
L 65.161601 123.731489 
L 65.771548 122.726263 
L 66.381496 124.800408 
L 66.991443 123.49341 
L 67.60139 129.058019 
L 68.211337 120.518571 
L 68.821284 126.464849 
L 69.431231 121.083852 
L 70.041179 120.846425 
L 70.651126 123.398935 
L 71.261073 121.37189 
L 71.87102 127.543097 
L 72.480967 113.29703 
L 73.090914 88.130183 
L 73.700862 86.562643 
L 74.310809 127.417369 
L 74.920756 120.998033 
L 75.530703 125.594313 
L 76.14065 131.102717 
L 76.750598 130.841031 
L 77.360545 137.679867 
L 77.970492 130.708137 
L 78.580439 133.465008 
L 79.190386 120.198052 
L 79.800333 126.164313 
L 80.410281 135.122841 
L 81.020228 135.203074 
L 82.240122 132.029531 
L 82.850069 133.184932 
L 83.460016 142.948291 
L 84.069964 129.744234 
L 84.679911 130.722625 
L 85.289858 139.614248 
L 85.899805 133.377429 
L 86.509752 133.847914 
L 87.119699 131.487247 
L 88.339594 141.269636 
L 89.559488 138.202398 
L 90.169435 125.665092 
L 90.779382 136.320352 
L 91.38933 127.290303 
L 91.999277 141.137882 
L 92.609224 136.226394 
L 93.829118 141.741248 
L 94.439065 136.727777 
L 95.049013 134.339433 
L 95.65896 130.591189 
L 96.268907 137.419993 
L 96.878854 132.34799 
L 97.488801 141.74867 
L 98.098748 138.263282 
L 98.708696 143.477048 
L 99.318643 141.227235 
L 99.92859 140.43111 
L 100.538537 137.620436 
L 101.148484 134.088434 
L 101.758431 133.952998 
L 102.368379 140.675547 
L 102.978326 141.198 
L 103.588273 140.339282 
L 104.19822 140.246727 
L 104.808167 142.879871 
L 105.418114 141.136725 
L 106.028062 142.399265 
L 106.638009 137.581369 
L 107.247956 123.132839 
L 107.857903 136.984121 
L 108.46785 136.343924 
L 109.077797 132.112101 
L 109.687745 141.858153 
L 110.297692 143.188115 
L 110.907639 142.599426 
L 111.517586 140.223331 
L 112.127533 132.186279 
L 112.73748 139.317691 
L 113.347428 140.831884 
L 113.957375 138.708537 
L 114.567322 141.664425 
L 115.177269 138.98006 
L 115.787216 140.741461 
L 116.397163 144.129477 
L 117.617058 140.503501 
L 118.227005 141.081368 
L 118.836952 141.119908 
L 119.446899 141.283504 
L 120.056846 143.006575 
L 120.666794 141.969791 
L 121.276741 145.136654 
L 121.886688 143.971499 
L 122.496635 138.921904 
L 123.106582 147.809002 
L 123.716529 143.362301 
L 124.326477 144.981621 
L 124.936424 147.585511 
L 125.546371 139.997502 
L 126.156318 143.211782 
L 126.766265 147.825619 
L 127.98616 138.688951 
L 128.596107 141.537105 
L 129.206054 141.189919 
L 129.816001 142.612904 
L 130.425948 137.874214 
L 131.035895 140.479012 
L 131.645843 141.185541 
L 132.25579 140.396697 
L 132.865737 141.671178 
L 133.475684 136.887966 
L 134.085631 144.342116 
L 134.695578 145.410303 
L 135.305526 143.069807 
L 137.135367 147.290063 
L 137.745314 143.170034 
L 138.355261 143.00551 
L 138.965209 142.62601 
L 139.575156 146.558063 
L 140.185103 141.864357 
L 140.79505 143.371212 
L 141.404997 140.263517 
L 142.014944 145.234589 
L 142.624892 141.243161 
L 143.234839 140.599749 
L 143.844786 140.259717 
L 144.454733 145.0601 
L 145.06468 137.975601 
L 145.674627 142.133938 
L 146.284575 137.585751 
L 146.894522 144.886224 
L 147.504469 147.510216 
L 148.114416 147.164029 
L 148.724363 151.824099 
L 149.33431 91.612843 
L 149.944258 136.263456 
L 150.554205 149.520337 
L 151.164152 143.639404 
L 151.774099 154.968664 
L 152.384046 141.167926 
L 152.993993 160.356624 
L 153.603941 159.766683 
L 154.213888 158.230511 
L 154.823835 151.937913 
L 155.433782 160.883696 
L 156.043729 155.709822 
L 156.653676 163.189613 
L 157.263624 87.561835 
L 157.873571 148.001092 
L 158.483518 161.932724 
L 159.093465 94.062601 
L 159.703412 157.605071 
L 160.313359 155.529953 
L 160.923307 154.495247 
L 161.533254 159.967508 
L 162.143201 161.957033 
L 162.753148 160.791821 
L 163.363095 151.919436 
L 163.973042 161.845657 
L 164.58299 151.988729 
L 165.192937 155.797286 
L 165.802884 155.590404 
L 166.412831 165.156139 
L 167.022778 148.636002 
L 168.242673 159.884841 
L 168.85262 157.266198 
L 169.462567 165.192282 
L 170.072514 165.608297 
L 170.682461 162.541025 
L 171.292408 167.223532 
L 171.902356 155.77884 
L 173.12225 167.565293 
L 173.732197 164.572844 
L 174.342144 153.219279 
L 174.952091 168.924692 
L 175.562039 94.076316 
L 176.171986 170.712599 
L 176.781933 144.331084 
L 177.39188 146.460792 
L 178.001827 155.190956 
L 178.611774 149.125372 
L 179.221722 152.149139 
L 179.831669 168.774822 
L 180.441616 162.521404 
L 181.051563 174.37437 
L 181.66151 98.435724 
L 182.271457 167.64461 
L 182.881405 169.635998 
L 183.491352 96.900823 
L 184.101299 177.90496 
L 184.711246 159.676965 
L 185.321193 172.416762 
L 185.93114 168.799749 
L 186.541088 177.387039 
L 187.151035 153.705279 
L 187.760982 174.672456 
L 188.370929 138.27891 
L 188.980876 164.510143 
L 189.590823 176.990918 
L 190.200771 175.451089 
L 190.810718 174.814028 
L 191.420665 173.09129 
L 192.030612 169.87701 
L 192.640559 177.240404 
L 193.250506 172.325284 
L 193.860454 174.727916 
L 194.470401 171.48838 
L 195.080348 143.023809 
L 195.690295 169.303594 
L 196.300242 173.089511 
L 196.910189 171.569874 
L 197.520137 173.032731 
L 198.130084 176.877259 
L 198.740031 176.823506 
L 199.349978 179.649519 
L 199.959925 186.446149 
L 200.569872 182.305832 
L 201.17982 184.724683 
L 201.789767 183.024671 
L 202.399714 186.630121 
L 203.009661 186.500995 
L 203.619608 180.51418 
L 204.229555 191.99878 
L 204.839503 189.840415 
L 205.44945 191.369775 
L 206.059397 190.955558 
L 206.669344 195.855679 
L 207.279291 189.358973 
L 207.889238 193.291098 
L 208.499186 187.091687 
L 209.109133 159.937176 
L 209.71908 184.84442 
L 210.329027 190.679233 
L 210.938974 191.434773 
L 211.548921 187.778697 
L 212.158869 181.823201 
L 212.768816 191.116831 
L 213.378763 189.662257 
L 213.98871 189.061869 
L 214.598657 191.242627 
L 215.208604 192.728677 
L 215.818552 166.873323 
L 216.428499 189.428151 
L 217.038446 175.497201 
L 217.648393 189.897117 
L 218.25834 193.670599 
L 218.868287 191.563713 
L 219.478235 191.847828 
L 220.088182 187.793791 
L 220.698129 195.417302 
L 221.308076 189.355249 
L 221.918023 193.280109 
L 222.52797 194.546051 
L 223.137918 196.928419 
L 223.747865 194.802237 
L 224.357812 194.810756 
L 224.967759 196.433968 
L 225.577706 169.133065 
L 226.187653 195.614637 
L 226.797601 200.841513 
L 227.407548 194.875183 
L 228.017495 200.502938 
L 228.627442 200.949805 
L 229.237389 183.62636 
L 229.847336 198.947727 
L 230.457284 197.826748 
L 231.067231 199.499193 
L 231.677178 197.763705 
L 232.287125 198.687405 
L 232.897072 195.924045 
L 233.507019 197.962601 
L 234.116967 198.814044 
L 235.336861 190.451657 
L 235.946808 191.621134 
L 236.556755 202.886872 
L 237.166702 195.773343 
L 237.77665 199.668544 
L 238.386597 198.714959 
L 238.996544 190.70303 
L 239.606491 195.583445 
L 240.216438 195.479293 
L 240.826385 197.459772 
L 241.436333 187.262016 
L 242.04628 195.078002 
L 242.656227 200.303271 
L 243.266174 193.341592 
L 243.876121 199.433297 
L 244.486068 201.998089 
L 245.096016 205.274295 
L 245.705963 189.806 
L 246.31591 200.734009 
L 246.925857 202.215048 
L 247.535804 206.151738 
L 248.145751 200.540453 
L 248.755699 204.384026 
L 249.365646 203.969797 
L 249.975593 204.383441 
L 250.58554 204.112699 
L 251.195487 200.916871 
L 251.805434 206.487211 
L 252.415382 200.029678 
L 253.025329 203.877527 
L 253.635276 199.888266 
L 254.245223 205.535375 
L 254.85517 199.912492 
L 255.465117 204.506616 
L 256.075065 200.775038 
L 256.685012 198.763335 
L 257.294959 185.296936 
L 257.904906 206.229629 
L 258.514853 206.600529 
L 259.1248 208.997631 
L 259.734748 205.81314 
L 260.344695 210.046096 
L 260.954642 206.610613 
L 261.564589 200.488004 
L 262.174536 205.695674 
L 262.784483 208.71071 
L 263.394431 208.915116 
L 264.004378 208.554521 
L 264.614325 205.934092 
L 265.224272 209.235539 
L 265.834219 208.779595 
L 266.444166 206.872052 
L 267.054114 205.533143 
L 267.664061 205.324922 
L 268.274008 196.645814 
L 268.883955 206.008269 
L 269.493902 200.916624 
L 270.103849 207.30791 
L 270.713797 207.738215 
L 271.323744 206.561453 
L 271.933691 207.313012 
L 272.543638 210.070774 
L 273.153585 209.764761 
L 273.763532 209.964575 
L 274.37348 205.360289 
L 274.983427 212.71654 
L 275.593374 208.004802 
L 276.203321 210.415818 
L 276.813268 209.92974 
L 277.423215 208.903638 
L 278.033163 208.745085 
L 278.64311 204.569955 
L 279.253057 208.673926 
L 279.863004 209.80285 
L 280.472951 206.170425 
L 281.082898 206.001347 
L 281.692846 210.647882 
L 282.302793 209.127409 
L 282.91274 206.44913 
L 283.522687 209.472323 
L 284.132634 206.1019 
L 284.742581 207.875078 
L 285.352529 202.859755 
L 285.962476 207.414988 
L 286.572423 209.819465 
L 287.18237 203.898686 
L 287.792317 208.077965 
L 288.402264 204.111932 
L 289.012212 210.003167 
L 289.622159 208.865836 
L 290.232106 206.255611 
L 290.842053 211.213298 
L 291.452 208.313902 
L 292.061947 202.296511 
L 292.671895 206.386231 
L 293.281842 207.533917 
L 293.891789 209.572424 
L 294.501736 204.506573 
L 295.111683 183.250889 
L 295.72163 205.054421 
L 296.331578 210.088979 
L 296.941525 207.195785 
L 297.551472 210.460062 
L 298.161419 209.950505 
L 298.771366 204.50024 
L 299.381313 204.761709 
L 299.991261 209.057568 
L 300.601208 207.012497 
L 301.211155 205.528355 
L 301.821102 205.996942 
L 302.431049 203.243926 
L 303.040996 203.899681 
L 303.650944 199.875061 
L 304.260891 205.359655 
L 304.870838 208.119463 
L 305.480785 208.740886 
L 306.090732 199.002711 
L 306.700679 202.818836 
L 307.310627 212.783187 
L 307.920574 206.724295 
L 308.530521 206.649166 
L 309.140468 210.241317 
L 309.750415 208.981553 
L 310.360362 205.86797 
L 310.97031 206.417725 
L 311.580257 206.473143 
L 312.190204 199.562595 
L 312.800151 199.684319 
L 313.410098 202.757334 
L 314.020045 202.38363 
L 314.629993 203.874481 
L 315.23994 202.57463 
L 315.849887 206.788895 
L 316.459834 203.455106 
L 317.069781 206.099742 
L 317.679728 204.90921 
L 318.289676 209.463201 
L 318.899623 209.258253 
L 320.119517 206.049474 
L 320.729464 212.039088 
L 321.339411 210.074551 
L 321.949359 205.972039 
L 322.559306 211.739091 
L 323.169253 205.47009 
L 323.7792 210.19006 
L 324.389147 207.853063 
L 324.999094 209.604736 
L 325.609042 210.62088 
L 326.828936 201.018641 
L 328.04883 210.962743 
L 328.658777 210.469592 
L 329.268725 208.314469 
L 329.878672 211.36032 
L 330.488619 204.032914 
L 331.098566 198.226389 
L 331.708513 208.205729 
L 332.318461 207.095441 
L 332.928408 205.146813 
L 333.538355 211.925769 
L 334.148302 203.208156 
L 334.758249 208.739931 
L 335.368196 208.306412 
L 335.978144 205.283066 
L 336.588091 204.901174 
L 337.198038 205.923079 
L 337.807985 209.023493 
L 338.417932 208.89417 
L 339.027879 209.935991 
L 339.637827 201.579216 
L 340.247774 207.522641 
L 340.857721 205.600786 
L 341.467668 208.11614 
L 342.077615 206.799212 
L 342.687562 204.810133 
L 343.29751 204.414413 
L 343.907457 208.202968 
L 344.517404 204.849761 
L 345.127351 209.929859 
L 345.737298 211.234916 
L 346.347245 205.9637 
L 347.56714 209.315676 
L 348.177087 209.728178 
L 348.787034 209.56645 
L 349.396981 212.353012 
L 350.006928 209.496554 
L 350.616876 213.854746 
L 351.83677 211.573395 
L 352.446717 204.603261 
L 353.056664 202.757904 
L 354.276559 214.567707 
L 354.886506 203.392906 
L 354.886506 203.392906 
" style="fill:none;stroke:#2ca02c;stroke-linecap:square;stroke-width:1.5;"/>
   </g>
   <g id="line2d_15">
    <path clip-path="url(#pf9736cff1c)" d="M 50.522869 72.488029 
L 51.132816 72.164843 
L 51.742764 68.198746 
L 52.352711 66.45512 
L 53.572605 80.986905 
L 54.182552 76.263125 
L 54.792499 65.409731 
L 55.402447 66.174524 
L 56.012394 78.664687 
L 56.622341 51.148062 
L 57.232288 64.176275 
L 57.842235 70.860502 
L 58.452182 72.083256 
L 59.06213 54.37891 
L 59.672077 72.512766 
L 60.282024 63.795016 
L 60.891971 65.249141 
L 61.501918 75.419915 
L 62.111865 59.529979 
L 62.721813 62.782592 
L 63.33176 67.710418 
L 63.941707 75.904998 
L 64.551654 70.745527 
L 65.161601 69.59719 
L 65.771548 69.995336 
L 66.381496 74.542292 
L 66.991443 69.11301 
L 67.60139 75.711953 
L 68.211337 62.494183 
L 68.821284 69.982445 
L 69.431231 73.066348 
L 70.041179 72.370199 
L 70.651126 67.496206 
L 71.261073 72.979128 
L 71.87102 70.919387 
L 72.480967 66.596589 
L 73.090914 73.684802 
L 73.700862 65.266306 
L 74.310809 60.669582 
L 74.920756 55.001697 
L 75.530703 70.886795 
L 76.14065 109.421026 
L 76.750598 78.112015 
L 77.970492 63.793571 
L 78.580439 71.983025 
L 79.190386 70.209486 
L 79.800333 74.556191 
L 80.410281 65.52295 
L 81.020228 106.772381 
L 81.630175 73.609646 
L 82.240122 83.739542 
L 82.850069 60.328633 
L 83.460016 73.999759 
L 84.069964 63.915181 
L 84.679911 67.830125 
L 85.289858 75.468265 
L 85.899805 79.485646 
L 86.509752 39.475529 
L 87.119699 68.23804 
L 87.729647 62.179094 
L 88.339594 98.9803 
L 88.949541 110.644308 
L 89.559488 86.215623 
L 90.169435 77.452037 
L 90.779382 79.456808 
L 91.38933 73.595605 
L 91.999277 76.264531 
L 92.609224 74.948667 
L 93.219171 77.649859 
L 93.829118 47.860407 
L 94.439065 74.55503 
L 95.049013 61.967737 
L 95.65896 32.201761 
L 96.268907 68.203166 
L 97.488801 66.488784 
L 98.098748 82.315226 
L 98.708696 78.378934 
L 99.318643 76.492423 
L 99.92859 76.578786 
L 100.538537 68.640417 
L 101.148484 73.019665 
L 101.758431 75.196225 
L 102.368379 74.385419 
L 102.978326 81.169227 
L 104.19822 38.380149 
L 104.808167 80.04145 
L 105.418114 81.659094 
L 106.028062 61.368411 
L 106.638009 73.912037 
L 107.247956 44.285585 
L 107.857903 67.059854 
L 108.46785 53.00647 
L 109.077797 50.090001 
L 109.687745 81.412629 
L 110.297692 50.569339 
L 110.907639 50.098735 
L 111.517586 75.002882 
L 112.127533 64.639897 
L 112.73748 65.487573 
L 113.347428 110.162967 
L 113.957375 97.953884 
L 114.567322 76.673606 
L 115.177269 61.563894 
L 115.787216 70.195556 
L 116.397163 74.213347 
L 117.007111 70.490276 
L 117.617058 69.685489 
L 118.227005 71.03576 
L 118.836952 62.569084 
L 119.446899 107.95488 
L 120.056846 126.462127 
L 120.666794 71.123098 
L 121.276741 86.13539 
L 121.886688 76.206512 
L 122.496635 72.031731 
L 123.106582 83.558456 
L 123.716529 64.726821 
L 124.326477 57.950797 
L 124.936424 76.220974 
L 125.546371 63.85644 
L 126.156318 79.918225 
L 126.766265 127.46837 
L 127.376212 123.47601 
L 127.98616 66.455148 
L 128.596107 109.115319 
L 129.206054 111.391537 
L 129.816001 72.572859 
L 130.425948 44.278724 
L 131.035895 71.079277 
L 131.645843 76.406318 
L 132.25579 74.13234 
L 132.865737 82.863682 
L 133.475684 77.075954 
L 134.085631 69.538204 
L 134.695578 44.767745 
L 135.305526 71.539191 
L 135.915473 82.081901 
L 136.52542 61.721039 
L 137.135367 74.034582 
L 137.745314 81.050377 
L 138.965209 46.259238 
L 140.185103 80.90692 
L 141.404997 63.571479 
L 142.014944 66.435893 
L 142.624892 66.792619 
L 143.234839 73.281131 
L 143.844786 70.676527 
L 144.454733 55.590207 
L 145.06468 77.151275 
L 145.674627 61.235848 
L 146.284575 72.776164 
L 146.894522 73.266908 
L 147.504469 69.681576 
L 148.114416 74.589873 
L 148.724363 77.568681 
L 149.33431 68.207629 
L 149.944258 74.803004 
L 150.554205 59.68478 
L 151.164152 71.961548 
L 151.774099 70.972299 
L 152.384046 74.171894 
L 152.993993 68.09296 
L 153.603941 64.848985 
L 154.213888 76.364421 
L 154.823835 73.596476 
L 155.433782 68.13204 
L 156.043729 67.863624 
L 156.653676 56.754929 
L 157.263624 73.657047 
L 157.873571 68.784796 
L 158.483518 79.356981 
L 159.093465 51.98547 
L 159.703412 79.893993 
L 160.313359 78.510805 
L 160.923307 86.734044 
L 161.533254 72.594271 
L 162.143201 85.366955 
L 162.753148 80.854297 
L 163.363095 59.324948 
L 163.973042 86.219276 
L 164.58299 70.946129 
L 165.192937 64.392607 
L 165.802884 74.897426 
L 166.412831 37.854469 
L 167.022778 72.504248 
L 167.632725 43.649148 
L 168.242673 63.368311 
L 168.85262 72.756505 
L 169.462567 74.422948 
L 170.072514 67.891709 
L 170.682461 75.365265 
L 171.292408 79.828365 
L 171.902356 79.304154 
L 172.512303 83.305209 
L 173.12225 75.274516 
L 173.732197 84.495941 
L 174.342144 78.399664 
L 174.952091 87.753869 
L 175.562039 76.788448 
L 176.171986 76.740793 
L 176.781933 75.016987 
L 177.39188 78.11669 
L 178.001827 78.111611 
L 178.611774 71.189347 
L 179.221722 74.080204 
L 179.831669 84.598961 
L 180.441616 83.226254 
L 181.051563 78.090732 
L 181.66151 83.045791 
L 182.271457 80.617045 
L 182.881405 88.143024 
L 183.491352 82.376817 
L 184.101299 80.164419 
L 184.711246 79.720178 
L 185.321193 98.068583 
L 185.93114 68.768398 
L 186.541088 84.849272 
L 187.151035 76.830587 
L 187.760982 84.969886 
L 188.370929 81.747167 
L 188.980876 81.662236 
L 189.590823 86.235923 
L 190.200771 80.379878 
L 190.810718 89.613743 
L 191.420665 90.153105 
L 192.030612 85.540848 
L 192.640559 65.100573 
L 193.250506 94.475573 
L 193.860454 84.977339 
L 194.470401 63.616331 
L 195.080348 69.693845 
L 195.690295 83.831016 
L 196.300242 70.809294 
L 196.910189 82.352005 
L 197.520137 54.17533 
L 198.130084 83.474283 
L 198.740031 81.193094 
L 199.349978 75.161132 
L 199.959925 89.381483 
L 200.569872 88.185192 
L 201.17982 78.70364 
L 201.789767 66.527797 
L 202.399714 84.506759 
L 203.009661 84.251945 
L 203.619608 84.37426 
L 204.229555 88.006945 
L 204.839503 86.088535 
L 205.44945 101.576877 
L 206.059397 84.144272 
L 206.669344 89.906222 
L 207.279291 93.628773 
L 207.889238 87.100743 
L 208.499186 82.240027 
L 209.109133 84.991807 
L 209.71908 93.200336 
L 210.329027 99.473477 
L 210.938974 93.069217 
L 211.548921 74.668568 
L 212.158869 68.472441 
L 212.768816 92.982649 
L 213.378763 90.952407 
L 213.98871 92.155979 
L 214.598657 77.350452 
L 215.208604 85.1187 
L 215.818552 86.244836 
L 216.428499 90.928741 
L 217.038446 82.588767 
L 218.25834 89.62761 
L 218.868287 86.770055 
L 219.478235 88.848822 
L 220.088182 71.940829 
L 220.698129 86.878422 
L 221.308076 87.090042 
L 221.918023 88.008069 
L 222.52797 101.869389 
L 223.137918 100.103644 
L 223.747865 92.447378 
L 224.357812 87.271362 
L 224.967759 80.532501 
L 225.577706 83.72706 
L 226.797601 61.615345 
L 227.407548 77.833141 
L 228.017495 69.287278 
L 228.627442 56.545732 
L 229.237389 85.628856 
L 229.847336 74.825438 
L 231.067231 68.467951 
L 231.677178 81.652889 
L 232.897072 84.420455 
L 233.507019 82.158207 
L 234.116967 83.974162 
L 234.726914 92.544261 
L 235.336861 84.333564 
L 235.946808 83.367441 
L 236.556755 85.429627 
L 237.166702 69.325455 
L 237.77665 91.951705 
L 238.386597 86.84547 
L 238.996544 87.784772 
L 239.606491 87.417505 
L 240.216438 94.888668 
L 240.826385 76.034768 
L 241.436333 67.509981 
L 242.04628 71.847584 
L 242.656227 79.089441 
L 243.266174 56.115222 
L 243.876121 113.939457 
L 244.486068 69.469332 
L 245.096016 112.885932 
L 245.705963 78.917861 
L 246.31591 72.037999 
L 246.925857 78.282582 
L 247.535804 87.150179 
L 248.145751 92.872097 
L 248.755699 77.330316 
L 249.365646 94.304498 
L 249.975593 100.034951 
L 250.58554 90.814734 
L 251.195487 87.882054 
L 251.805434 98.252655 
L 252.415382 106.592926 
L 253.025329 106.704797 
L 253.635276 104.567211 
L 254.245223 92.588585 
L 254.85517 112.128047 
L 255.465117 95.529122 
L 256.075065 107.895085 
L 256.685012 83.618398 
L 257.294959 83.195372 
L 257.904906 100.183489 
L 258.514853 102.212401 
L 259.1248 95.840923 
L 259.734748 81.734723 
L 260.344695 105.855816 
L 260.954642 115.055714 
L 261.564589 102.517019 
L 262.174536 113.35914 
L 262.784483 83.731054 
L 263.394431 129.388973 
L 264.004378 105.568749 
L 264.614325 95.807772 
L 265.224272 98.360054 
L 265.834219 174.501092 
L 266.444166 85.666312 
L 267.054114 121.895817 
L 267.664061 98.319033 
L 268.274008 84.254259 
L 268.883955 82.409753 
L 269.493902 85.946203 
L 270.103849 90.451351 
L 270.713797 82.461252 
L 271.323744 86.774899 
L 271.933691 89.565662 
L 272.543638 96.780927 
L 273.153585 86.587272 
L 273.763532 111.743766 
L 274.37348 89.765394 
L 274.983427 83.242107 
L 275.593374 92.577411 
L 276.203321 86.909811 
L 276.813268 109.272011 
L 277.423215 176.837725 
L 278.033163 102.730082 
L 278.64311 91.578342 
L 279.253057 85.32615 
L 280.472951 152.377453 
L 281.082898 85.163396 
L 281.692846 88.659129 
L 282.302793 101.196386 
L 282.91274 111.048389 
L 283.522687 108.099091 
L 284.132634 108.513956 
L 284.742581 85.221793 
L 285.352529 151.521125 
L 285.962476 128.038314 
L 286.572423 90.802496 
L 287.18237 93.499344 
L 287.792317 89.999852 
L 288.402264 101.369152 
L 289.012212 89.190802 
L 289.622159 82.481733 
L 290.232106 83.0932 
L 290.842053 101.376341 
L 291.452 84.812216 
L 292.061947 88.865114 
L 292.671895 94.259674 
L 293.281842 112.836718 
L 293.891789 92.828166 
L 294.501736 87.496889 
L 295.111683 90.177455 
L 295.72163 83.736014 
L 296.331578 89.787109 
L 296.941525 91.093778 
L 297.551472 113.003686 
L 298.161419 90.77479 
L 298.771366 94.149855 
L 299.381313 93.190913 
L 300.601208 126.312315 
L 301.211155 91.138978 
L 301.821102 191.985241 
L 302.431049 83.845549 
L 303.040996 110.928777 
L 303.650944 51.610357 
L 304.260891 86.432619 
L 304.870838 159.636174 
L 305.480785 83.653104 
L 306.090732 82.151232 
L 306.700679 87.997412 
L 307.310627 91.121634 
L 307.920574 109.950753 
L 308.530521 88.783389 
L 309.140468 100.334344 
L 309.750415 184.159238 
L 310.360362 50.029676 
L 310.97031 99.958108 
L 311.580257 86.764597 
L 312.190204 78.671015 
L 312.800151 88.544019 
L 313.410098 89.730299 
L 314.020045 119.768604 
L 314.629993 90.151569 
L 315.23994 104.5967 
L 315.849887 109.460134 
L 316.459834 86.782288 
L 317.069781 96.723484 
L 317.679728 79.076402 
L 318.289676 96.153982 
L 318.899623 102.738228 
L 319.50957 104.653162 
L 320.119517 110.533807 
L 320.729464 106.109553 
L 321.339411 127.807181 
L 321.949359 59.97635 
L 322.559306 185.061517 
L 323.169253 130.575915 
L 323.7792 113.339049 
L 324.389147 175.158587 
L 324.999094 166.843958 
L 325.609042 185.35736 
L 326.218989 128.771887 
L 326.828936 100.860511 
L 327.438883 79.059706 
L 328.04883 115.727192 
L 328.658777 100.467244 
L 329.268725 95.03586 
L 329.878672 86.67697 
L 330.488619 72.165088 
L 331.098566 74.111857 
L 331.708513 88.172733 
L 332.318461 88.427341 
L 332.928408 85.464169 
L 333.538355 115.412785 
L 334.148302 84.628373 
L 334.758249 105.973626 
L 335.368196 82.841763 
L 335.978144 107.92813 
L 336.588091 120.956176 
L 337.198038 105.841066 
L 337.807985 83.291276 
L 338.417932 158.079308 
L 339.027879 107.915758 
L 340.247774 84.009345 
L 340.857721 101.260058 
L 341.467668 86.84539 
L 342.077615 93.876095 
L 342.687562 84.99756 
L 343.29751 101.342744 
L 343.907457 145.516075 
L 344.517404 116.611969 
L 345.127351 100.053015 
L 345.737298 122.74674 
L 346.347245 102.828053 
L 346.957193 92.405433 
L 347.56714 121.545473 
L 348.177087 73.831303 
L 348.787034 116.424255 
L 349.396981 108.05428 
L 350.006928 112.48402 
L 350.616876 142.399739 
L 351.226823 122.066973 
L 351.83677 88.545245 
L 352.446717 113.485112 
L 353.056664 91.007008 
L 353.666611 78.952619 
L 354.276559 106.903494 
L 354.886506 84.139261 
L 354.886506 84.139261 
" style="fill:none;stroke:#d62728;stroke-linecap:square;stroke-width:1.5;"/>
   </g>
   <g id="patch_3">
    <path d="M 35.304688 239.758125 
L 35.304688 22.318125 
" style="fill:none;stroke:#000000;stroke-linecap:square;stroke-linejoin:miter;stroke-width:0.8;"/>
   </g>
   <g id="patch_4">
    <path d="M 370.104688 239.758125 
L 370.104688 22.318125 
" style="fill:none;stroke:#000000;stroke-linecap:square;stroke-linejoin:miter;stroke-width:0.8;"/>
   </g>
   <g id="patch_5">
    <path d="M 35.304688 239.758125 
L 370.104687 239.758125 
" style="fill:none;stroke:#000000;stroke-linecap:square;stroke-linejoin:miter;stroke-width:0.8;"/>
   </g>
   <g id="patch_6">
    <path d="M 35.304688 22.318125 
L 370.104687 22.318125 
" style="fill:none;stroke:#000000;stroke-linecap:square;stroke-linejoin:miter;stroke-width:0.8;"/>
   </g>
   <g id="text_13">
    <!-- Objective function -->
    <g transform="translate(147.836563 16.318125)scale(0.12 -0.12)">
     <defs>
      <path d="M 39.40625 66.21875 
Q 28.65625 66.21875 22.328125 58.203125 
Q 16.015625 50.203125 16.015625 36.375 
Q 16.015625 22.609375 22.328125 14.59375 
Q 28.65625 6.59375 39.40625 6.59375 
Q 50.140625 6.59375 56.421875 14.59375 
Q 62.703125 22.609375 62.703125 36.375 
Q 62.703125 50.203125 56.421875 58.203125 
Q 50.140625 66.21875 39.40625 66.21875 
z
M 39.40625 74.21875 
Q 54.734375 74.21875 63.90625 63.9375 
Q 73.09375 53.65625 73.09375 36.375 
Q 73.09375 19.140625 63.90625 8.859375 
Q 54.734375 -1.421875 39.40625 -1.421875 
Q 24.03125 -1.421875 14.8125 8.828125 
Q 5.609375 19.09375 5.609375 36.375 
Q 5.609375 53.65625 14.8125 63.9375 
Q 24.03125 74.21875 39.40625 74.21875 
z
" id="DejaVuSans-79"/>
      <path d="M 48.6875 27.296875 
Q 48.6875 37.203125 44.609375 42.84375 
Q 40.53125 48.484375 33.40625 48.484375 
Q 26.265625 48.484375 22.1875 42.84375 
Q 18.109375 37.203125 18.109375 27.296875 
Q 18.109375 17.390625 22.1875 11.75 
Q 26.265625 6.109375 33.40625 6.109375 
Q 40.53125 6.109375 44.609375 11.75 
Q 48.6875 17.390625 48.6875 27.296875 
z
M 18.109375 46.390625 
Q 20.953125 51.265625 25.265625 53.625 
Q 29.59375 56 35.59375 56 
Q 45.5625 56 51.78125 48.09375 
Q 58.015625 40.1875 58.015625 27.296875 
Q 58.015625 14.40625 51.78125 6.484375 
Q 45.5625 -1.421875 35.59375 -1.421875 
Q 29.59375 -1.421875 25.265625 0.953125 
Q 20.953125 3.328125 18.109375 8.203125 
L 18.109375 0 
L 9.078125 0 
L 9.078125 75.984375 
L 18.109375 75.984375 
z
" id="DejaVuSans-98"/>
      <path d="M 9.421875 54.6875 
L 18.40625 54.6875 
L 18.40625 -0.984375 
Q 18.40625 -11.421875 14.421875 -16.109375 
Q 10.453125 -20.796875 1.609375 -20.796875 
L -1.8125 -20.796875 
L -1.8125 -13.1875 
L 0.59375 -13.1875 
Q 5.71875 -13.1875 7.5625 -10.8125 
Q 9.421875 -8.453125 9.421875 -0.984375 
z
M 9.421875 75.984375 
L 18.40625 75.984375 
L 18.40625 64.59375 
L 9.421875 64.59375 
z
" id="DejaVuSans-106"/>
      <path d="M 48.78125 52.59375 
L 48.78125 44.1875 
Q 44.96875 46.296875 41.140625 47.34375 
Q 37.3125 48.390625 33.40625 48.390625 
Q 24.65625 48.390625 19.8125 42.84375 
Q 14.984375 37.3125 14.984375 27.296875 
Q 14.984375 17.28125 19.8125 11.734375 
Q 24.65625 6.203125 33.40625 6.203125 
Q 37.3125 6.203125 41.140625 7.25 
Q 44.96875 8.296875 48.78125 10.40625 
L 48.78125 2.09375 
Q 45.015625 0.34375 40.984375 -0.53125 
Q 36.96875 -1.421875 32.421875 -1.421875 
Q 20.0625 -1.421875 12.78125 6.34375 
Q 5.515625 14.109375 5.515625 27.296875 
Q 5.515625 40.671875 12.859375 48.328125 
Q 20.21875 56 33.015625 56 
Q 37.15625 56 41.109375 55.140625 
Q 45.0625 54.296875 48.78125 52.59375 
z
" id="DejaVuSans-99"/>
      <path d="M 2.984375 54.6875 
L 12.5 54.6875 
L 29.59375 8.796875 
L 46.6875 54.6875 
L 56.203125 54.6875 
L 35.6875 0 
L 23.484375 0 
z
" id="DejaVuSans-118"/>
      <path id="DejaVuSans-32"/>
      <path d="M 37.109375 75.984375 
L 37.109375 68.5 
L 28.515625 68.5 
Q 23.6875 68.5 21.796875 66.546875 
Q 19.921875 64.59375 19.921875 59.515625 
L 19.921875 54.6875 
L 34.71875 54.6875 
L 34.71875 47.703125 
L 19.921875 47.703125 
L 19.921875 0 
L 10.890625 0 
L 10.890625 47.703125 
L 2.296875 47.703125 
L 2.296875 54.6875 
L 10.890625 54.6875 
L 10.890625 58.5 
Q 10.890625 67.625 15.140625 71.796875 
Q 19.390625 75.984375 28.609375 75.984375 
z
" id="DejaVuSans-102"/>
      <path d="M 8.5 21.578125 
L 8.5 54.6875 
L 17.484375 54.6875 
L 17.484375 21.921875 
Q 17.484375 14.15625 20.5 10.265625 
Q 23.53125 6.390625 29.59375 6.390625 
Q 36.859375 6.390625 41.078125 11.03125 
Q 45.3125 15.671875 45.3125 23.6875 
L 45.3125 54.6875 
L 54.296875 54.6875 
L 54.296875 0 
L 45.3125 0 
L 45.3125 8.40625 
Q 42.046875 3.421875 37.71875 1 
Q 33.40625 -1.421875 27.6875 -1.421875 
Q 18.265625 -1.421875 13.375 4.4375 
Q 8.5 10.296875 8.5 21.578125 
z
M 31.109375 56 
z
" id="DejaVuSans-117"/>
     </defs>
     <use xlink:href="#DejaVuSans-79"/>
     <use x="78.710938" xlink:href="#DejaVuSans-98"/>
     <use x="142.1875" xlink:href="#DejaVuSans-106"/>
     <use x="169.970703" xlink:href="#DejaVuSans-101"/>
     <use x="231.494141" xlink:href="#DejaVuSans-99"/>
     <use x="286.474609" xlink:href="#DejaVuSans-116"/>
     <use x="325.683594" xlink:href="#DejaVuSans-105"/>
     <use x="353.466797" xlink:href="#DejaVuSans-118"/>
     <use x="412.646484" xlink:href="#DejaVuSans-101"/>
     <use x="474.169922" xlink:href="#DejaVuSans-32"/>
     <use x="505.957031" xlink:href="#DejaVuSans-102"/>
     <use x="541.162109" xlink:href="#DejaVuSans-117"/>
     <use x="604.541016" xlink:href="#DejaVuSans-110"/>
     <use x="667.919922" xlink:href="#DejaVuSans-99"/>
     <use x="722.900391" xlink:href="#DejaVuSans-116"/>
     <use x="762.109375" xlink:href="#DejaVuSans-105"/>
     <use x="789.892578" xlink:href="#DejaVuSans-111"/>
     <use x="851.074219" xlink:href="#DejaVuSans-110"/>
    </g>
   </g>
   <g id="legend_1">
    <g id="patch_7">
     <path d="M 42.304688 234.758125 
L 121.45 234.758125 
Q 123.45 234.758125 123.45 232.758125 
L 123.45 175.045625 
Q 123.45 173.045625 121.45 173.045625 
L 42.304688 173.045625 
Q 40.304688 173.045625 40.304688 175.045625 
L 40.304688 232.758125 
Q 40.304688 234.758125 42.304688 234.758125 
z
" style="fill:#ffffff;opacity:0.8;stroke:#cccccc;stroke-linejoin:miter;"/>
    </g>
    <g id="line2d_16">
     <path d="M 44.304688 181.144062 
L 64.304688 181.144062 
" style="fill:none;stroke:#1f77b4;stroke-linecap:square;stroke-width:1.5;"/>
    </g>
    <g id="line2d_17"/>
    <g id="text_14">
     <!-- best ever -->
     <g transform="translate(72.304688 184.644062)scale(0.1 -0.1)">
      <use xlink:href="#DejaVuSans-98"/>
      <use x="63.476562" xlink:href="#DejaVuSans-101"/>
      <use x="125" xlink:href="#DejaVuSans-115"/>
      <use x="177.099609" xlink:href="#DejaVuSans-116"/>
      <use x="216.308594" xlink:href="#DejaVuSans-32"/>
      <use x="248.095703" xlink:href="#DejaVuSans-101"/>
      <use x="309.619141" xlink:href="#DejaVuSans-118"/>
      <use x="368.798828" xlink:href="#DejaVuSans-101"/>
      <use x="430.322266" xlink:href="#DejaVuSans-114"/>
     </g>
    </g>
    <g id="line2d_18">
     <path d="M 44.304688 195.822187 
L 64.304688 195.822187 
" style="fill:none;stroke:#ff7f0e;stroke-linecap:square;stroke-width:1.5;"/>
    </g>
    <g id="line2d_19"/>
    <g id="text_15">
     <!-- best -->
     <g transform="translate(72.304688 199.322187)scale(0.1 -0.1)">
      <use xlink:href="#DejaVuSans-98"/>
      <use x="63.476562" xlink:href="#DejaVuSans-101"/>
      <use x="125" xlink:href="#DejaVuSans-115"/>
      <use x="177.099609" xlink:href="#DejaVuSans-116"/>
     </g>
    </g>
    <g id="line2d_20">
     <path d="M 44.304688 210.500312 
L 64.304688 210.500312 
" style="fill:none;stroke:#2ca02c;stroke-linecap:square;stroke-width:1.5;"/>
    </g>
    <g id="line2d_21"/>
    <g id="text_16">
     <!-- median -->
     <g transform="translate(72.304688 214.000312)scale(0.1 -0.1)">
      <defs>
       <path d="M 52 44.1875 
Q 55.375 50.25 60.0625 53.125 
Q 64.75 56 71.09375 56 
Q 79.640625 56 84.28125 50.015625 
Q 88.921875 44.046875 88.921875 33.015625 
L 88.921875 0 
L 79.890625 0 
L 79.890625 32.71875 
Q 79.890625 40.578125 77.09375 44.375 
Q 74.3125 48.1875 68.609375 48.1875 
Q 61.625 48.1875 57.5625 43.546875 
Q 53.515625 38.921875 53.515625 30.90625 
L 53.515625 0 
L 44.484375 0 
L 44.484375 32.71875 
Q 44.484375 40.625 41.703125 44.40625 
Q 38.921875 48.1875 33.109375 48.1875 
Q 26.21875 48.1875 22.15625 43.53125 
Q 18.109375 38.875 18.109375 30.90625 
L 18.109375 0 
L 9.078125 0 
L 9.078125 54.6875 
L 18.109375 54.6875 
L 18.109375 46.1875 
Q 21.1875 51.21875 25.484375 53.609375 
Q 29.78125 56 35.6875 56 
Q 41.65625 56 45.828125 52.96875 
Q 50 49.953125 52 44.1875 
z
" id="DejaVuSans-109"/>
       <path d="M 45.40625 46.390625 
L 45.40625 75.984375 
L 54.390625 75.984375 
L 54.390625 0 
L 45.40625 0 
L 45.40625 8.203125 
Q 42.578125 3.328125 38.25 0.953125 
Q 33.9375 -1.421875 27.875 -1.421875 
Q 17.96875 -1.421875 11.734375 6.484375 
Q 5.515625 14.40625 5.515625 27.296875 
Q 5.515625 40.1875 11.734375 48.09375 
Q 17.96875 56 27.875 56 
Q 33.9375 56 38.25 53.625 
Q 42.578125 51.265625 45.40625 46.390625 
z
M 14.796875 27.296875 
Q 14.796875 17.390625 18.875 11.75 
Q 22.953125 6.109375 30.078125 6.109375 
Q 37.203125 6.109375 41.296875 11.75 
Q 45.40625 17.390625 45.40625 27.296875 
Q 45.40625 37.203125 41.296875 42.84375 
Q 37.203125 48.484375 30.078125 48.484375 
Q 22.953125 48.484375 18.875 42.84375 
Q 14.796875 37.203125 14.796875 27.296875 
z
" id="DejaVuSans-100"/>
      </defs>
      <use xlink:href="#DejaVuSans-109"/>
      <use x="97.412109" xlink:href="#DejaVuSans-101"/>
      <use x="158.935547" xlink:href="#DejaVuSans-100"/>
      <use x="222.412109" xlink:href="#DejaVuSans-105"/>
      <use x="250.195312" xlink:href="#DejaVuSans-97"/>
      <use x="311.474609" xlink:href="#DejaVuSans-110"/>
     </g>
    </g>
    <g id="line2d_22">
     <path d="M 44.304688 225.178437 
L 64.304688 225.178437 
" style="fill:none;stroke:#d62728;stroke-linecap:square;stroke-width:1.5;"/>
    </g>
    <g id="line2d_23"/>
    <g id="text_17">
     <!-- worst -->
     <g transform="translate(72.304688 228.678437)scale(0.1 -0.1)">
      <defs>
       <path d="M 4.203125 54.6875 
L 13.1875 54.6875 
L 24.421875 12.015625 
L 35.59375 54.6875 
L 46.1875 54.6875 
L 57.421875 12.015625 
L 68.609375 54.6875 
L 77.59375 54.6875 
L 63.28125 0 
L 52.6875 0 
L 40.921875 44.828125 
L 29.109375 0 
L 18.5 0 
z
" id="DejaVuSans-119"/>
      </defs>
      <use xlink:href="#DejaVuSans-119"/>
      <use x="81.787109" xlink:href="#DejaVuSans-111"/>
      <use x="142.96875" xlink:href="#DejaVuSans-114"/>
      <use x="184.082031" xlink:href="#DejaVuSans-115"/>
      <use x="236.181641" xlink:href="#DejaVuSans-116"/>
     </g>
    </g>
   </g>
  </g>
 </g>
 <defs>
  <clipPath id="pf9736cff1c">
   <rect height="217.44" width="334.8" x="35.304688" y="22.318125"/>
  </clipPath>
 </defs>
</svg>
