<?xml version="1.0" encoding="utf-8" standalone="no"?>
<!DOCTYPE svg PUBLIC "-//W3C//DTD SVG 1.1//EN"
  "http://www.w3.org/Graphics/SVG/1.1/DTD/svg11.dtd">
<!-- Created with matplotlib (https://matplotlib.org/) -->
<svg height="277.314375pt" version="1.1" viewBox="0 0 384.1 277.314375" width="384.1pt" xmlns="http://www.w3.org/2000/svg" xmlns:xlink="http://www.w3.org/1999/xlink">
 <metadata>
  <rdf:RDF xmlns:cc="http://creativecommons.org/ns#" xmlns:dc="http://purl.org/dc/elements/1.1/" xmlns:rdf="http://www.w3.org/1999/02/22-rdf-syntax-ns#">
   <cc:Work>
    <dc:type rdf:resource="http://purl.org/dc/dcmitype/StillImage"/>
    <dc:date>2021-02-02T12:44:48.095896</dc:date>
    <dc:format>image/svg+xml</dc:format>
    <dc:creator>
     <cc:Agent>
      <dc:title>Matplotlib v3.3.3, https://matplotlib.org/</dc:title>
     </cc:Agent>
    </dc:creator>
   </cc:Work>
  </rdf:RDF>
 </metadata>
 <defs>
  <style type="text/css">*{stroke-linecap:butt;stroke-linejoin:round;}</style>
 </defs>
 <g id="figure_1">
  <g id="patch_1">
   <path d="M 0 277.314375 
L 384.1 277.314375 
L 384.1 0 
L 0 0 
z
" style="fill:none;"/>
  </g>
  <g id="axes_1">
   <g id="patch_2">
    <path d="M 42.1 239.758125 
L 376.9 239.758125 
L 376.9 22.318125 
L 42.1 22.318125 
z
" style="fill:#ffffff;"/>
   </g>
   <g id="matplotlib.axis_1">
    <g id="xtick_1">
     <g id="line2d_1">
      <defs>
       <path d="M 0 0 
L 0 3.5 
" id="ma644cf5265" style="stroke:#000000;stroke-width:0.8;"/>
      </defs>
      <g>
       <use style="stroke:#000000;stroke-width:0.8;" x="56.854213" xlink:href="#ma644cf5265" y="239.758125"/>
      </g>
     </g>
     <g id="text_1">
      <!-- 0 -->
      <g transform="translate(53.672963 254.356562)scale(0.1 -0.1)">
       <defs>
        <path d="M 31.78125 66.40625 
Q 24.171875 66.40625 20.328125 58.90625 
Q 16.5 51.421875 16.5 36.375 
Q 16.5 21.390625 20.328125 13.890625 
Q 24.171875 6.390625 31.78125 6.390625 
Q 39.453125 6.390625 43.28125 13.890625 
Q 47.125 21.390625 47.125 36.375 
Q 47.125 51.421875 43.28125 58.90625 
Q 39.453125 66.40625 31.78125 66.40625 
z
M 31.78125 74.21875 
Q 44.046875 74.21875 50.515625 64.515625 
Q 56.984375 54.828125 56.984375 36.375 
Q 56.984375 17.96875 50.515625 8.265625 
Q 44.046875 -1.421875 31.78125 -1.421875 
Q 19.53125 -1.421875 13.0625 8.265625 
Q 6.59375 17.96875 6.59375 36.375 
Q 6.59375 54.828125 13.0625 64.515625 
Q 19.53125 74.21875 31.78125 74.21875 
z
" id="DejaVuSans-48"/>
       </defs>
       <use xlink:href="#DejaVuSans-48"/>
      </g>
     </g>
    </g>
    <g id="xtick_2">
     <g id="line2d_2">
      <g>
       <use style="stroke:#000000;stroke-width:0.8;" x="99.033209" xlink:href="#ma644cf5265" y="239.758125"/>
      </g>
     </g>
     <g id="text_2">
      <!-- 1000 -->
      <g transform="translate(86.308209 254.356562)scale(0.1 -0.1)">
       <defs>
        <path d="M 12.40625 8.296875 
L 28.515625 8.296875 
L 28.515625 63.921875 
L 10.984375 60.40625 
L 10.984375 69.390625 
L 28.421875 72.90625 
L 38.28125 72.90625 
L 38.28125 8.296875 
L 54.390625 8.296875 
L 54.390625 0 
L 12.40625 0 
z
" id="DejaVuSans-49"/>
       </defs>
       <use xlink:href="#DejaVuSans-49"/>
       <use x="63.623047" xlink:href="#DejaVuSans-48"/>
       <use x="127.246094" xlink:href="#DejaVuSans-48"/>
       <use x="190.869141" xlink:href="#DejaVuSans-48"/>
      </g>
     </g>
    </g>
    <g id="xtick_3">
     <g id="line2d_3">
      <g>
       <use style="stroke:#000000;stroke-width:0.8;" x="141.212205" xlink:href="#ma644cf5265" y="239.758125"/>
      </g>
     </g>
     <g id="text_3">
      <!-- 2000 -->
      <g transform="translate(128.487205 254.356562)scale(0.1 -0.1)">
       <defs>
        <path d="M 19.1875 8.296875 
L 53.609375 8.296875 
L 53.609375 0 
L 7.328125 0 
L 7.328125 8.296875 
Q 12.9375 14.109375 22.625 23.890625 
Q 32.328125 33.6875 34.8125 36.53125 
Q 39.546875 41.84375 41.421875 45.53125 
Q 43.3125 49.21875 43.3125 52.78125 
Q 43.3125 58.59375 39.234375 62.25 
Q 35.15625 65.921875 28.609375 65.921875 
Q 23.96875 65.921875 18.8125 64.3125 
Q 13.671875 62.703125 7.8125 59.421875 
L 7.8125 69.390625 
Q 13.765625 71.78125 18.9375 73 
Q 24.125 74.21875 28.421875 74.21875 
Q 39.75 74.21875 46.484375 68.546875 
Q 53.21875 62.890625 53.21875 53.421875 
Q 53.21875 48.921875 51.53125 44.890625 
Q 49.859375 40.875 45.40625 35.40625 
Q 44.1875 33.984375 37.640625 27.21875 
Q 31.109375 20.453125 19.1875 8.296875 
z
" id="DejaVuSans-50"/>
       </defs>
       <use xlink:href="#DejaVuSans-50"/>
       <use x="63.623047" xlink:href="#DejaVuSans-48"/>
       <use x="127.246094" xlink:href="#DejaVuSans-48"/>
       <use x="190.869141" xlink:href="#DejaVuSans-48"/>
      </g>
     </g>
    </g>
    <g id="xtick_4">
     <g id="line2d_4">
      <g>
       <use style="stroke:#000000;stroke-width:0.8;" x="183.391201" xlink:href="#ma644cf5265" y="239.758125"/>
      </g>
     </g>
     <g id="text_4">
      <!-- 3000 -->
      <g transform="translate(170.666201 254.356562)scale(0.1 -0.1)">
       <defs>
        <path d="M 40.578125 39.3125 
Q 47.65625 37.796875 51.625 33 
Q 55.609375 28.21875 55.609375 21.1875 
Q 55.609375 10.40625 48.1875 4.484375 
Q 40.765625 -1.421875 27.09375 -1.421875 
Q 22.515625 -1.421875 17.65625 -0.515625 
Q 12.796875 0.390625 7.625 2.203125 
L 7.625 11.71875 
Q 11.71875 9.328125 16.59375 8.109375 
Q 21.484375 6.890625 26.8125 6.890625 
Q 36.078125 6.890625 40.9375 10.546875 
Q 45.796875 14.203125 45.796875 21.1875 
Q 45.796875 27.640625 41.28125 31.265625 
Q 36.765625 34.90625 28.71875 34.90625 
L 20.21875 34.90625 
L 20.21875 43.015625 
L 29.109375 43.015625 
Q 36.375 43.015625 40.234375 45.921875 
Q 44.09375 48.828125 44.09375 54.296875 
Q 44.09375 59.90625 40.109375 62.90625 
Q 36.140625 65.921875 28.71875 65.921875 
Q 24.65625 65.921875 20.015625 65.03125 
Q 15.375 64.15625 9.8125 62.3125 
L 9.8125 71.09375 
Q 15.4375 72.65625 20.34375 73.4375 
Q 25.25 74.21875 29.59375 74.21875 
Q 40.828125 74.21875 47.359375 69.109375 
Q 53.90625 64.015625 53.90625 55.328125 
Q 53.90625 49.265625 50.4375 45.09375 
Q 46.96875 40.921875 40.578125 39.3125 
z
" id="DejaVuSans-51"/>
       </defs>
       <use xlink:href="#DejaVuSans-51"/>
       <use x="63.623047" xlink:href="#DejaVuSans-48"/>
       <use x="127.246094" xlink:href="#DejaVuSans-48"/>
       <use x="190.869141" xlink:href="#DejaVuSans-48"/>
      </g>
     </g>
    </g>
    <g id="xtick_5">
     <g id="line2d_5">
      <g>
       <use style="stroke:#000000;stroke-width:0.8;" x="225.570198" xlink:href="#ma644cf5265" y="239.758125"/>
      </g>
     </g>
     <g id="text_5">
      <!-- 4000 -->
      <g transform="translate(212.845198 254.356562)scale(0.1 -0.1)">
       <defs>
        <path d="M 37.796875 64.3125 
L 12.890625 25.390625 
L 37.796875 25.390625 
z
M 35.203125 72.90625 
L 47.609375 72.90625 
L 47.609375 25.390625 
L 58.015625 25.390625 
L 58.015625 17.1875 
L 47.609375 17.1875 
L 47.609375 0 
L 37.796875 0 
L 37.796875 17.1875 
L 4.890625 17.1875 
L 4.890625 26.703125 
z
" id="DejaVuSans-52"/>
       </defs>
       <use xlink:href="#DejaVuSans-52"/>
       <use x="63.623047" xlink:href="#DejaVuSans-48"/>
       <use x="127.246094" xlink:href="#DejaVuSans-48"/>
       <use x="190.869141" xlink:href="#DejaVuSans-48"/>
      </g>
     </g>
    </g>
    <g id="xtick_6">
     <g id="line2d_6">
      <g>
       <use style="stroke:#000000;stroke-width:0.8;" x="267.749194" xlink:href="#ma644cf5265" y="239.758125"/>
      </g>
     </g>
     <g id="text_6">
      <!-- 5000 -->
      <g transform="translate(255.024194 254.356562)scale(0.1 -0.1)">
       <defs>
        <path d="M 10.796875 72.90625 
L 49.515625 72.90625 
L 49.515625 64.59375 
L 19.828125 64.59375 
L 19.828125 46.734375 
Q 21.96875 47.46875 24.109375 47.828125 
Q 26.265625 48.1875 28.421875 48.1875 
Q 40.625 48.1875 47.75 41.5 
Q 54.890625 34.8125 54.890625 23.390625 
Q 54.890625 11.625 47.5625 5.09375 
Q 40.234375 -1.421875 26.90625 -1.421875 
Q 22.3125 -1.421875 17.546875 -0.640625 
Q 12.796875 0.140625 7.71875 1.703125 
L 7.71875 11.625 
Q 12.109375 9.234375 16.796875 8.0625 
Q 21.484375 6.890625 26.703125 6.890625 
Q 35.15625 6.890625 40.078125 11.328125 
Q 45.015625 15.765625 45.015625 23.390625 
Q 45.015625 31 40.078125 35.4375 
Q 35.15625 39.890625 26.703125 39.890625 
Q 22.75 39.890625 18.8125 39.015625 
Q 14.890625 38.140625 10.796875 36.28125 
z
" id="DejaVuSans-53"/>
       </defs>
       <use xlink:href="#DejaVuSans-53"/>
       <use x="63.623047" xlink:href="#DejaVuSans-48"/>
       <use x="127.246094" xlink:href="#DejaVuSans-48"/>
       <use x="190.869141" xlink:href="#DejaVuSans-48"/>
      </g>
     </g>
    </g>
    <g id="xtick_7">
     <g id="line2d_7">
      <g>
       <use style="stroke:#000000;stroke-width:0.8;" x="309.92819" xlink:href="#ma644cf5265" y="239.758125"/>
      </g>
     </g>
     <g id="text_7">
      <!-- 6000 -->
      <g transform="translate(297.20319 254.356562)scale(0.1 -0.1)">
       <defs>
        <path d="M 33.015625 40.375 
Q 26.375 40.375 22.484375 35.828125 
Q 18.609375 31.296875 18.609375 23.390625 
Q 18.609375 15.53125 22.484375 10.953125 
Q 26.375 6.390625 33.015625 6.390625 
Q 39.65625 6.390625 43.53125 10.953125 
Q 47.40625 15.53125 47.40625 23.390625 
Q 47.40625 31.296875 43.53125 35.828125 
Q 39.65625 40.375 33.015625 40.375 
z
M 52.59375 71.296875 
L 52.59375 62.3125 
Q 48.875 64.0625 45.09375 64.984375 
Q 41.3125 65.921875 37.59375 65.921875 
Q 27.828125 65.921875 22.671875 59.328125 
Q 17.53125 52.734375 16.796875 39.40625 
Q 19.671875 43.65625 24.015625 45.921875 
Q 28.375 48.1875 33.59375 48.1875 
Q 44.578125 48.1875 50.953125 41.515625 
Q 57.328125 34.859375 57.328125 23.390625 
Q 57.328125 12.15625 50.6875 5.359375 
Q 44.046875 -1.421875 33.015625 -1.421875 
Q 20.359375 -1.421875 13.671875 8.265625 
Q 6.984375 17.96875 6.984375 36.375 
Q 6.984375 53.65625 15.1875 63.9375 
Q 23.390625 74.21875 37.203125 74.21875 
Q 40.921875 74.21875 44.703125 73.484375 
Q 48.484375 72.75 52.59375 71.296875 
z
" id="DejaVuSans-54"/>
       </defs>
       <use xlink:href="#DejaVuSans-54"/>
       <use x="63.623047" xlink:href="#DejaVuSans-48"/>
       <use x="127.246094" xlink:href="#DejaVuSans-48"/>
       <use x="190.869141" xlink:href="#DejaVuSans-48"/>
      </g>
     </g>
    </g>
    <g id="xtick_8">
     <g id="line2d_8">
      <g>
       <use style="stroke:#000000;stroke-width:0.8;" x="352.107186" xlink:href="#ma644cf5265" y="239.758125"/>
      </g>
     </g>
     <g id="text_8">
      <!-- 7000 -->
      <g transform="translate(339.382186 254.356562)scale(0.1 -0.1)">
       <defs>
        <path d="M 8.203125 72.90625 
L 55.078125 72.90625 
L 55.078125 68.703125 
L 28.609375 0 
L 18.3125 0 
L 43.21875 64.59375 
L 8.203125 64.59375 
z
" id="DejaVuSans-55"/>
       </defs>
       <use xlink:href="#DejaVuSans-55"/>
       <use x="63.623047" xlink:href="#DejaVuSans-48"/>
       <use x="127.246094" xlink:href="#DejaVuSans-48"/>
       <use x="190.869141" xlink:href="#DejaVuSans-48"/>
      </g>
     </g>
    </g>
    <g id="text_9">
     <!-- evals -->
     <g transform="translate(196.40625 268.034687)scale(0.1 -0.1)">
      <defs>
       <path d="M 56.203125 29.59375 
L 56.203125 25.203125 
L 14.890625 25.203125 
Q 15.484375 15.921875 20.484375 11.0625 
Q 25.484375 6.203125 34.421875 6.203125 
Q 39.59375 6.203125 44.453125 7.46875 
Q 49.3125 8.734375 54.109375 11.28125 
L 54.109375 2.78125 
Q 49.265625 0.734375 44.1875 -0.34375 
Q 39.109375 -1.421875 33.890625 -1.421875 
Q 20.796875 -1.421875 13.15625 6.1875 
Q 5.515625 13.8125 5.515625 26.8125 
Q 5.515625 40.234375 12.765625 48.109375 
Q 20.015625 56 32.328125 56 
Q 43.359375 56 49.78125 48.890625 
Q 56.203125 41.796875 56.203125 29.59375 
z
M 47.21875 32.234375 
Q 47.125 39.59375 43.09375 43.984375 
Q 39.0625 48.390625 32.421875 48.390625 
Q 24.90625 48.390625 20.390625 44.140625 
Q 15.875 39.890625 15.1875 32.171875 
z
" id="DejaVuSans-101"/>
       <path d="M 2.984375 54.6875 
L 12.5 54.6875 
L 29.59375 8.796875 
L 46.6875 54.6875 
L 56.203125 54.6875 
L 35.6875 0 
L 23.484375 0 
z
" id="DejaVuSans-118"/>
       <path d="M 34.28125 27.484375 
Q 23.390625 27.484375 19.1875 25 
Q 14.984375 22.515625 14.984375 16.5 
Q 14.984375 11.71875 18.140625 8.90625 
Q 21.296875 6.109375 26.703125 6.109375 
Q 34.1875 6.109375 38.703125 11.40625 
Q 43.21875 16.703125 43.21875 25.484375 
L 43.21875 27.484375 
z
M 52.203125 31.203125 
L 52.203125 0 
L 43.21875 0 
L 43.21875 8.296875 
Q 40.140625 3.328125 35.546875 0.953125 
Q 30.953125 -1.421875 24.3125 -1.421875 
Q 15.921875 -1.421875 10.953125 3.296875 
Q 6 8.015625 6 15.921875 
Q 6 25.140625 12.171875 29.828125 
Q 18.359375 34.515625 30.609375 34.515625 
L 43.21875 34.515625 
L 43.21875 35.40625 
Q 43.21875 41.609375 39.140625 45 
Q 35.0625 48.390625 27.6875 48.390625 
Q 23 48.390625 18.546875 47.265625 
Q 14.109375 46.140625 10.015625 43.890625 
L 10.015625 52.203125 
Q 14.9375 54.109375 19.578125 55.046875 
Q 24.21875 56 28.609375 56 
Q 40.484375 56 46.34375 49.84375 
Q 52.203125 43.703125 52.203125 31.203125 
z
" id="DejaVuSans-97"/>
       <path d="M 9.421875 75.984375 
L 18.40625 75.984375 
L 18.40625 0 
L 9.421875 0 
z
" id="DejaVuSans-108"/>
       <path d="M 44.28125 53.078125 
L 44.28125 44.578125 
Q 40.484375 46.53125 36.375 47.5 
Q 32.28125 48.484375 27.875 48.484375 
Q 21.1875 48.484375 17.84375 46.4375 
Q 14.5 44.390625 14.5 40.28125 
Q 14.5 37.15625 16.890625 35.375 
Q 19.28125 33.59375 26.515625 31.984375 
L 29.59375 31.296875 
Q 39.15625 29.25 43.1875 25.515625 
Q 47.21875 21.78125 47.21875 15.09375 
Q 47.21875 7.46875 41.1875 3.015625 
Q 35.15625 -1.421875 24.609375 -1.421875 
Q 20.21875 -1.421875 15.453125 -0.5625 
Q 10.6875 0.296875 5.421875 2 
L 5.421875 11.28125 
Q 10.40625 8.6875 15.234375 7.390625 
Q 20.0625 6.109375 24.8125 6.109375 
Q 31.15625 6.109375 34.5625 8.28125 
Q 37.984375 10.453125 37.984375 14.40625 
Q 37.984375 18.0625 35.515625 20.015625 
Q 33.0625 21.96875 24.703125 23.78125 
L 21.578125 24.515625 
Q 13.234375 26.265625 9.515625 29.90625 
Q 5.8125 33.546875 5.8125 39.890625 
Q 5.8125 47.609375 11.28125 51.796875 
Q 16.75 56 26.8125 56 
Q 31.78125 56 36.171875 55.265625 
Q 40.578125 54.546875 44.28125 53.078125 
z
" id="DejaVuSans-115"/>
      </defs>
      <use xlink:href="#DejaVuSans-101"/>
      <use x="61.523438" xlink:href="#DejaVuSans-118"/>
      <use x="120.703125" xlink:href="#DejaVuSans-97"/>
      <use x="181.982422" xlink:href="#DejaVuSans-108"/>
      <use x="209.765625" xlink:href="#DejaVuSans-115"/>
     </g>
    </g>
   </g>
   <g id="matplotlib.axis_2">
    <g id="ytick_1">
     <g id="line2d_9">
      <defs>
       <path d="M 0 0 
L -3.5 0 
" id="md26ff778ca" style="stroke:#000000;stroke-width:0.8;"/>
      </defs>
      <g>
       <use style="stroke:#000000;stroke-width:0.8;" x="42.1" xlink:href="#md26ff778ca" y="214.202909"/>
      </g>
     </g>
     <g id="text_10">
      <!-- $\mathdefault{10^{-12}}$ -->
      <g transform="translate(7.2 218.002128)scale(0.1 -0.1)">
       <defs>
        <path d="M 10.59375 35.5 
L 73.1875 35.5 
L 73.1875 27.203125 
L 10.59375 27.203125 
z
" id="DejaVuSans-8722"/>
       </defs>
       <use transform="translate(0 0.765625)" xlink:href="#DejaVuSans-49"/>
       <use transform="translate(63.623047 0.765625)" xlink:href="#DejaVuSans-48"/>
       <use transform="translate(128.203125 39.046875)scale(0.7)" xlink:href="#DejaVuSans-8722"/>
       <use transform="translate(186.855469 39.046875)scale(0.7)" xlink:href="#DejaVuSans-49"/>
       <use transform="translate(231.391602 39.046875)scale(0.7)" xlink:href="#DejaVuSans-50"/>
      </g>
     </g>
    </g>
    <g id="ytick_2">
     <g id="line2d_10">
      <g>
       <use style="stroke:#000000;stroke-width:0.8;" x="42.1" xlink:href="#md26ff778ca" y="178.572179"/>
      </g>
     </g>
     <g id="text_11">
      <!-- $\mathdefault{10^{-9}}$ -->
      <g transform="translate(11.6 182.371398)scale(0.1 -0.1)">
       <defs>
        <path d="M 10.984375 1.515625 
L 10.984375 10.5 
Q 14.703125 8.734375 18.5 7.8125 
Q 22.3125 6.890625 25.984375 6.890625 
Q 35.75 6.890625 40.890625 13.453125 
Q 46.046875 20.015625 46.78125 33.40625 
Q 43.953125 29.203125 39.59375 26.953125 
Q 35.25 24.703125 29.984375 24.703125 
Q 19.046875 24.703125 12.671875 31.3125 
Q 6.296875 37.9375 6.296875 49.421875 
Q 6.296875 60.640625 12.9375 67.421875 
Q 19.578125 74.21875 30.609375 74.21875 
Q 43.265625 74.21875 49.921875 64.515625 
Q 56.59375 54.828125 56.59375 36.375 
Q 56.59375 19.140625 48.40625 8.859375 
Q 40.234375 -1.421875 26.421875 -1.421875 
Q 22.703125 -1.421875 18.890625 -0.6875 
Q 15.09375 0.046875 10.984375 1.515625 
z
M 30.609375 32.421875 
Q 37.25 32.421875 41.125 36.953125 
Q 45.015625 41.5 45.015625 49.421875 
Q 45.015625 57.28125 41.125 61.84375 
Q 37.25 66.40625 30.609375 66.40625 
Q 23.96875 66.40625 20.09375 61.84375 
Q 16.21875 57.28125 16.21875 49.421875 
Q 16.21875 41.5 20.09375 36.953125 
Q 23.96875 32.421875 30.609375 32.421875 
z
" id="DejaVuSans-57"/>
       </defs>
       <use transform="translate(0 0.765625)" xlink:href="#DejaVuSans-49"/>
       <use transform="translate(63.623047 0.765625)" xlink:href="#DejaVuSans-48"/>
       <use transform="translate(128.203125 39.046875)scale(0.7)" xlink:href="#DejaVuSans-8722"/>
       <use transform="translate(186.855469 39.046875)scale(0.7)" xlink:href="#DejaVuSans-57"/>
      </g>
     </g>
    </g>
    <g id="ytick_3">
     <g id="line2d_11">
      <g>
       <use style="stroke:#000000;stroke-width:0.8;" x="42.1" xlink:href="#md26ff778ca" y="142.94145"/>
      </g>
     </g>
     <g id="text_12">
      <!-- $\mathdefault{10^{-6}}$ -->
      <g transform="translate(11.6 146.740668)scale(0.1 -0.1)">
       <use transform="translate(0 0.765625)" xlink:href="#DejaVuSans-49"/>
       <use transform="translate(63.623047 0.765625)" xlink:href="#DejaVuSans-48"/>
       <use transform="translate(128.203125 39.046875)scale(0.7)" xlink:href="#DejaVuSans-8722"/>
       <use transform="translate(186.855469 39.046875)scale(0.7)" xlink:href="#DejaVuSans-54"/>
      </g>
     </g>
    </g>
    <g id="ytick_4">
     <g id="line2d_12">
      <g>
       <use style="stroke:#000000;stroke-width:0.8;" x="42.1" xlink:href="#md26ff778ca" y="107.31072"/>
      </g>
     </g>
     <g id="text_13">
      <!-- $\mathdefault{10^{-3}}$ -->
      <g transform="translate(11.6 111.109939)scale(0.1 -0.1)">
       <use transform="translate(0 0.765625)" xlink:href="#DejaVuSans-49"/>
       <use transform="translate(63.623047 0.765625)" xlink:href="#DejaVuSans-48"/>
       <use transform="translate(128.203125 39.046875)scale(0.7)" xlink:href="#DejaVuSans-8722"/>
       <use transform="translate(186.855469 39.046875)scale(0.7)" xlink:href="#DejaVuSans-51"/>
      </g>
     </g>
    </g>
    <g id="ytick_5">
     <g id="line2d_13">
      <g>
       <use style="stroke:#000000;stroke-width:0.8;" x="42.1" xlink:href="#md26ff778ca" y="71.67999"/>
      </g>
     </g>
     <g id="text_14">
      <!-- $\mathdefault{10^{0}}$ -->
      <g transform="translate(17.5 75.479209)scale(0.1 -0.1)">
       <use transform="translate(0 0.765625)" xlink:href="#DejaVuSans-49"/>
       <use transform="translate(63.623047 0.765625)" xlink:href="#DejaVuSans-48"/>
       <use transform="translate(128.203125 39.046875)scale(0.7)" xlink:href="#DejaVuSans-48"/>
      </g>
     </g>
    </g>
    <g id="ytick_6">
     <g id="line2d_14">
      <g>
       <use style="stroke:#000000;stroke-width:0.8;" x="42.1" xlink:href="#md26ff778ca" y="36.049261"/>
      </g>
     </g>
     <g id="text_15">
      <!-- $\mathdefault{10^{3}}$ -->
      <g transform="translate(17.5 39.84848)scale(0.1 -0.1)">
       <use transform="translate(0 0.765625)" xlink:href="#DejaVuSans-49"/>
       <use transform="translate(63.623047 0.765625)" xlink:href="#DejaVuSans-48"/>
       <use transform="translate(128.203125 39.046875)scale(0.7)" xlink:href="#DejaVuSans-51"/>
      </g>
     </g>
    </g>
   </g>
   <g id="line2d_15">
    <path clip-path="url(#p5fb9b8cf95)" d="M 57.318182 45.362359 
L 57.782151 50.629655 
L 60.565965 50.629655 
L 61.029933 51.353223 
L 61.493902 52.85609 
L 62.42184 52.85609 
L 62.885809 55.280916 
L 65.205654 55.280916 
L 65.669623 56.251979 
L 66.133592 56.286773 
L 67.06153 56.822068 
L 67.989468 56.822068 
L 68.453437 57.855249 
L 68.917406 57.855249 
L 69.381375 58.606468 
L 69.845344 58.764983 
L 71.237251 58.764983 
L 72.629157 59.508648 
L 75.412971 59.508648 
L 75.87694 59.682193 
L 79.588692 59.753746 
L 81.444568 60.029982 
L 85.156319 60.117149 
L 88.868071 60.284387 
L 92.579823 60.395471 
L 93.507761 60.461882 
L 96.755543 60.587266 
L 100.467295 60.815865 
L 101.395233 60.87094 
L 102.323171 60.977846 
L 106.034922 61.087596 
L 107.890798 61.283616 
L 109.282705 61.383876 
L 113.922395 61.494645 
L 115.314302 61.578002 
L 116.706208 61.705673 
L 119.490022 61.812582 
L 127.377494 62.122819 
L 128.769401 62.213418 
L 129.697339 62.267301 
L 130.625277 62.354208 
L 132.945122 62.460759 
L 138.976718 62.858883 
L 141.296563 62.915817 
L 142.68847 63.066105 
L 144.544346 63.110269 
L 145.936253 63.205374 
L 149.184035 63.473934 
L 151.967849 63.576187 
L 157.071508 64.019219 
L 159.391353 64.221887 
L 162.639135 64.472294 
L 164.031042 64.534532 
L 164.495011 64.759404 
L 167.278825 65.104926 
L 167.742794 65.258181 
L 170.062639 65.291582 
L 173.310421 65.832763 
L 173.77439 65.841162 
L 174.238359 66.010751 
L 176.094235 66.056425 
L 176.558204 66.215947 
L 177.950111 66.321904 
L 179.342018 66.464338 
L 181.197894 66.570649 
L 181.661863 66.570649 
L 182.125831 66.793325 
L 183.053769 66.793325 
L 183.517738 66.990338 
L 183.981707 66.999938 
L 184.445676 67.129069 
L 186.301552 67.219004 
L 190.013304 67.869062 
L 191.86918 67.952919 
L 192.333149 68.285064 
L 195.116962 68.840722 
L 195.580931 68.840722 
L 196.0449 69.132124 
L 196.508869 69.758224 
L 197.436807 69.758224 
L 197.900776 70.193135 
L 200.220621 70.193135 
L 200.68459 70.704082 
L 202.540466 70.704082 
L 203.004435 71.382181 
L 204.396341 71.531193 
L 204.86031 72.105539 
L 206.252217 72.105539 
L 207.180155 72.3059 
L 207.644124 72.3059 
L 208.108093 72.774935 
L 209.036031 72.883424 
L 209.5 72.945053 
L 209.963969 73.168057 
L 210.427938 73.168057 
L 210.891907 73.409268 
L 212.283814 73.518878 
L 216.459534 74.118814 
L 216.923503 74.406863 
L 217.387472 74.406863 
L 219.243348 75.007648 
L 220.171286 75.083581 
L 221.099224 75.205311 
L 222.9551 75.567237 
L 224.347007 76.553988 
L 226.666851 76.553988 
L 227.13082 76.825635 
L 227.594789 77.254683 
L 228.058758 77.254683 
L 228.522727 77.566846 
L 228.986696 78.326551 
L 231.306541 78.448442 
L 231.77051 78.915441 
L 232.698448 79.012608 
L 233.162417 80.144873 
L 233.626386 80.219205 
L 234.090355 80.70656 
L 235.946231 80.730068 
L 236.4102 81.422298 
L 237.802106 81.422298 
L 238.266075 81.803595 
L 239.194013 81.868428 
L 239.657982 82.246462 
L 240.58592 82.458903 
L 241.049889 84.286675 
L 241.513858 84.57743 
L 243.369734 84.593956 
L 243.833703 84.906316 
L 244.297672 85.059517 
L 244.761641 85.888503 
L 245.689579 85.888503 
L 246.153548 87.022896 
L 248.937361 87.022896 
L 249.40133 87.689243 
L 250.329268 87.689243 
L 250.793237 88.135831 
L 252.185144 88.135831 
L 252.649113 89.455779 
L 253.113082 89.770764 
L 253.577051 90.955166 
L 254.04102 90.955166 
L 254.504989 91.411097 
L 255.432927 91.411097 
L 255.896896 91.612078 
L 256.360865 92.110855 
L 257.288803 92.110855 
L 257.752772 92.314602 
L 258.216741 92.314602 
L 258.68071 92.540322 
L 259.608647 92.540322 
L 260.072616 93.34784 
L 260.536585 93.922337 
L 261.000554 95.207483 
L 262.392461 95.234275 
L 262.85643 95.603481 
L 263.320399 95.603481 
L 263.784368 96.342368 
L 264.248337 96.514183 
L 265.176275 96.514183 
L 265.640244 98.999319 
L 266.568182 98.999319 
L 267.032151 100.829906 
L 267.49612 101.169635 
L 267.960089 103.516914 
L 268.888027 103.516914 
L 269.351996 103.678513 
L 270.743902 103.678513 
L 271.207871 104.424638 
L 272.599778 104.424638 
L 273.063747 108.271791 
L 273.527716 108.271791 
L 273.991685 108.546861 
L 274.455654 111.557356 
L 274.919623 112.571373 
L 276.31153 112.595719 
L 276.775499 118.33652 
L 278.167406 118.33652 
L 278.631375 119.026619 
L 280.487251 119.026619 
L 280.95122 119.791454 
L 281.415188 119.791454 
L 281.879157 124.095967 
L 284.199002 124.095967 
L 284.662971 126.711636 
L 285.590909 126.711636 
L 286.054878 126.880607 
L 286.982816 126.880607 
L 287.446785 129.292743 
L 288.838692 129.292743 
L 289.302661 134.869998 
L 289.76663 136.817746 
L 295.334257 136.817746 
L 295.798226 137.144826 
L 296.262195 137.259328 
L 296.726164 137.259328 
L 297.190133 139.442286 
L 297.654102 140.79059 
L 298.118071 141.538565 
L 298.58204 141.538565 
L 299.509978 142.595695 
L 299.973947 143.381476 
L 300.437916 145.192016 
L 302.293792 145.192016 
L 302.757761 146.041965 
L 303.221729 146.222481 
L 303.685698 146.892436 
L 304.149667 147.179822 
L 304.613636 149.06679 
L 305.077605 149.997989 
L 305.541574 150.47041 
L 306.005543 150.47041 
L 306.469512 152.970584 
L 306.933481 154.004009 
L 308.325388 154.004009 
L 308.789357 154.289872 
L 309.253326 156.01723 
L 309.717295 156.01723 
L 310.181264 158.926678 
L 312.501109 158.926678 
L 312.965078 159.847109 
L 313.429047 161.323498 
L 313.893016 161.472172 
L 314.356984 162.195045 
L 314.820953 164.275763 
L 315.748891 164.275763 
L 316.21286 165.237049 
L 317.140798 165.237049 
L 317.604767 166.151376 
L 318.532705 171.044096 
L 318.996674 171.336486 
L 319.460643 171.336486 
L 319.924612 172.408633 
L 320.388581 172.408633 
L 320.85255 172.809195 
L 321.316519 172.945787 
L 321.780488 175.745425 
L 322.244457 175.745425 
L 322.708426 177.722068 
L 323.172395 179.181751 
L 323.636364 179.181751 
L 324.100333 179.424506 
L 324.564302 180.498596 
L 325.492239 180.498596 
L 325.956208 182.250261 
L 326.420177 182.250261 
L 326.884146 185.265989 
L 329.203991 185.265989 
L 329.66796 186.89918 
L 331.987805 186.970734 
L 332.451774 189.344955 
L 332.915743 190.908402 
L 333.379712 190.908402 
L 333.843681 191.790523 
L 334.30765 195.953779 
L 337.555432 195.953779 
L 338.019401 197.075362 
L 338.48337 199.577178 
L 338.947339 200.504854 
L 339.875277 200.504854 
L 340.339246 201.276371 
L 342.195122 201.276371 
L 342.659091 203.31847 
L 343.587029 203.31847 
L 344.050998 204.423259 
L 344.514967 204.582934 
L 344.978936 204.582934 
L 345.442905 205.001528 
L 345.906874 207.020945 
L 346.370843 207.198099 
L 347.29878 207.198099 
L 347.762749 209.409692 
L 348.226718 209.409692 
L 348.690687 211.123721 
L 350.082594 211.123721 
L 350.546563 211.974 
L 351.010532 215.915591 
L 351.474501 216.759402 
L 351.93847 216.759402 
L 352.402439 218.995996 
L 352.866408 218.995996 
L 353.330377 225.503657 
L 358.898004 225.503657 
L 359.361973 227.431564 
L 360.75388 227.431564 
L 361.217849 229.378423 
L 361.681818 229.874489 
L 361.681818 229.874489 
" style="fill:none;stroke:#1f77b4;stroke-linecap:square;stroke-width:1.5;"/>
   </g>
   <g id="line2d_16">
    <path clip-path="url(#p5fb9b8cf95)" d="M 57.318182 45.362359 
L 57.782151 50.629655 
L 58.24612 50.387669 
L 58.710089 47.038166 
L 59.174058 49.325047 
L 59.638027 47.83601 
L 60.101996 48.848022 
L 60.565965 49.493865 
L 61.493902 52.85609 
L 61.957871 51.264549 
L 62.42184 52.591904 
L 62.885809 55.280916 
L 63.349778 54.902551 
L 63.813747 53.78908 
L 64.277716 53.943521 
L 64.741685 54.550531 
L 65.205654 54.312803 
L 65.669623 56.251979 
L 66.133592 56.286773 
L 67.06153 56.822068 
L 67.525499 56.540583 
L 67.989468 56.456878 
L 68.453437 57.855249 
L 68.917406 57.316118 
L 69.381375 58.606468 
L 69.845344 58.764983 
L 70.309313 58.183979 
L 70.773282 58.558407 
L 71.237251 58.554041 
L 71.70122 59.002882 
L 72.629157 59.508648 
L 73.093126 59.060267 
L 73.557095 59.123218 
L 74.021064 59.392276 
L 74.485033 59.22504 
L 75.412971 59.243471 
L 75.87694 59.682193 
L 76.340909 59.413662 
L 77.732816 59.462942 
L 78.196785 59.753205 
L 79.124723 59.627318 
L 80.052661 59.838005 
L 80.980599 59.916116 
L 81.444568 60.029982 
L 82.836475 59.987857 
L 83.764412 60.088316 
L 88.404102 60.237131 
L 89.796009 60.297141 
L 95.827605 60.567627 
L 101.395233 60.87094 
L 102.323171 60.977846 
L 103.715078 60.951815 
L 105.106984 60.988823 
L 106.498891 61.160058 
L 108.818736 61.383876 
L 110.210643 61.253897 
L 112.066519 61.461277 
L 113.458426 61.494645 
L 115.314302 61.578002 
L 116.706208 61.705179 
L 118.098115 61.778883 
L 119.026053 61.772894 
L 120.41796 61.821177 
L 120.881929 61.762719 
L 121.345898 61.887117 
L 122.273836 61.896334 
L 129.23337 62.199865 
L 130.625277 62.346412 
L 132.017184 62.392018 
L 134.337029 62.632936 
L 135.728936 62.639136 
L 136.656874 62.771906 
L 137.120843 62.690991 
L 137.584812 62.817475 
L 141.296563 62.832406 
L 142.224501 63.066105 
L 145.008315 63.107031 
L 147.32816 63.347601 
L 148.256098 63.318315 
L 149.184035 63.473934 
L 149.648004 63.39759 
L 151.039911 63.576187 
L 151.50388 63.491914 
L 153.823725 63.719446 
L 154.287694 63.744013 
L 154.751663 63.90106 
L 155.679601 63.844209 
L 156.14357 64.000251 
L 157.071508 64.019219 
L 159.391353 64.221887 
L 162.639135 64.472294 
L 163.567073 64.474372 
L 164.031042 64.534532 
L 164.495011 64.759404 
L 166.814856 65.104926 
L 167.278825 64.773412 
L 167.742794 65.258181 
L 168.206763 64.835167 
L 168.670732 65.075543 
L 169.134701 65.17017 
L 169.59867 65.073794 
L 170.062639 65.291582 
L 170.990576 65.471661 
L 171.454545 65.312345 
L 172.382483 65.726079 
L 173.77439 65.841162 
L 174.238359 66.010751 
L 175.166297 65.903236 
L 176.558204 66.215947 
L 177.022173 66.089209 
L 177.486142 66.099463 
L 177.950111 66.321904 
L 179.342018 66.464338 
L 179.805987 66.509495 
L 180.269956 66.302481 
L 180.733925 66.570649 
L 181.661863 66.46133 
L 182.125831 66.793325 
L 182.5898 66.661104 
L 183.053769 66.707145 
L 183.517738 66.990338 
L 183.981707 66.999938 
L 184.445676 67.129069 
L 184.909645 66.939317 
L 186.301552 67.219004 
L 186.765521 67.313102 
L 187.22949 67.221375 
L 188.157428 67.575952 
L 188.621397 67.731784 
L 190.477273 67.910108 
L 191.405211 67.661882 
L 192.333149 68.285064 
L 194.652993 68.840722 
L 195.116962 68.60241 
L 195.580931 68.777877 
L 196.0449 69.132124 
L 196.508869 69.758224 
L 196.972838 68.86517 
L 197.900776 70.193135 
L 198.364745 69.093163 
L 198.828714 69.264215 
L 199.292683 69.847745 
L 199.756652 69.827092 
L 200.220621 69.929618 
L 200.68459 70.704082 
L 201.148559 70.182235 
L 201.612528 70.640216 
L 202.076497 70.569574 
L 202.540466 70.620089 
L 203.004435 71.382181 
L 204.396341 71.419943 
L 204.86031 72.105539 
L 205.324279 71.660868 
L 205.788248 71.982304 
L 206.252217 71.719645 
L 206.716186 72.239097 
L 207.180155 72.3059 
L 207.644124 72.078226 
L 208.108093 72.774935 
L 208.572062 72.883424 
L 209.036031 72.804538 
L 209.963969 73.168057 
L 210.427938 72.977428 
L 210.891907 73.409268 
L 211.355876 73.223836 
L 212.747783 73.585348 
L 213.675721 73.680032 
L 214.603659 73.952444 
L 215.067627 73.856029 
L 215.995565 74.111593 
L 216.459534 74.118814 
L 216.923503 74.406863 
L 217.387472 74.388394 
L 219.243348 75.007648 
L 219.707317 74.909508 
L 220.635255 75.193716 
L 222.027162 75.312348 
L 222.491131 75.530321 
L 222.9551 75.567237 
L 224.347007 76.553988 
L 224.810976 76.458421 
L 225.274945 76.503406 
L 225.738914 76.374957 
L 226.202882 76.527486 
L 226.666851 76.534916 
L 227.13082 76.825635 
L 227.594789 77.254683 
L 228.058758 77.207788 
L 228.522727 77.566846 
L 228.986696 78.326551 
L 229.450665 78.347413 
L 229.914634 78.253866 
L 230.378603 77.887064 
L 230.842572 78.448442 
L 231.306541 78.273289 
L 231.77051 78.915441 
L 232.234479 79.012608 
L 232.698448 78.943418 
L 233.162417 80.144873 
L 233.626386 80.219205 
L 234.090355 80.70656 
L 234.554324 80.024515 
L 235.018293 80.730068 
L 235.482262 80.491412 
L 235.946231 79.556811 
L 236.4102 81.422298 
L 236.874169 81.00912 
L 237.338137 81.353479 
L 237.802106 80.776916 
L 238.266075 81.803595 
L 238.730044 81.417245 
L 239.657982 82.246462 
L 240.58592 82.458903 
L 241.049889 84.286675 
L 241.513858 84.57743 
L 241.977827 83.503749 
L 242.441796 83.744726 
L 242.905765 84.593956 
L 243.369734 84.561491 
L 243.833703 84.906316 
L 244.297672 85.059517 
L 244.761641 85.888503 
L 245.22561 85.008434 
L 245.689579 85.465891 
L 246.153548 87.022896 
L 246.617517 86.262841 
L 247.081486 86.656723 
L 247.545455 86.68975 
L 248.009424 85.457726 
L 248.473392 85.628515 
L 248.937361 84.508267 
L 249.40133 87.689243 
L 249.865299 87.56054 
L 250.329268 87.036129 
L 250.793237 88.135831 
L 251.257206 87.619164 
L 251.721175 87.537764 
L 252.185144 87.914878 
L 252.649113 89.455779 
L 253.113082 89.770764 
L 253.577051 90.955166 
L 254.04102 89.981923 
L 254.504989 91.411097 
L 254.968958 90.76167 
L 255.432927 90.90134 
L 255.896896 91.612078 
L 256.360865 92.110855 
L 256.824834 91.41405 
L 257.288803 91.994264 
L 257.752772 92.314602 
L 258.216741 91.596466 
L 258.68071 92.540322 
L 259.144678 92.203493 
L 259.608647 92.34686 
L 260.072616 93.34784 
L 260.536585 93.922337 
L 261.000554 95.207483 
L 261.464523 95.024242 
L 262.392461 95.234275 
L 262.85643 95.603481 
L 263.320399 95.347492 
L 263.784368 96.342368 
L 264.248337 96.514183 
L 265.176275 96.239038 
L 265.640244 98.999319 
L 266.568182 97.25426 
L 267.032151 100.829906 
L 267.49612 101.169635 
L 267.960089 103.516914 
L 268.424058 102.679698 
L 268.888027 102.576041 
L 269.351996 103.678513 
L 269.815965 102.172049 
L 270.279933 102.804562 
L 270.743902 102.134914 
L 271.207871 104.424638 
L 271.67184 103.211906 
L 272.135809 104.132642 
L 272.599778 103.816373 
L 273.063747 108.271791 
L 273.527716 106.732636 
L 273.991685 108.546861 
L 274.455654 111.557356 
L 274.919623 112.571373 
L 275.847561 112.513479 
L 276.31153 110.367961 
L 276.775499 118.33652 
L 277.239468 114.600055 
L 277.703437 113.2545 
L 278.167406 118.294933 
L 278.631375 119.026619 
L 279.095344 116.706414 
L 279.559313 117.060778 
L 280.023282 118.416556 
L 280.487251 117.52559 
L 280.95122 119.791454 
L 281.415188 119.006216 
L 281.879157 124.095967 
L 282.343126 121.562699 
L 282.807095 123.370259 
L 283.271064 123.355543 
L 283.735033 122.151607 
L 284.199002 123.341806 
L 284.662971 126.711636 
L 285.12694 124.340479 
L 286.054878 126.880607 
L 286.518847 125.08125 
L 286.982816 125.932666 
L 287.446785 129.292743 
L 287.910754 127.830112 
L 288.374723 127.695609 
L 288.838692 129.012442 
L 289.302661 134.869998 
L 289.76663 136.817746 
L 290.694568 130.748922 
L 291.158537 133.493485 
L 291.622506 133.79476 
L 292.086475 132.887279 
L 292.550443 134.846752 
L 293.014412 135.517937 
L 293.478381 133.927495 
L 294.406319 136.345879 
L 294.870288 134.604106 
L 295.334257 135.018361 
L 295.798226 137.144826 
L 296.262195 137.259328 
L 296.726164 136.563712 
L 297.190133 139.442286 
L 297.654102 140.79059 
L 298.118071 141.538565 
L 298.58204 140.334603 
L 299.046009 142.042452 
L 299.509978 142.595695 
L 299.973947 143.381476 
L 300.437916 145.192016 
L 300.901885 144.225006 
L 301.365854 143.608469 
L 301.829823 142.272101 
L 302.293792 144.582306 
L 302.757761 146.041965 
L 303.221729 146.222481 
L 303.685698 146.892436 
L 304.149667 147.179822 
L 304.613636 149.06679 
L 305.077605 149.997989 
L 305.541574 150.47041 
L 306.005543 149.549221 
L 306.469512 152.970584 
L 306.933481 154.004009 
L 307.39745 151.316094 
L 308.325388 153.915683 
L 308.789357 154.289872 
L 309.253326 156.01723 
L 309.717295 155.299526 
L 310.181264 158.926678 
L 310.645233 158.176162 
L 311.109202 158.130777 
L 311.573171 157.314288 
L 312.03714 157.140153 
L 313.429047 161.323498 
L 313.893016 161.472172 
L 314.356984 162.195045 
L 314.820953 164.275763 
L 315.284922 162.344905 
L 315.748891 163.129056 
L 316.21286 165.237049 
L 316.676829 164.169679 
L 317.140798 163.743423 
L 318.532705 171.044096 
L 318.996674 171.336486 
L 319.460643 169.885248 
L 319.924612 172.408633 
L 320.388581 171.926453 
L 320.85255 172.809195 
L 321.316519 172.945787 
L 321.780488 175.745425 
L 322.244457 175.679798 
L 322.708426 177.722068 
L 323.172395 179.181751 
L 323.636364 177.249947 
L 324.100333 179.424506 
L 324.564302 180.498596 
L 325.028271 180.066355 
L 325.492239 179.333696 
L 325.956208 182.250261 
L 326.420177 181.635427 
L 326.884146 185.265989 
L 327.348115 182.916388 
L 327.812084 182.339933 
L 328.276053 184.561273 
L 328.740022 182.625475 
L 329.203991 183.748481 
L 329.66796 186.89918 
L 330.131929 184.58602 
L 330.595898 184.627119 
L 331.059867 186.970734 
L 331.523836 185.999818 
L 331.987805 186.922638 
L 332.451774 189.344955 
L 332.915743 190.908402 
L 333.379712 189.276258 
L 333.843681 191.790523 
L 334.30765 195.953779 
L 334.771619 193.325252 
L 335.235588 194.258981 
L 335.699557 193.894794 
L 336.163525 192.593744 
L 336.627494 193.538221 
L 337.091463 193.635828 
L 337.555432 194.746578 
L 338.48337 199.577178 
L 338.947339 200.504854 
L 339.411308 199.188285 
L 339.875277 199.629123 
L 340.339246 201.276371 
L 340.803215 199.508535 
L 341.267184 200.572177 
L 341.731153 198.871608 
L 342.195122 200.365065 
L 342.659091 203.31847 
L 343.12306 202.870866 
L 343.587029 202.831563 
L 344.050998 204.423259 
L 344.514967 204.582934 
L 344.978936 204.240933 
L 345.442905 205.001528 
L 345.906874 207.020945 
L 346.370843 207.198099 
L 346.834812 206.141363 
L 347.29878 206.040051 
L 347.762749 209.409692 
L 348.226718 208.436358 
L 348.690687 211.123721 
L 349.154656 210.313889 
L 349.618625 209.130496 
L 350.082594 210.385053 
L 350.546563 211.974 
L 351.010532 215.915591 
L 351.474501 216.759402 
L 351.93847 215.830464 
L 352.402439 218.995996 
L 352.866408 218.573211 
L 353.330377 225.503657 
L 353.794346 219.888608 
L 354.258315 220.69885 
L 354.722284 218.844357 
L 355.186253 220.625031 
L 355.650222 219.963455 
L 356.114191 221.951129 
L 356.57816 223.068718 
L 357.042129 222.391931 
L 357.506098 221.935874 
L 357.970067 225.161197 
L 358.434035 224.426672 
L 358.898004 225.429422 
L 359.361973 227.431564 
L 359.825942 224.790928 
L 360.289911 227.424662 
L 360.75388 227.158873 
L 361.217849 229.378423 
L 361.681818 229.874489 
L 361.681818 229.874489 
" style="fill:none;stroke:#ff7f0e;stroke-linecap:square;stroke-width:1.5;"/>
   </g>
   <g id="line2d_17">
    <path clip-path="url(#p5fb9b8cf95)" d="M 57.318182 39.570188 
L 57.782151 41.150517 
L 58.24612 45.365858 
L 58.710089 44.147129 
L 59.174058 43.742826 
L 59.638027 44.75009 
L 60.101996 44.246049 
L 61.029933 48.557533 
L 61.493902 48.693787 
L 61.957871 49.954272 
L 62.42184 49.664322 
L 62.885809 49.880121 
L 63.349778 51.91742 
L 63.813747 52.334513 
L 64.277716 52.032343 
L 65.205654 51.916429 
L 65.669623 53.699651 
L 66.133592 54.169757 
L 66.597561 55.112147 
L 67.06153 54.547868 
L 67.525499 55.086573 
L 68.453437 55.434842 
L 68.917406 56.488255 
L 69.381375 56.797325 
L 69.845344 57.41335 
L 70.309313 57.512861 
L 70.773282 57.290967 
L 71.237251 58.006236 
L 71.70122 58.330923 
L 72.165188 58.446885 
L 72.629157 58.726478 
L 73.557095 58.530745 
L 74.485033 59.046481 
L 74.949002 58.97742 
L 75.412971 58.768963 
L 75.87694 59.053362 
L 76.340909 58.809299 
L 76.804878 59.134757 
L 77.268847 59.00541 
L 78.196785 59.0939 
L 78.660754 59.434204 
L 86.084257 60.065564 
L 89.796009 60.199633 
L 93.971729 60.405068 
L 94.899667 60.407406 
L 96.291574 60.498292 
L 101.395233 60.768171 
L 101.859202 60.673728 
L 102.323171 60.825365 
L 103.251109 60.850002 
L 103.715078 60.770523 
L 104.179047 60.869717 
L 105.106984 60.794885 
L 108.818736 61.137923 
L 110.674612 61.096362 
L 112.066519 61.367026 
L 112.530488 61.309265 
L 113.922395 61.431364 
L 115.314302 61.480041 
L 116.706208 61.656639 
L 118.562084 61.652976 
L 119.026053 61.699481 
L 119.490022 61.579021 
L 119.953991 61.664925 
L 120.881929 61.608222 
L 122.737805 61.759486 
L 123.665743 61.779105 
L 124.593681 61.885289 
L 128.305432 62.050959 
L 129.697339 62.162133 
L 132.481153 62.37166 
L 133.409091 62.408397 
L 134.337029 62.465357 
L 134.800998 62.337876 
L 135.264967 62.495608 
L 135.728936 62.377063 
L 136.192905 62.412077 
L 136.656874 62.26918 
L 137.120843 62.441527 
L 142.68847 62.909072 
L 143.616408 62.961582 
L 144.544346 63.010653 
L 145.472284 63.063834 
L 146.864191 63.1916 
L 150.111973 63.328733 
L 151.967849 63.307806 
L 152.895787 63.484253 
L 160.31929 64.157556 
L 161.247228 64.268427 
L 161.711197 64.19878 
L 162.175166 64.322733 
L 164.495011 64.325249 
L 166.350887 64.508021 
L 166.814856 64.623173 
L 167.278825 64.434165 
L 167.742794 64.398 
L 168.206763 64.690245 
L 168.670732 64.691312 
L 169.134701 64.960854 
L 170.062639 64.743379 
L 170.526608 64.845381 
L 170.990576 64.76827 
L 171.454545 65.066066 
L 172.382483 65.25759 
L 172.846452 65.26678 
L 173.77439 65.600679 
L 174.702328 65.751084 
L 175.166297 65.649012 
L 175.630266 65.7719 
L 176.094235 65.723293 
L 176.558204 65.856862 
L 177.022173 65.75788 
L 177.486142 65.979164 
L 179.805987 66.228564 
L 180.733925 66.002243 
L 181.197894 66.220217 
L 182.125831 66.09411 
L 182.5898 66.310749 
L 183.517738 66.475614 
L 183.981707 66.631638 
L 185.373614 66.637528 
L 185.837583 66.82332 
L 186.301552 66.849567 
L 186.765521 67.002197 
L 187.22949 67.034108 
L 187.693459 67.203648 
L 188.621397 67.230933 
L 189.085366 67.585802 
L 191.86918 67.446238 
L 192.333149 67.495456 
L 192.797118 68.054823 
L 193.261086 67.781779 
L 193.725055 68.081013 
L 194.189024 68.043265 
L 194.652993 67.803837 
L 195.116962 67.704606 
L 195.580931 68.280189 
L 196.0449 67.56561 
L 196.972838 67.25108 
L 197.900776 66.638733 
L 198.828714 68.063828 
L 199.292683 68.038426 
L 200.220621 68.692478 
L 200.68459 69.11522 
L 201.148559 69.307176 
L 201.612528 69.184682 
L 202.076497 70.050522 
L 202.540466 69.809104 
L 203.004435 70.395084 
L 203.468404 70.67944 
L 203.932373 70.617417 
L 204.396341 70.788605 
L 204.86031 70.727714 
L 205.788248 71.130635 
L 206.716186 71.399451 
L 207.180155 71.234803 
L 207.644124 71.403472 
L 208.108093 71.896964 
L 209.036031 72.483538 
L 209.5 72.30049 
L 210.427938 72.456215 
L 210.891907 72.439348 
L 211.355876 72.886659 
L 211.819845 72.989461 
L 212.283814 72.939428 
L 212.747783 73.017696 
L 213.675721 73.324414 
L 216.923503 73.940744 
L 217.387472 74.151186 
L 217.851441 74.080339 
L 218.31541 74.160315 
L 218.779379 74.481821 
L 219.707317 74.47424 
L 220.635255 74.523406 
L 221.099224 74.817566 
L 222.027162 74.950875 
L 222.491131 75.202479 
L 223.419069 75.21546 
L 224.347007 76.052094 
L 224.810976 76.053051 
L 225.738914 75.362347 
L 226.202882 76.064861 
L 226.666851 75.753162 
L 227.13082 76.23248 
L 227.594789 76.390237 
L 228.058758 76.144771 
L 228.522727 76.823762 
L 228.986696 77.25413 
L 229.450665 77.050209 
L 229.914634 77.265551 
L 230.378603 77.100927 
L 231.306541 77.162402 
L 231.77051 77.429072 
L 232.234479 78.28196 
L 232.698448 78.002293 
L 233.162417 78.215101 
L 233.626386 78.817664 
L 234.090355 79.015938 
L 234.554324 78.83924 
L 235.018293 78.885559 
L 235.482262 79.346891 
L 236.4102 78.529317 
L 236.874169 79.298762 
L 238.266075 79.969632 
L 238.730044 80.288118 
L 239.194013 80.852937 
L 239.657982 80.715927 
L 240.121951 81.179445 
L 240.58592 81.857759 
L 241.049889 82.072182 
L 241.513858 82.087183 
L 241.977827 82.501669 
L 242.441796 82.350453 
L 242.905765 83.657008 
L 243.369734 82.927015 
L 243.833703 83.553865 
L 244.297672 82.400399 
L 244.761641 83.76314 
L 245.689579 83.763689 
L 246.153548 84.635764 
L 246.617517 84.825898 
L 247.081486 84.435493 
L 247.545455 83.602878 
L 248.009424 84.133547 
L 248.473392 82.558982 
L 248.937361 83.712252 
L 249.40133 83.832273 
L 249.865299 85.588674 
L 250.793237 85.399185 
L 251.257206 86.519381 
L 251.721175 86.582771 
L 252.649113 87.211564 
L 253.577051 88.845718 
L 254.04102 88.925066 
L 254.504989 89.568522 
L 254.968958 88.836522 
L 255.432927 89.198168 
L 256.360865 90.423104 
L 256.824834 90.502266 
L 257.288803 90.164349 
L 257.752772 91.201333 
L 258.216741 90.937944 
L 258.68071 90.922508 
L 259.144678 91.057743 
L 259.608647 91.074671 
L 260.072616 92.42323 
L 260.536585 92.099595 
L 261.000554 92.386161 
L 261.464523 93.18883 
L 261.928492 93.36916 
L 262.392461 93.092515 
L 262.85643 94.998456 
L 263.320399 93.399575 
L 263.784368 93.237439 
L 264.248337 93.575252 
L 264.712306 93.582286 
L 265.176275 94.770069 
L 265.640244 94.40278 
L 266.104213 94.595022 
L 266.568182 94.920987 
L 267.960089 99.367386 
L 268.424058 98.432092 
L 268.888027 99.306338 
L 269.351996 99.309941 
L 269.815965 98.946077 
L 270.279933 98.883179 
L 271.207871 100.626491 
L 271.67184 101.451004 
L 272.135809 101.185095 
L 272.599778 101.936878 
L 273.063747 102.244059 
L 273.527716 103.13977 
L 274.455654 105.893205 
L 274.919623 107.25158 
L 275.383592 108.25522 
L 275.847561 108.944692 
L 276.31153 107.411815 
L 276.775499 108.515624 
L 277.239468 111.128978 
L 277.703437 111.123878 
L 278.167406 112.132573 
L 278.631375 114.802822 
L 279.095344 113.735516 
L 279.559313 115.110731 
L 280.023282 115.623979 
L 280.487251 115.821122 
L 280.95122 115.257472 
L 281.415188 115.70429 
L 281.879157 115.926655 
L 282.343126 117.974837 
L 283.271064 119.941615 
L 283.735033 119.519816 
L 284.199002 121.373274 
L 284.662971 121.771258 
L 285.12694 121.342196 
L 285.590909 121.397194 
L 286.054878 122.250018 
L 286.518847 124.019908 
L 286.982816 123.342721 
L 287.446785 124.127393 
L 287.910754 125.397615 
L 288.374723 125.256461 
L 288.838692 125.6457 
L 289.302661 127.728777 
L 290.230599 129.375234 
L 290.694568 129.126002 
L 291.158537 128.442588 
L 291.622506 131.206814 
L 292.086475 130.808592 
L 292.550443 133.349473 
L 293.014412 131.233249 
L 293.478381 131.3493 
L 293.94235 132.371076 
L 294.406319 133.713452 
L 294.870288 132.785043 
L 295.334257 133.035642 
L 296.262195 135.470263 
L 296.726164 135.014973 
L 297.190133 134.10489 
L 298.118071 136.94709 
L 299.046009 138.318397 
L 299.509978 137.9361 
L 299.973947 141.525118 
L 300.437916 140.524661 
L 300.901885 141.336964 
L 301.365854 142.525279 
L 301.829823 140.928023 
L 302.293792 140.943618 
L 302.757761 141.465587 
L 303.685698 144.843272 
L 304.149667 145.144412 
L 304.613636 144.641509 
L 305.077605 145.501084 
L 305.541574 147.958774 
L 306.005543 147.144258 
L 306.933481 150.808752 
L 307.39745 149.377272 
L 307.861419 149.089479 
L 308.325388 149.70134 
L 308.789357 151.910694 
L 309.253326 151.575508 
L 309.717295 151.523191 
L 310.181264 154.26688 
L 310.645233 153.418356 
L 311.109202 154.663987 
L 311.573171 155.171285 
L 312.03714 154.699658 
L 312.501109 156.350336 
L 312.965078 156.346513 
L 313.429047 156.933012 
L 313.893016 159.754896 
L 314.356984 158.960275 
L 314.820953 161.592194 
L 315.284922 159.985839 
L 315.748891 160.688487 
L 316.21286 162.484273 
L 316.676829 160.818294 
L 317.140798 160.927454 
L 317.604767 162.743858 
L 318.068736 163.493422 
L 318.532705 166.630802 
L 318.996674 165.146165 
L 319.924612 167.989007 
L 320.388581 168.775548 
L 320.85255 168.252094 
L 321.780488 171.532577 
L 322.244457 173.556 
L 322.708426 172.848493 
L 323.172395 174.920934 
L 323.636364 174.910985 
L 324.100333 175.133299 
L 324.564302 177.627933 
L 325.028271 178.10697 
L 325.492239 177.058613 
L 325.956208 178.194886 
L 326.420177 178.656144 
L 326.884146 177.978275 
L 327.348115 179.868771 
L 327.812084 179.697193 
L 328.276053 180.336134 
L 328.740022 180.298259 
L 329.203991 180.857635 
L 329.66796 182.094318 
L 330.131929 182.263112 
L 330.595898 182.939337 
L 331.059867 182.944857 
L 331.523836 182.738856 
L 331.987805 183.93686 
L 332.451774 186.218525 
L 332.915743 186.817759 
L 333.379712 186.995813 
L 333.843681 188.074153 
L 334.30765 190.1453 
L 334.771619 189.532333 
L 335.235588 188.724524 
L 335.699557 190.008173 
L 336.163525 190.747009 
L 336.627494 191.114635 
L 337.091463 192.049474 
L 337.555432 193.544769 
L 338.019401 193.570389 
L 338.48337 194.583004 
L 338.947339 195.283774 
L 339.411308 195.495059 
L 339.875277 194.647523 
L 340.339246 195.583398 
L 340.803215 196.261499 
L 341.267184 196.496602 
L 342.195122 196.618489 
L 343.12306 200.273611 
L 343.587029 200.347322 
L 344.050998 201.044982 
L 344.514967 202.05188 
L 344.978936 200.861105 
L 345.442905 201.453635 
L 346.370843 203.746541 
L 346.834812 204.851328 
L 347.29878 203.521912 
L 347.762749 204.527873 
L 348.226718 207.219032 
L 348.690687 206.653437 
L 349.154656 207.030628 
L 349.618625 207.845846 
L 350.082594 206.91019 
L 350.546563 207.618282 
L 351.010532 209.295937 
L 351.474501 209.764088 
L 351.93847 211.994544 
L 352.402439 213.09517 
L 352.866408 212.860411 
L 353.330377 214.144764 
L 353.794346 214.762403 
L 354.258315 216.385952 
L 354.722284 216.331976 
L 355.186253 215.515767 
L 355.650222 217.979664 
L 356.114191 218.558337 
L 356.57816 217.192898 
L 357.042129 218.951811 
L 357.506098 220.170002 
L 357.970067 220.389077 
L 358.434035 221.322845 
L 359.361973 222.520788 
L 359.825942 222.625596 
L 360.289911 223.436774 
L 360.75388 224.828731 
L 361.217849 225.663394 
L 361.681818 225.71086 
L 361.681818 225.71086 
" style="fill:none;stroke:#2ca02c;stroke-linecap:square;stroke-width:1.5;"/>
   </g>
   <g id="line2d_18">
    <path clip-path="url(#p5fb9b8cf95)" d="M 57.318182 32.201761 
L 57.782151 36.496966 
L 58.24612 39.539752 
L 58.710089 41.602158 
L 59.174058 40.941298 
L 59.638027 42.143629 
L 60.101996 39.356965 
L 60.565965 44.081976 
L 61.029933 44.137968 
L 61.493902 43.044153 
L 61.957871 47.919424 
L 62.42184 47.224059 
L 62.885809 47.272499 
L 63.349778 48.405197 
L 63.813747 48.269092 
L 64.277716 48.431262 
L 64.741685 50.054981 
L 65.205654 50.586978 
L 65.669623 50.850958 
L 66.133592 51.571809 
L 66.597561 52.841755 
L 67.06153 51.771467 
L 67.525499 53.344538 
L 67.989468 52.415223 
L 68.917406 54.947819 
L 69.845344 55.79434 
L 70.309313 56.607481 
L 70.773282 56.308713 
L 71.237251 57.075235 
L 72.165188 57.908539 
L 72.629157 57.346277 
L 73.557095 58.14753 
L 74.021064 57.374923 
L 74.485033 58.504066 
L 74.949002 58.325677 
L 75.412971 57.902982 
L 75.87694 58.365153 
L 76.340909 58.16003 
L 76.804878 58.513594 
L 77.268847 58.561041 
L 77.732816 58.404051 
L 78.196785 58.549192 
L 78.660754 58.931428 
L 79.124723 58.589228 
L 80.052661 59.233314 
L 80.51663 59.200033 
L 80.980599 59.37533 
L 81.444568 59.374061 
L 81.908537 59.636592 
L 82.372506 59.418525 
L 82.836475 59.656385 
L 83.300443 59.676019 
L 83.764412 59.828257 
L 84.228381 59.762556 
L 85.156319 59.936393 
L 85.620288 59.953453 
L 86.084257 59.687089 
L 86.548226 59.915877 
L 87.940133 60.000874 
L 88.404102 60.061902 
L 88.868071 59.985132 
L 89.33204 60.177338 
L 90.723947 60.013042 
L 91.187916 60.105779 
L 92.115854 59.995845 
L 92.579823 60.134978 
L 93.043792 60.144816 
L 93.507761 60.330537 
L 93.971729 60.228499 
L 94.435698 60.35555 
L 98.14745 60.288603 
L 99.075388 60.525317 
L 99.539357 60.5278 
L 100.467295 60.707836 
L 101.395233 60.544053 
L 101.859202 60.527657 
L 102.323171 60.623967 
L 104.643016 60.575798 
L 105.106984 60.670131 
L 105.570953 60.302364 
L 106.034922 60.742385 
L 107.890798 60.872868 
L 108.354767 60.714992 
L 108.818736 60.72747 
L 109.746674 61.021592 
L 110.210643 60.4582 
L 110.674612 60.981906 
L 111.138581 61.092905 
L 111.60255 61.008727 
L 112.994457 61.060929 
L 113.458426 61.304524 
L 116.242239 61.357529 
L 116.706208 61.301144 
L 117.170177 61.537945 
L 117.634146 61.39371 
L 118.098115 61.515446 
L 118.562084 61.391555 
L 119.026053 61.468614 
L 120.41796 61.395441 
L 120.881929 61.090528 
L 121.345898 61.506643 
L 122.273836 61.156061 
L 122.737805 61.257392 
L 123.665743 61.705033 
L 124.593681 61.781223 
L 125.521619 61.601616 
L 125.985588 61.844405 
L 126.449557 61.904438 
L 126.913525 61.757165 
L 127.841463 61.859407 
L 128.305432 61.773915 
L 130.625277 62.177081 
L 131.089246 62.078717 
L 134.337029 62.314622 
L 134.800998 61.846571 
L 135.264967 62.246445 
L 135.728936 61.984508 
L 136.192905 62.073053 
L 136.656874 61.188576 
L 137.120843 61.897414 
L 137.584812 61.88314 
L 138.976718 62.36082 
L 139.904656 62.175389 
L 140.368625 62.198884 
L 140.832594 62.003009 
L 141.296563 62.574876 
L 141.760532 62.3424 
L 142.224501 62.496571 
L 142.68847 62.790965 
L 144.080377 62.719655 
L 145.008315 62.922196 
L 145.472284 62.877946 
L 146.864191 63.073059 
L 147.32816 63.026326 
L 147.792129 63.141267 
L 148.256098 62.984588 
L 149.184035 63.233277 
L 149.648004 63.053862 
L 150.111973 63.263767 
L 150.575942 63.208482 
L 151.50388 62.798017 
L 152.431818 63.326945 
L 153.359756 63.179087 
L 153.823725 62.917788 
L 154.287694 63.412183 
L 155.679601 63.471545 
L 157.535477 63.603814 
L 157.999446 63.536599 
L 158.927384 63.907497 
L 160.31929 63.893783 
L 160.783259 64.078268 
L 162.175166 64.059907 
L 162.639135 63.91528 
L 163.103104 64.122422 
L 163.567073 63.62159 
L 164.031042 63.427915 
L 164.495011 64.05688 
L 165.422949 64.194654 
L 165.886918 64.369059 
L 166.350887 64.324949 
L 167.278825 63.604271 
L 167.742794 64.166733 
L 168.670732 64.096225 
L 169.134701 64.365231 
L 169.59867 63.989913 
L 170.062639 64.224069 
L 170.526608 64.072947 
L 170.990576 64.281531 
L 171.454545 64.64237 
L 171.918514 64.438146 
L 172.382483 64.933859 
L 172.846452 64.906946 
L 173.310421 65.127989 
L 173.77439 65.053168 
L 174.238359 64.525126 
L 174.702328 65.239697 
L 175.166297 65.19702 
L 176.558204 65.413551 
L 177.022173 65.197705 
L 177.486142 65.679251 
L 177.950111 65.689686 
L 178.41408 66.029474 
L 178.878049 65.322014 
L 179.342018 65.525056 
L 179.805987 65.937437 
L 180.269956 64.212002 
L 180.733925 65.553411 
L 181.197894 65.453652 
L 181.661863 65.18898 
L 182.125831 65.651271 
L 183.053769 65.566928 
L 183.517738 65.352343 
L 183.981707 66.119615 
L 184.445676 66.268213 
L 185.837583 65.885377 
L 187.22949 66.763141 
L 187.693459 66.771807 
L 188.157428 66.94129 
L 188.621397 66.619594 
L 189.085366 67.11567 
L 189.549335 67.04157 
L 190.013304 66.553901 
L 190.477273 66.402002 
L 191.405211 66.802093 
L 191.86918 67.134406 
L 192.333149 67.122601 
L 193.725055 67.512946 
L 194.189024 66.2262 
L 194.652993 66.62172 
L 195.116962 65.035197 
L 195.580931 67.033699 
L 196.0449 66.597216 
L 196.508869 65.586758 
L 196.972838 66.238862 
L 197.436807 62.835458 
L 197.900776 64.787693 
L 198.364745 62.080918 
L 198.828714 65.857567 
L 199.292683 65.531853 
L 199.756652 67.680882 
L 200.220621 66.888139 
L 200.68459 67.207098 
L 201.148559 67.876161 
L 201.612528 67.644195 
L 202.540466 68.563826 
L 203.004435 69.316437 
L 203.932373 68.967957 
L 204.396341 69.514212 
L 204.86031 69.561694 
L 205.324279 70.480506 
L 205.788248 70.548827 
L 206.252217 69.845621 
L 206.716186 71.034219 
L 207.180155 70.374312 
L 207.644124 71.10837 
L 208.108093 69.761101 
L 208.572062 71.381948 
L 209.5 71.922757 
L 209.963969 71.287861 
L 210.427938 71.530603 
L 210.891907 71.987327 
L 211.355876 72.163736 
L 211.819845 72.15594 
L 212.283814 72.668089 
L 212.747783 72.302328 
L 213.211752 72.814846 
L 213.675721 72.900269 
L 214.13969 73.102118 
L 214.603659 72.554026 
L 215.067627 73.374229 
L 215.531596 73.165819 
L 216.923503 73.617131 
L 217.387472 73.575191 
L 217.851441 73.209308 
L 218.31541 73.55792 
L 218.779379 74.054553 
L 219.243348 73.645271 
L 219.707317 73.696309 
L 221.563193 74.47926 
L 222.027162 74.089266 
L 222.491131 74.891723 
L 222.9551 74.619261 
L 223.883038 75.009061 
L 224.347007 75.315852 
L 224.810976 75.371023 
L 225.274945 74.267453 
L 226.202882 75.518494 
L 227.13082 75.38901 
L 227.594789 75.732452 
L 228.058758 75.588657 
L 228.522727 75.228628 
L 228.986696 76.037253 
L 229.914634 75.683225 
L 230.378603 74.738308 
L 230.842572 76.775105 
L 231.306541 76.022743 
L 232.698448 77.526075 
L 233.162417 77.319083 
L 234.090355 75.882612 
L 234.554324 76.675003 
L 235.018293 77.022015 
L 235.482262 76.851043 
L 236.4102 77.828234 
L 236.874169 77.376945 
L 237.338137 78.678026 
L 237.802106 78.962347 
L 238.266075 78.162192 
L 238.730044 78.384319 
L 239.194013 79.143833 
L 239.657982 78.735159 
L 240.121951 80.183298 
L 240.58592 78.531056 
L 241.049889 80.658457 
L 241.513858 79.851211 
L 241.977827 79.714306 
L 242.441796 81.502516 
L 242.905765 81.257582 
L 243.369734 82.063821 
L 243.833703 82.41154 
L 244.761641 78.768428 
L 245.689579 82.460579 
L 246.153548 81.162737 
L 246.617517 82.604831 
L 247.081486 82.241772 
L 248.009424 80.054548 
L 248.937361 81.516269 
L 249.40133 81.620807 
L 249.865299 83.703182 
L 250.329268 82.686392 
L 250.793237 82.359985 
L 251.257206 84.277492 
L 251.721175 81.41331 
L 252.185144 85.418019 
L 252.649113 85.161697 
L 253.113082 85.47738 
L 253.577051 86.87479 
L 254.04102 87.226554 
L 254.504989 88.301566 
L 254.968958 87.907069 
L 255.432927 87.998854 
L 255.896896 88.560459 
L 256.360865 87.544284 
L 256.824834 87.38845 
L 257.288803 87.597934 
L 257.752772 90.523611 
L 258.216741 88.903465 
L 258.68071 89.344406 
L 259.144678 89.441034 
L 259.608647 88.975096 
L 260.536585 90.934862 
L 261.000554 89.109741 
L 261.464523 88.861341 
L 261.928492 90.161714 
L 262.392461 90.39564 
L 262.85643 90.363123 
L 263.320399 91.713545 
L 263.784368 91.3901 
L 264.248337 90.575681 
L 264.712306 92.379356 
L 265.176275 91.116016 
L 265.640244 92.348613 
L 266.104213 91.749368 
L 266.568182 91.793674 
L 267.032151 92.772275 
L 267.49612 90.761984 
L 267.960089 95.847828 
L 268.424058 92.629271 
L 268.888027 96.349372 
L 269.351996 91.855891 
L 269.815965 94.867402 
L 270.743902 96.498768 
L 271.207871 95.867525 
L 272.599778 99.65226 
L 273.063747 97.17713 
L 273.527716 99.449497 
L 274.455654 102.479127 
L 275.383592 103.625366 
L 275.847561 105.688891 
L 276.31153 104.954858 
L 276.775499 106.01297 
L 277.239468 108.989588 
L 277.703437 107.266609 
L 278.167406 107.910988 
L 278.631375 111.461943 
L 279.095344 109.070684 
L 279.559313 110.540853 
L 280.023282 111.629992 
L 280.487251 113.890953 
L 280.95122 112.421398 
L 281.415188 113.804864 
L 281.879157 112.916069 
L 282.343126 115.942056 
L 282.807095 115.898031 
L 283.271064 116.636407 
L 283.735033 117.872505 
L 284.199002 117.320951 
L 284.662971 119.088787 
L 285.12694 117.733497 
L 285.590909 118.995622 
L 286.054878 118.403474 
L 286.518847 120.691763 
L 286.982816 120.344676 
L 287.446785 120.976872 
L 287.910754 122.457592 
L 288.374723 122.63771 
L 288.838692 122.991374 
L 289.302661 124.081198 
L 289.76663 125.883884 
L 290.230599 125.791105 
L 290.694568 127.442124 
L 291.158537 127.250919 
L 291.622506 127.64372 
L 292.086475 125.576247 
L 292.550443 128.926313 
L 293.014412 129.769513 
L 293.478381 129.315519 
L 293.94235 128.236676 
L 294.406319 130.769716 
L 294.870288 131.201042 
L 295.334257 130.93485 
L 295.798226 131.585399 
L 296.262195 132.490438 
L 296.726164 132.690389 
L 297.190133 130.141214 
L 297.654102 131.17658 
L 298.118071 130.89419 
L 298.58204 133.844158 
L 299.046009 133.442565 
L 299.973947 136.829836 
L 300.437916 135.847803 
L 300.901885 138.259811 
L 301.365854 139.629038 
L 301.829823 137.66775 
L 302.293792 139.143157 
L 302.757761 136.870365 
L 303.221729 141.228853 
L 303.685698 140.239415 
L 304.149667 142.178688 
L 304.613636 141.478171 
L 305.077605 142.225803 
L 305.541574 144.833315 
L 306.005543 143.423245 
L 306.933481 148.79245 
L 307.39745 147.210339 
L 307.861419 147.578532 
L 308.325388 144.302965 
L 308.789357 149.80869 
L 309.253326 148.301709 
L 309.717295 147.704487 
L 310.181264 148.793337 
L 310.645233 151.344209 
L 311.109202 153.260283 
L 311.573171 152.160074 
L 312.03714 153.307361 
L 312.965078 153.414376 
L 313.893016 156.435299 
L 314.356984 157.4261 
L 314.820953 157.388059 
L 315.284922 158.320738 
L 315.748891 158.172177 
L 316.21286 158.79731 
L 316.676829 158.274231 
L 317.140798 157.422184 
L 317.604767 160.172473 
L 318.068736 159.872157 
L 318.532705 162.394328 
L 318.996674 160.090248 
L 319.460643 163.063091 
L 320.85255 167.03233 
L 321.316519 167.304611 
L 321.780488 168.978052 
L 322.244457 168.117792 
L 322.708426 168.782377 
L 323.172395 172.14395 
L 323.636364 171.012445 
L 324.100333 173.015344 
L 324.564302 172.139549 
L 325.028271 175.736234 
L 325.492239 173.868673 
L 325.956208 174.980176 
L 326.420177 174.088732 
L 326.884146 176.959466 
L 327.348115 175.928097 
L 327.812084 177.253228 
L 328.276053 179.239863 
L 328.740022 179.578639 
L 329.203991 177.722678 
L 329.66796 179.648285 
L 330.131929 179.246346 
L 330.595898 180.438746 
L 331.059867 181.037766 
L 331.523836 181.228719 
L 331.987805 181.976045 
L 332.451774 181.518475 
L 332.915743 184.338254 
L 333.379712 184.381973 
L 333.843681 185.708823 
L 334.30765 186.503352 
L 334.771619 188.182819 
L 335.235588 186.439037 
L 335.699557 186.918089 
L 336.627494 188.890496 
L 337.091463 189.674054 
L 337.555432 190.227806 
L 338.019401 189.136568 
L 338.48337 192.846571 
L 338.947339 191.62032 
L 339.411308 193.410189 
L 339.875277 193.038146 
L 340.803215 193.691032 
L 341.731153 193.083637 
L 342.195122 194.50818 
L 342.659091 193.686522 
L 343.12306 197.35516 
L 343.587029 197.817966 
L 344.050998 197.35243 
L 344.514967 198.929029 
L 344.978936 199.92085 
L 345.442905 197.486361 
L 345.906874 200.831869 
L 346.370843 202.430813 
L 346.834812 202.332606 
L 347.29878 201.151223 
L 347.762749 201.744821 
L 348.226718 203.238691 
L 348.690687 202.802477 
L 349.154656 204.149236 
L 349.618625 203.908613 
L 350.082594 205.730584 
L 350.546563 205.999276 
L 351.010532 205.98819 
L 351.474501 207.874627 
L 351.93847 208.610325 
L 352.402439 208.682095 
L 352.866408 209.473883 
L 353.330377 209.150563 
L 353.794346 212.541167 
L 354.258315 212.018798 
L 355.186253 212.941253 
L 356.114191 215.811266 
L 356.57816 216.176872 
L 357.042129 216.189843 
L 357.506098 214.739435 
L 358.434035 219.105769 
L 358.898004 218.794483 
L 359.361973 221.08078 
L 359.825942 220.983917 
L 360.289911 222.605712 
L 360.75388 222.160419 
L 361.217849 220.990883 
L 361.681818 224.207576 
L 361.681818 224.207576 
" style="fill:none;stroke:#d62728;stroke-linecap:square;stroke-width:1.5;"/>
   </g>
   <g id="patch_3">
    <path d="M 42.1 239.758125 
L 42.1 22.318125 
" style="fill:none;stroke:#000000;stroke-linecap:square;stroke-linejoin:miter;stroke-width:0.8;"/>
   </g>
   <g id="patch_4">
    <path d="M 376.9 239.758125 
L 376.9 22.318125 
" style="fill:none;stroke:#000000;stroke-linecap:square;stroke-linejoin:miter;stroke-width:0.8;"/>
   </g>
   <g id="patch_5">
    <path d="M 42.1 239.758125 
L 376.9 239.758125 
" style="fill:none;stroke:#000000;stroke-linecap:square;stroke-linejoin:miter;stroke-width:0.8;"/>
   </g>
   <g id="patch_6">
    <path d="M 42.1 22.318125 
L 376.9 22.318125 
" style="fill:none;stroke:#000000;stroke-linecap:square;stroke-linejoin:miter;stroke-width:0.8;"/>
   </g>
   <g id="text_16">
    <!-- Objective function -->
    <g transform="translate(154.631875 16.318125)scale(0.12 -0.12)">
     <defs>
      <path d="M 39.40625 66.21875 
Q 28.65625 66.21875 22.328125 58.203125 
Q 16.015625 50.203125 16.015625 36.375 
Q 16.015625 22.609375 22.328125 14.59375 
Q 28.65625 6.59375 39.40625 6.59375 
Q 50.140625 6.59375 56.421875 14.59375 
Q 62.703125 22.609375 62.703125 36.375 
Q 62.703125 50.203125 56.421875 58.203125 
Q 50.140625 66.21875 39.40625 66.21875 
z
M 39.40625 74.21875 
Q 54.734375 74.21875 63.90625 63.9375 
Q 73.09375 53.65625 73.09375 36.375 
Q 73.09375 19.140625 63.90625 8.859375 
Q 54.734375 -1.421875 39.40625 -1.421875 
Q 24.03125 -1.421875 14.8125 8.828125 
Q 5.609375 19.09375 5.609375 36.375 
Q 5.609375 53.65625 14.8125 63.9375 
Q 24.03125 74.21875 39.40625 74.21875 
z
" id="DejaVuSans-79"/>
      <path d="M 48.6875 27.296875 
Q 48.6875 37.203125 44.609375 42.84375 
Q 40.53125 48.484375 33.40625 48.484375 
Q 26.265625 48.484375 22.1875 42.84375 
Q 18.109375 37.203125 18.109375 27.296875 
Q 18.109375 17.390625 22.1875 11.75 
Q 26.265625 6.109375 33.40625 6.109375 
Q 40.53125 6.109375 44.609375 11.75 
Q 48.6875 17.390625 48.6875 27.296875 
z
M 18.109375 46.390625 
Q 20.953125 51.265625 25.265625 53.625 
Q 29.59375 56 35.59375 56 
Q 45.5625 56 51.78125 48.09375 
Q 58.015625 40.1875 58.015625 27.296875 
Q 58.015625 14.40625 51.78125 6.484375 
Q 45.5625 -1.421875 35.59375 -1.421875 
Q 29.59375 -1.421875 25.265625 0.953125 
Q 20.953125 3.328125 18.109375 8.203125 
L 18.109375 0 
L 9.078125 0 
L 9.078125 75.984375 
L 18.109375 75.984375 
z
" id="DejaVuSans-98"/>
      <path d="M 9.421875 54.6875 
L 18.40625 54.6875 
L 18.40625 -0.984375 
Q 18.40625 -11.421875 14.421875 -16.109375 
Q 10.453125 -20.796875 1.609375 -20.796875 
L -1.8125 -20.796875 
L -1.8125 -13.1875 
L 0.59375 -13.1875 
Q 5.71875 -13.1875 7.5625 -10.8125 
Q 9.421875 -8.453125 9.421875 -0.984375 
z
M 9.421875 75.984375 
L 18.40625 75.984375 
L 18.40625 64.59375 
L 9.421875 64.59375 
z
" id="DejaVuSans-106"/>
      <path d="M 48.78125 52.59375 
L 48.78125 44.1875 
Q 44.96875 46.296875 41.140625 47.34375 
Q 37.3125 48.390625 33.40625 48.390625 
Q 24.65625 48.390625 19.8125 42.84375 
Q 14.984375 37.3125 14.984375 27.296875 
Q 14.984375 17.28125 19.8125 11.734375 
Q 24.65625 6.203125 33.40625 6.203125 
Q 37.3125 6.203125 41.140625 7.25 
Q 44.96875 8.296875 48.78125 10.40625 
L 48.78125 2.09375 
Q 45.015625 0.34375 40.984375 -0.53125 
Q 36.96875 -1.421875 32.421875 -1.421875 
Q 20.0625 -1.421875 12.78125 6.34375 
Q 5.515625 14.109375 5.515625 27.296875 
Q 5.515625 40.671875 12.859375 48.328125 
Q 20.21875 56 33.015625 56 
Q 37.15625 56 41.109375 55.140625 
Q 45.0625 54.296875 48.78125 52.59375 
z
" id="DejaVuSans-99"/>
      <path d="M 18.3125 70.21875 
L 18.3125 54.6875 
L 36.8125 54.6875 
L 36.8125 47.703125 
L 18.3125 47.703125 
L 18.3125 18.015625 
Q 18.3125 11.328125 20.140625 9.421875 
Q 21.96875 7.515625 27.59375 7.515625 
L 36.8125 7.515625 
L 36.8125 0 
L 27.59375 0 
Q 17.1875 0 13.234375 3.875 
Q 9.28125 7.765625 9.28125 18.015625 
L 9.28125 47.703125 
L 2.6875 47.703125 
L 2.6875 54.6875 
L 9.28125 54.6875 
L 9.28125 70.21875 
z
" id="DejaVuSans-116"/>
      <path d="M 9.421875 54.6875 
L 18.40625 54.6875 
L 18.40625 0 
L 9.421875 0 
z
M 9.421875 75.984375 
L 18.40625 75.984375 
L 18.40625 64.59375 
L 9.421875 64.59375 
z
" id="DejaVuSans-105"/>
      <path id="DejaVuSans-32"/>
      <path d="M 37.109375 75.984375 
L 37.109375 68.5 
L 28.515625 68.5 
Q 23.6875 68.5 21.796875 66.546875 
Q 19.921875 64.59375 19.921875 59.515625 
L 19.921875 54.6875 
L 34.71875 54.6875 
L 34.71875 47.703125 
L 19.921875 47.703125 
L 19.921875 0 
L 10.890625 0 
L 10.890625 47.703125 
L 2.296875 47.703125 
L 2.296875 54.6875 
L 10.890625 54.6875 
L 10.890625 58.5 
Q 10.890625 67.625 15.140625 71.796875 
Q 19.390625 75.984375 28.609375 75.984375 
z
" id="DejaVuSans-102"/>
      <path d="M 8.5 21.578125 
L 8.5 54.6875 
L 17.484375 54.6875 
L 17.484375 21.921875 
Q 17.484375 14.15625 20.5 10.265625 
Q 23.53125 6.390625 29.59375 6.390625 
Q 36.859375 6.390625 41.078125 11.03125 
Q 45.3125 15.671875 45.3125 23.6875 
L 45.3125 54.6875 
L 54.296875 54.6875 
L 54.296875 0 
L 45.3125 0 
L 45.3125 8.40625 
Q 42.046875 3.421875 37.71875 1 
Q 33.40625 -1.421875 27.6875 -1.421875 
Q 18.265625 -1.421875 13.375 4.4375 
Q 8.5 10.296875 8.5 21.578125 
z
M 31.109375 56 
z
" id="DejaVuSans-117"/>
      <path d="M 54.890625 33.015625 
L 54.890625 0 
L 45.90625 0 
L 45.90625 32.71875 
Q 45.90625 40.484375 42.875 44.328125 
Q 39.84375 48.1875 33.796875 48.1875 
Q 26.515625 48.1875 22.3125 43.546875 
Q 18.109375 38.921875 18.109375 30.90625 
L 18.109375 0 
L 9.078125 0 
L 9.078125 54.6875 
L 18.109375 54.6875 
L 18.109375 46.1875 
Q 21.34375 51.125 25.703125 53.5625 
Q 30.078125 56 35.796875 56 
Q 45.21875 56 50.046875 50.171875 
Q 54.890625 44.34375 54.890625 33.015625 
z
" id="DejaVuSans-110"/>
      <path d="M 30.609375 48.390625 
Q 23.390625 48.390625 19.1875 42.75 
Q 14.984375 37.109375 14.984375 27.296875 
Q 14.984375 17.484375 19.15625 11.84375 
Q 23.34375 6.203125 30.609375 6.203125 
Q 37.796875 6.203125 41.984375 11.859375 
Q 46.1875 17.53125 46.1875 27.296875 
Q 46.1875 37.015625 41.984375 42.703125 
Q 37.796875 48.390625 30.609375 48.390625 
z
M 30.609375 56 
Q 42.328125 56 49.015625 48.375 
Q 55.71875 40.765625 55.71875 27.296875 
Q 55.71875 13.875 49.015625 6.21875 
Q 42.328125 -1.421875 30.609375 -1.421875 
Q 18.84375 -1.421875 12.171875 6.21875 
Q 5.515625 13.875 5.515625 27.296875 
Q 5.515625 40.765625 12.171875 48.375 
Q 18.84375 56 30.609375 56 
z
" id="DejaVuSans-111"/>
     </defs>
     <use xlink:href="#DejaVuSans-79"/>
     <use x="78.710938" xlink:href="#DejaVuSans-98"/>
     <use x="142.1875" xlink:href="#DejaVuSans-106"/>
     <use x="169.970703" xlink:href="#DejaVuSans-101"/>
     <use x="231.494141" xlink:href="#DejaVuSans-99"/>
     <use x="286.474609" xlink:href="#DejaVuSans-116"/>
     <use x="325.683594" xlink:href="#DejaVuSans-105"/>
     <use x="353.466797" xlink:href="#DejaVuSans-118"/>
     <use x="412.646484" xlink:href="#DejaVuSans-101"/>
     <use x="474.169922" xlink:href="#DejaVuSans-32"/>
     <use x="505.957031" xlink:href="#DejaVuSans-102"/>
     <use x="541.162109" xlink:href="#DejaVuSans-117"/>
     <use x="604.541016" xlink:href="#DejaVuSans-110"/>
     <use x="667.919922" xlink:href="#DejaVuSans-99"/>
     <use x="722.900391" xlink:href="#DejaVuSans-116"/>
     <use x="762.109375" xlink:href="#DejaVuSans-105"/>
     <use x="789.892578" xlink:href="#DejaVuSans-111"/>
     <use x="851.074219" xlink:href="#DejaVuSans-110"/>
    </g>
   </g>
   <g id="legend_1">
    <g id="patch_7">
     <path d="M 290.754688 89.030625 
L 369.9 89.030625 
Q 371.9 89.030625 371.9 87.030625 
L 371.9 29.318125 
Q 371.9 27.318125 369.9 27.318125 
L 290.754688 27.318125 
Q 288.754688 27.318125 288.754688 29.318125 
L 288.754688 87.030625 
Q 288.754688 89.030625 290.754688 89.030625 
z
" style="fill:#ffffff;opacity:0.8;stroke:#cccccc;stroke-linejoin:miter;"/>
    </g>
    <g id="line2d_19">
     <path d="M 292.754688 35.416562 
L 312.754688 35.416562 
" style="fill:none;stroke:#1f77b4;stroke-linecap:square;stroke-width:1.5;"/>
    </g>
    <g id="line2d_20"/>
    <g id="text_17">
     <!-- best ever -->
     <g transform="translate(320.754688 38.916562)scale(0.1 -0.1)">
      <defs>
       <path d="M 41.109375 46.296875 
Q 39.59375 47.171875 37.8125 47.578125 
Q 36.03125 48 33.890625 48 
Q 26.265625 48 22.1875 43.046875 
Q 18.109375 38.09375 18.109375 28.8125 
L 18.109375 0 
L 9.078125 0 
L 9.078125 54.6875 
L 18.109375 54.6875 
L 18.109375 46.1875 
Q 20.953125 51.171875 25.484375 53.578125 
Q 30.03125 56 36.53125 56 
Q 37.453125 56 38.578125 55.875 
Q 39.703125 55.765625 41.0625 55.515625 
z
" id="DejaVuSans-114"/>
      </defs>
      <use xlink:href="#DejaVuSans-98"/>
      <use x="63.476562" xlink:href="#DejaVuSans-101"/>
      <use x="125" xlink:href="#DejaVuSans-115"/>
      <use x="177.099609" xlink:href="#DejaVuSans-116"/>
      <use x="216.308594" xlink:href="#DejaVuSans-32"/>
      <use x="248.095703" xlink:href="#DejaVuSans-101"/>
      <use x="309.619141" xlink:href="#DejaVuSans-118"/>
      <use x="368.798828" xlink:href="#DejaVuSans-101"/>
      <use x="430.322266" xlink:href="#DejaVuSans-114"/>
     </g>
    </g>
    <g id="line2d_21">
     <path d="M 292.754688 50.094687 
L 312.754688 50.094687 
" style="fill:none;stroke:#ff7f0e;stroke-linecap:square;stroke-width:1.5;"/>
    </g>
    <g id="line2d_22"/>
    <g id="text_18">
     <!-- best -->
     <g transform="translate(320.754688 53.594687)scale(0.1 -0.1)">
      <use xlink:href="#DejaVuSans-98"/>
      <use x="63.476562" xlink:href="#DejaVuSans-101"/>
      <use x="125" xlink:href="#DejaVuSans-115"/>
      <use x="177.099609" xlink:href="#DejaVuSans-116"/>
     </g>
    </g>
    <g id="line2d_23">
     <path d="M 292.754688 64.772812 
L 312.754688 64.772812 
" style="fill:none;stroke:#2ca02c;stroke-linecap:square;stroke-width:1.5;"/>
    </g>
    <g id="line2d_24"/>
    <g id="text_19">
     <!-- median -->
     <g transform="translate(320.754688 68.272812)scale(0.1 -0.1)">
      <defs>
       <path d="M 52 44.1875 
Q 55.375 50.25 60.0625 53.125 
Q 64.75 56 71.09375 56 
Q 79.640625 56 84.28125 50.015625 
Q 88.921875 44.046875 88.921875 33.015625 
L 88.921875 0 
L 79.890625 0 
L 79.890625 32.71875 
Q 79.890625 40.578125 77.09375 44.375 
Q 74.3125 48.1875 68.609375 48.1875 
Q 61.625 48.1875 57.5625 43.546875 
Q 53.515625 38.921875 53.515625 30.90625 
L 53.515625 0 
L 44.484375 0 
L 44.484375 32.71875 
Q 44.484375 40.625 41.703125 44.40625 
Q 38.921875 48.1875 33.109375 48.1875 
Q 26.21875 48.1875 22.15625 43.53125 
Q 18.109375 38.875 18.109375 30.90625 
L 18.109375 0 
L 9.078125 0 
L 9.078125 54.6875 
L 18.109375 54.6875 
L 18.109375 46.1875 
Q 21.1875 51.21875 25.484375 53.609375 
Q 29.78125 56 35.6875 56 
Q 41.65625 56 45.828125 52.96875 
Q 50 49.953125 52 44.1875 
z
" id="DejaVuSans-109"/>
       <path d="M 45.40625 46.390625 
L 45.40625 75.984375 
L 54.390625 75.984375 
L 54.390625 0 
L 45.40625 0 
L 45.40625 8.203125 
Q 42.578125 3.328125 38.25 0.953125 
Q 33.9375 -1.421875 27.875 -1.421875 
Q 17.96875 -1.421875 11.734375 6.484375 
Q 5.515625 14.40625 5.515625 27.296875 
Q 5.515625 40.1875 11.734375 48.09375 
Q 17.96875 56 27.875 56 
Q 33.9375 56 38.25 53.625 
Q 42.578125 51.265625 45.40625 46.390625 
z
M 14.796875 27.296875 
Q 14.796875 17.390625 18.875 11.75 
Q 22.953125 6.109375 30.078125 6.109375 
Q 37.203125 6.109375 41.296875 11.75 
Q 45.40625 17.390625 45.40625 27.296875 
Q 45.40625 37.203125 41.296875 42.84375 
Q 37.203125 48.484375 30.078125 48.484375 
Q 22.953125 48.484375 18.875 42.84375 
Q 14.796875 37.203125 14.796875 27.296875 
z
" id="DejaVuSans-100"/>
      </defs>
      <use xlink:href="#DejaVuSans-109"/>
      <use x="97.412109" xlink:href="#DejaVuSans-101"/>
      <use x="158.935547" xlink:href="#DejaVuSans-100"/>
      <use x="222.412109" xlink:href="#DejaVuSans-105"/>
      <use x="250.195312" xlink:href="#DejaVuSans-97"/>
      <use x="311.474609" xlink:href="#DejaVuSans-110"/>
     </g>
    </g>
    <g id="line2d_25">
     <path d="M 292.754688 79.450938 
L 312.754688 79.450938 
" style="fill:none;stroke:#d62728;stroke-linecap:square;stroke-width:1.5;"/>
    </g>
    <g id="line2d_26"/>
    <g id="text_20">
     <!-- worst -->
     <g transform="translate(320.754688 82.950938)scale(0.1 -0.1)">
      <defs>
       <path d="M 4.203125 54.6875 
L 13.1875 54.6875 
L 24.421875 12.015625 
L 35.59375 54.6875 
L 46.1875 54.6875 
L 57.421875 12.015625 
L 68.609375 54.6875 
L 77.59375 54.6875 
L 63.28125 0 
L 52.6875 0 
L 40.921875 44.828125 
L 29.109375 0 
L 18.5 0 
z
" id="DejaVuSans-119"/>
      </defs>
      <use xlink:href="#DejaVuSans-119"/>
      <use x="81.787109" xlink:href="#DejaVuSans-111"/>
      <use x="142.96875" xlink:href="#DejaVuSans-114"/>
      <use x="184.082031" xlink:href="#DejaVuSans-115"/>
      <use x="236.181641" xlink:href="#DejaVuSans-116"/>
     </g>
    </g>
   </g>
  </g>
 </g>
 <defs>
  <clipPath id="p5fb9b8cf95">
   <rect height="217.44" width="334.8" x="42.1" y="22.318125"/>
  </clipPath>
 </defs>
</svg>
