<?xml version="1.0" encoding="utf-8" standalone="no"?>
<!DOCTYPE svg PUBLIC "-//W3C//DTD SVG 1.1//EN"
  "http://www.w3.org/Graphics/SVG/1.1/DTD/svg11.dtd">
<!-- Created with matplotlib (https://matplotlib.org/) -->
<svg height="277.314375pt" version="1.1" viewBox="0 0 379.7 277.314375" width="379.7pt" xmlns="http://www.w3.org/2000/svg" xmlns:xlink="http://www.w3.org/1999/xlink">
 <metadata>
  <rdf:RDF xmlns:cc="http://creativecommons.org/ns#" xmlns:dc="http://purl.org/dc/elements/1.1/" xmlns:rdf="http://www.w3.org/1999/02/22-rdf-syntax-ns#">
   <cc:Work>
    <dc:type rdf:resource="http://purl.org/dc/dcmitype/StillImage"/>
    <dc:date>2021-02-02T12:44:48.947740</dc:date>
    <dc:format>image/svg+xml</dc:format>
    <dc:creator>
     <cc:Agent>
      <dc:title>Matplotlib v3.3.3, https://matplotlib.org/</dc:title>
     </cc:Agent>
    </dc:creator>
   </cc:Work>
  </rdf:RDF>
 </metadata>
 <defs>
  <style type="text/css">*{stroke-linecap:butt;stroke-linejoin:round;}</style>
 </defs>
 <g id="figure_1">
  <g id="patch_1">
   <path d="M 0 277.314375 
L 379.7 277.314375 
L 379.7 0 
L 0 0 
z
" style="fill:none;"/>
  </g>
  <g id="axes_1">
   <g id="patch_2">
    <path d="M 37.7 239.758125 
L 372.5 239.758125 
L 372.5 22.318125 
L 37.7 22.318125 
z
" style="fill:#ffffff;"/>
   </g>
   <g id="matplotlib.axis_1">
    <g id="xtick_1">
     <g id="line2d_1">
      <defs>
       <path d="M 0 0 
L 0 3.5 
" id="m278d19aac4" style="stroke:#000000;stroke-width:0.8;"/>
      </defs>
      <g>
       <use style="stroke:#000000;stroke-width:0.8;" x="52.454213" xlink:href="#m278d19aac4" y="239.758125"/>
      </g>
     </g>
     <g id="text_1">
      <!-- 0 -->
      <g transform="translate(49.272963 254.356562)scale(0.1 -0.1)">
       <defs>
        <path d="M 31.78125 66.40625 
Q 24.171875 66.40625 20.328125 58.90625 
Q 16.5 51.421875 16.5 36.375 
Q 16.5 21.390625 20.328125 13.890625 
Q 24.171875 6.390625 31.78125 6.390625 
Q 39.453125 6.390625 43.28125 13.890625 
Q 47.125 21.390625 47.125 36.375 
Q 47.125 51.421875 43.28125 58.90625 
Q 39.453125 66.40625 31.78125 66.40625 
z
M 31.78125 74.21875 
Q 44.046875 74.21875 50.515625 64.515625 
Q 56.984375 54.828125 56.984375 36.375 
Q 56.984375 17.96875 50.515625 8.265625 
Q 44.046875 -1.421875 31.78125 -1.421875 
Q 19.53125 -1.421875 13.0625 8.265625 
Q 6.59375 17.96875 6.59375 36.375 
Q 6.59375 54.828125 13.0625 64.515625 
Q 19.53125 74.21875 31.78125 74.21875 
z
" id="DejaVuSans-48"/>
       </defs>
       <use xlink:href="#DejaVuSans-48"/>
      </g>
     </g>
    </g>
    <g id="xtick_2">
     <g id="line2d_2">
      <g>
       <use style="stroke:#000000;stroke-width:0.8;" x="94.633209" xlink:href="#m278d19aac4" y="239.758125"/>
      </g>
     </g>
     <g id="text_2">
      <!-- 1000 -->
      <g transform="translate(81.908209 254.356562)scale(0.1 -0.1)">
       <defs>
        <path d="M 12.40625 8.296875 
L 28.515625 8.296875 
L 28.515625 63.921875 
L 10.984375 60.40625 
L 10.984375 69.390625 
L 28.421875 72.90625 
L 38.28125 72.90625 
L 38.28125 8.296875 
L 54.390625 8.296875 
L 54.390625 0 
L 12.40625 0 
z
" id="DejaVuSans-49"/>
       </defs>
       <use xlink:href="#DejaVuSans-49"/>
       <use x="63.623047" xlink:href="#DejaVuSans-48"/>
       <use x="127.246094" xlink:href="#DejaVuSans-48"/>
       <use x="190.869141" xlink:href="#DejaVuSans-48"/>
      </g>
     </g>
    </g>
    <g id="xtick_3">
     <g id="line2d_3">
      <g>
       <use style="stroke:#000000;stroke-width:0.8;" x="136.812205" xlink:href="#m278d19aac4" y="239.758125"/>
      </g>
     </g>
     <g id="text_3">
      <!-- 2000 -->
      <g transform="translate(124.087205 254.356562)scale(0.1 -0.1)">
       <defs>
        <path d="M 19.1875 8.296875 
L 53.609375 8.296875 
L 53.609375 0 
L 7.328125 0 
L 7.328125 8.296875 
Q 12.9375 14.109375 22.625 23.890625 
Q 32.328125 33.6875 34.8125 36.53125 
Q 39.546875 41.84375 41.421875 45.53125 
Q 43.3125 49.21875 43.3125 52.78125 
Q 43.3125 58.59375 39.234375 62.25 
Q 35.15625 65.921875 28.609375 65.921875 
Q 23.96875 65.921875 18.8125 64.3125 
Q 13.671875 62.703125 7.8125 59.421875 
L 7.8125 69.390625 
Q 13.765625 71.78125 18.9375 73 
Q 24.125 74.21875 28.421875 74.21875 
Q 39.75 74.21875 46.484375 68.546875 
Q 53.21875 62.890625 53.21875 53.421875 
Q 53.21875 48.921875 51.53125 44.890625 
Q 49.859375 40.875 45.40625 35.40625 
Q 44.1875 33.984375 37.640625 27.21875 
Q 31.109375 20.453125 19.1875 8.296875 
z
" id="DejaVuSans-50"/>
       </defs>
       <use xlink:href="#DejaVuSans-50"/>
       <use x="63.623047" xlink:href="#DejaVuSans-48"/>
       <use x="127.246094" xlink:href="#DejaVuSans-48"/>
       <use x="190.869141" xlink:href="#DejaVuSans-48"/>
      </g>
     </g>
    </g>
    <g id="xtick_4">
     <g id="line2d_4">
      <g>
       <use style="stroke:#000000;stroke-width:0.8;" x="178.991201" xlink:href="#m278d19aac4" y="239.758125"/>
      </g>
     </g>
     <g id="text_4">
      <!-- 3000 -->
      <g transform="translate(166.266201 254.356562)scale(0.1 -0.1)">
       <defs>
        <path d="M 40.578125 39.3125 
Q 47.65625 37.796875 51.625 33 
Q 55.609375 28.21875 55.609375 21.1875 
Q 55.609375 10.40625 48.1875 4.484375 
Q 40.765625 -1.421875 27.09375 -1.421875 
Q 22.515625 -1.421875 17.65625 -0.515625 
Q 12.796875 0.390625 7.625 2.203125 
L 7.625 11.71875 
Q 11.71875 9.328125 16.59375 8.109375 
Q 21.484375 6.890625 26.8125 6.890625 
Q 36.078125 6.890625 40.9375 10.546875 
Q 45.796875 14.203125 45.796875 21.1875 
Q 45.796875 27.640625 41.28125 31.265625 
Q 36.765625 34.90625 28.71875 34.90625 
L 20.21875 34.90625 
L 20.21875 43.015625 
L 29.109375 43.015625 
Q 36.375 43.015625 40.234375 45.921875 
Q 44.09375 48.828125 44.09375 54.296875 
Q 44.09375 59.90625 40.109375 62.90625 
Q 36.140625 65.921875 28.71875 65.921875 
Q 24.65625 65.921875 20.015625 65.03125 
Q 15.375 64.15625 9.8125 62.3125 
L 9.8125 71.09375 
Q 15.4375 72.65625 20.34375 73.4375 
Q 25.25 74.21875 29.59375 74.21875 
Q 40.828125 74.21875 47.359375 69.109375 
Q 53.90625 64.015625 53.90625 55.328125 
Q 53.90625 49.265625 50.4375 45.09375 
Q 46.96875 40.921875 40.578125 39.3125 
z
" id="DejaVuSans-51"/>
       </defs>
       <use xlink:href="#DejaVuSans-51"/>
       <use x="63.623047" xlink:href="#DejaVuSans-48"/>
       <use x="127.246094" xlink:href="#DejaVuSans-48"/>
       <use x="190.869141" xlink:href="#DejaVuSans-48"/>
      </g>
     </g>
    </g>
    <g id="xtick_5">
     <g id="line2d_5">
      <g>
       <use style="stroke:#000000;stroke-width:0.8;" x="221.170198" xlink:href="#m278d19aac4" y="239.758125"/>
      </g>
     </g>
     <g id="text_5">
      <!-- 4000 -->
      <g transform="translate(208.445198 254.356562)scale(0.1 -0.1)">
       <defs>
        <path d="M 37.796875 64.3125 
L 12.890625 25.390625 
L 37.796875 25.390625 
z
M 35.203125 72.90625 
L 47.609375 72.90625 
L 47.609375 25.390625 
L 58.015625 25.390625 
L 58.015625 17.1875 
L 47.609375 17.1875 
L 47.609375 0 
L 37.796875 0 
L 37.796875 17.1875 
L 4.890625 17.1875 
L 4.890625 26.703125 
z
" id="DejaVuSans-52"/>
       </defs>
       <use xlink:href="#DejaVuSans-52"/>
       <use x="63.623047" xlink:href="#DejaVuSans-48"/>
       <use x="127.246094" xlink:href="#DejaVuSans-48"/>
       <use x="190.869141" xlink:href="#DejaVuSans-48"/>
      </g>
     </g>
    </g>
    <g id="xtick_6">
     <g id="line2d_6">
      <g>
       <use style="stroke:#000000;stroke-width:0.8;" x="263.349194" xlink:href="#m278d19aac4" y="239.758125"/>
      </g>
     </g>
     <g id="text_6">
      <!-- 5000 -->
      <g transform="translate(250.624194 254.356562)scale(0.1 -0.1)">
       <defs>
        <path d="M 10.796875 72.90625 
L 49.515625 72.90625 
L 49.515625 64.59375 
L 19.828125 64.59375 
L 19.828125 46.734375 
Q 21.96875 47.46875 24.109375 47.828125 
Q 26.265625 48.1875 28.421875 48.1875 
Q 40.625 48.1875 47.75 41.5 
Q 54.890625 34.8125 54.890625 23.390625 
Q 54.890625 11.625 47.5625 5.09375 
Q 40.234375 -1.421875 26.90625 -1.421875 
Q 22.3125 -1.421875 17.546875 -0.640625 
Q 12.796875 0.140625 7.71875 1.703125 
L 7.71875 11.625 
Q 12.109375 9.234375 16.796875 8.0625 
Q 21.484375 6.890625 26.703125 6.890625 
Q 35.15625 6.890625 40.078125 11.328125 
Q 45.015625 15.765625 45.015625 23.390625 
Q 45.015625 31 40.078125 35.4375 
Q 35.15625 39.890625 26.703125 39.890625 
Q 22.75 39.890625 18.8125 39.015625 
Q 14.890625 38.140625 10.796875 36.28125 
z
" id="DejaVuSans-53"/>
       </defs>
       <use xlink:href="#DejaVuSans-53"/>
       <use x="63.623047" xlink:href="#DejaVuSans-48"/>
       <use x="127.246094" xlink:href="#DejaVuSans-48"/>
       <use x="190.869141" xlink:href="#DejaVuSans-48"/>
      </g>
     </g>
    </g>
    <g id="xtick_7">
     <g id="line2d_7">
      <g>
       <use style="stroke:#000000;stroke-width:0.8;" x="305.52819" xlink:href="#m278d19aac4" y="239.758125"/>
      </g>
     </g>
     <g id="text_7">
      <!-- 6000 -->
      <g transform="translate(292.80319 254.356562)scale(0.1 -0.1)">
       <defs>
        <path d="M 33.015625 40.375 
Q 26.375 40.375 22.484375 35.828125 
Q 18.609375 31.296875 18.609375 23.390625 
Q 18.609375 15.53125 22.484375 10.953125 
Q 26.375 6.390625 33.015625 6.390625 
Q 39.65625 6.390625 43.53125 10.953125 
Q 47.40625 15.53125 47.40625 23.390625 
Q 47.40625 31.296875 43.53125 35.828125 
Q 39.65625 40.375 33.015625 40.375 
z
M 52.59375 71.296875 
L 52.59375 62.3125 
Q 48.875 64.0625 45.09375 64.984375 
Q 41.3125 65.921875 37.59375 65.921875 
Q 27.828125 65.921875 22.671875 59.328125 
Q 17.53125 52.734375 16.796875 39.40625 
Q 19.671875 43.65625 24.015625 45.921875 
Q 28.375 48.1875 33.59375 48.1875 
Q 44.578125 48.1875 50.953125 41.515625 
Q 57.328125 34.859375 57.328125 23.390625 
Q 57.328125 12.15625 50.6875 5.359375 
Q 44.046875 -1.421875 33.015625 -1.421875 
Q 20.359375 -1.421875 13.671875 8.265625 
Q 6.984375 17.96875 6.984375 36.375 
Q 6.984375 53.65625 15.1875 63.9375 
Q 23.390625 74.21875 37.203125 74.21875 
Q 40.921875 74.21875 44.703125 73.484375 
Q 48.484375 72.75 52.59375 71.296875 
z
" id="DejaVuSans-54"/>
       </defs>
       <use xlink:href="#DejaVuSans-54"/>
       <use x="63.623047" xlink:href="#DejaVuSans-48"/>
       <use x="127.246094" xlink:href="#DejaVuSans-48"/>
       <use x="190.869141" xlink:href="#DejaVuSans-48"/>
      </g>
     </g>
    </g>
    <g id="xtick_8">
     <g id="line2d_8">
      <g>
       <use style="stroke:#000000;stroke-width:0.8;" x="347.707186" xlink:href="#m278d19aac4" y="239.758125"/>
      </g>
     </g>
     <g id="text_8">
      <!-- 7000 -->
      <g transform="translate(334.982186 254.356562)scale(0.1 -0.1)">
       <defs>
        <path d="M 8.203125 72.90625 
L 55.078125 72.90625 
L 55.078125 68.703125 
L 28.609375 0 
L 18.3125 0 
L 43.21875 64.59375 
L 8.203125 64.59375 
z
" id="DejaVuSans-55"/>
       </defs>
       <use xlink:href="#DejaVuSans-55"/>
       <use x="63.623047" xlink:href="#DejaVuSans-48"/>
       <use x="127.246094" xlink:href="#DejaVuSans-48"/>
       <use x="190.869141" xlink:href="#DejaVuSans-48"/>
      </g>
     </g>
    </g>
    <g id="text_9">
     <!-- evals -->
     <g transform="translate(192.00625 268.034687)scale(0.1 -0.1)">
      <defs>
       <path d="M 56.203125 29.59375 
L 56.203125 25.203125 
L 14.890625 25.203125 
Q 15.484375 15.921875 20.484375 11.0625 
Q 25.484375 6.203125 34.421875 6.203125 
Q 39.59375 6.203125 44.453125 7.46875 
Q 49.3125 8.734375 54.109375 11.28125 
L 54.109375 2.78125 
Q 49.265625 0.734375 44.1875 -0.34375 
Q 39.109375 -1.421875 33.890625 -1.421875 
Q 20.796875 -1.421875 13.15625 6.1875 
Q 5.515625 13.8125 5.515625 26.8125 
Q 5.515625 40.234375 12.765625 48.109375 
Q 20.015625 56 32.328125 56 
Q 43.359375 56 49.78125 48.890625 
Q 56.203125 41.796875 56.203125 29.59375 
z
M 47.21875 32.234375 
Q 47.125 39.59375 43.09375 43.984375 
Q 39.0625 48.390625 32.421875 48.390625 
Q 24.90625 48.390625 20.390625 44.140625 
Q 15.875 39.890625 15.1875 32.171875 
z
" id="DejaVuSans-101"/>
       <path d="M 2.984375 54.6875 
L 12.5 54.6875 
L 29.59375 8.796875 
L 46.6875 54.6875 
L 56.203125 54.6875 
L 35.6875 0 
L 23.484375 0 
z
" id="DejaVuSans-118"/>
       <path d="M 34.28125 27.484375 
Q 23.390625 27.484375 19.1875 25 
Q 14.984375 22.515625 14.984375 16.5 
Q 14.984375 11.71875 18.140625 8.90625 
Q 21.296875 6.109375 26.703125 6.109375 
Q 34.1875 6.109375 38.703125 11.40625 
Q 43.21875 16.703125 43.21875 25.484375 
L 43.21875 27.484375 
z
M 52.203125 31.203125 
L 52.203125 0 
L 43.21875 0 
L 43.21875 8.296875 
Q 40.140625 3.328125 35.546875 0.953125 
Q 30.953125 -1.421875 24.3125 -1.421875 
Q 15.921875 -1.421875 10.953125 3.296875 
Q 6 8.015625 6 15.921875 
Q 6 25.140625 12.171875 29.828125 
Q 18.359375 34.515625 30.609375 34.515625 
L 43.21875 34.515625 
L 43.21875 35.40625 
Q 43.21875 41.609375 39.140625 45 
Q 35.0625 48.390625 27.6875 48.390625 
Q 23 48.390625 18.546875 47.265625 
Q 14.109375 46.140625 10.015625 43.890625 
L 10.015625 52.203125 
Q 14.9375 54.109375 19.578125 55.046875 
Q 24.21875 56 28.609375 56 
Q 40.484375 56 46.34375 49.84375 
Q 52.203125 43.703125 52.203125 31.203125 
z
" id="DejaVuSans-97"/>
       <path d="M 9.421875 75.984375 
L 18.40625 75.984375 
L 18.40625 0 
L 9.421875 0 
z
" id="DejaVuSans-108"/>
       <path d="M 44.28125 53.078125 
L 44.28125 44.578125 
Q 40.484375 46.53125 36.375 47.5 
Q 32.28125 48.484375 27.875 48.484375 
Q 21.1875 48.484375 17.84375 46.4375 
Q 14.5 44.390625 14.5 40.28125 
Q 14.5 37.15625 16.890625 35.375 
Q 19.28125 33.59375 26.515625 31.984375 
L 29.59375 31.296875 
Q 39.15625 29.25 43.1875 25.515625 
Q 47.21875 21.78125 47.21875 15.09375 
Q 47.21875 7.46875 41.1875 3.015625 
Q 35.15625 -1.421875 24.609375 -1.421875 
Q 20.21875 -1.421875 15.453125 -0.5625 
Q 10.6875 0.296875 5.421875 2 
L 5.421875 11.28125 
Q 10.40625 8.6875 15.234375 7.390625 
Q 20.0625 6.109375 24.8125 6.109375 
Q 31.15625 6.109375 34.5625 8.28125 
Q 37.984375 10.453125 37.984375 14.40625 
Q 37.984375 18.0625 35.515625 20.015625 
Q 33.0625 21.96875 24.703125 23.78125 
L 21.578125 24.515625 
Q 13.234375 26.265625 9.515625 29.90625 
Q 5.8125 33.546875 5.8125 39.890625 
Q 5.8125 47.609375 11.28125 51.796875 
Q 16.75 56 26.8125 56 
Q 31.78125 56 36.171875 55.265625 
Q 40.578125 54.546875 44.28125 53.078125 
z
" id="DejaVuSans-115"/>
      </defs>
      <use xlink:href="#DejaVuSans-101"/>
      <use x="61.523438" xlink:href="#DejaVuSans-118"/>
      <use x="120.703125" xlink:href="#DejaVuSans-97"/>
      <use x="181.982422" xlink:href="#DejaVuSans-108"/>
      <use x="209.765625" xlink:href="#DejaVuSans-115"/>
     </g>
    </g>
   </g>
   <g id="matplotlib.axis_2">
    <g id="ytick_1">
     <g id="line2d_9">
      <defs>
       <path d="M 0 0 
L -3.5 0 
" id="m2713f1bf0c" style="stroke:#000000;stroke-width:0.8;"/>
      </defs>
      <g>
       <use style="stroke:#000000;stroke-width:0.8;" x="37.7" xlink:href="#m2713f1bf0c" y="235.896803"/>
      </g>
     </g>
     <g id="text_10">
      <!-- $\mathdefault{10^{-7}}$ -->
      <g transform="translate(7.2 239.696022)scale(0.1 -0.1)">
       <defs>
        <path d="M 10.59375 35.5 
L 73.1875 35.5 
L 73.1875 27.203125 
L 10.59375 27.203125 
z
" id="DejaVuSans-8722"/>
       </defs>
       <use transform="translate(0 0.684375)" xlink:href="#DejaVuSans-49"/>
       <use transform="translate(63.623047 0.684375)" xlink:href="#DejaVuSans-48"/>
       <use transform="translate(128.203125 38.965625)scale(0.7)" xlink:href="#DejaVuSans-8722"/>
       <use transform="translate(186.855469 38.965625)scale(0.7)" xlink:href="#DejaVuSans-55"/>
      </g>
     </g>
    </g>
    <g id="ytick_2">
     <g id="line2d_10">
      <g>
       <use style="stroke:#000000;stroke-width:0.8;" x="37.7" xlink:href="#m2713f1bf0c" y="205.193508"/>
      </g>
     </g>
     <g id="text_11">
      <!-- $\mathdefault{10^{-6}}$ -->
      <g transform="translate(7.2 208.992726)scale(0.1 -0.1)">
       <use transform="translate(0 0.765625)" xlink:href="#DejaVuSans-49"/>
       <use transform="translate(63.623047 0.765625)" xlink:href="#DejaVuSans-48"/>
       <use transform="translate(128.203125 39.046875)scale(0.7)" xlink:href="#DejaVuSans-8722"/>
       <use transform="translate(186.855469 39.046875)scale(0.7)" xlink:href="#DejaVuSans-54"/>
      </g>
     </g>
    </g>
    <g id="ytick_3">
     <g id="line2d_11">
      <g>
       <use style="stroke:#000000;stroke-width:0.8;" x="37.7" xlink:href="#m2713f1bf0c" y="174.490212"/>
      </g>
     </g>
     <g id="text_12">
      <!-- $\mathdefault{10^{-5}}$ -->
      <g transform="translate(7.2 178.289431)scale(0.1 -0.1)">
       <use transform="translate(0 0.684375)" xlink:href="#DejaVuSans-49"/>
       <use transform="translate(63.623047 0.684375)" xlink:href="#DejaVuSans-48"/>
       <use transform="translate(128.203125 38.965625)scale(0.7)" xlink:href="#DejaVuSans-8722"/>
       <use transform="translate(186.855469 38.965625)scale(0.7)" xlink:href="#DejaVuSans-53"/>
      </g>
     </g>
    </g>
    <g id="ytick_4">
     <g id="line2d_12">
      <g>
       <use style="stroke:#000000;stroke-width:0.8;" x="37.7" xlink:href="#m2713f1bf0c" y="143.786916"/>
      </g>
     </g>
     <g id="text_13">
      <!-- $\mathdefault{10^{-4}}$ -->
      <g transform="translate(7.2 147.586135)scale(0.1 -0.1)">
       <use transform="translate(0 0.684375)" xlink:href="#DejaVuSans-49"/>
       <use transform="translate(63.623047 0.684375)" xlink:href="#DejaVuSans-48"/>
       <use transform="translate(128.203125 38.965625)scale(0.7)" xlink:href="#DejaVuSans-8722"/>
       <use transform="translate(186.855469 38.965625)scale(0.7)" xlink:href="#DejaVuSans-52"/>
      </g>
     </g>
    </g>
    <g id="ytick_5">
     <g id="line2d_13">
      <g>
       <use style="stroke:#000000;stroke-width:0.8;" x="37.7" xlink:href="#m2713f1bf0c" y="113.083621"/>
      </g>
     </g>
     <g id="text_14">
      <!-- $\mathdefault{10^{-3}}$ -->
      <g transform="translate(7.2 116.88284)scale(0.1 -0.1)">
       <use transform="translate(0 0.765625)" xlink:href="#DejaVuSans-49"/>
       <use transform="translate(63.623047 0.765625)" xlink:href="#DejaVuSans-48"/>
       <use transform="translate(128.203125 39.046875)scale(0.7)" xlink:href="#DejaVuSans-8722"/>
       <use transform="translate(186.855469 39.046875)scale(0.7)" xlink:href="#DejaVuSans-51"/>
      </g>
     </g>
    </g>
    <g id="ytick_6">
     <g id="line2d_14">
      <g>
       <use style="stroke:#000000;stroke-width:0.8;" x="37.7" xlink:href="#m2713f1bf0c" y="82.380325"/>
      </g>
     </g>
     <g id="text_15">
      <!-- $\mathdefault{10^{-2}}$ -->
      <g transform="translate(7.2 86.179544)scale(0.1 -0.1)">
       <use transform="translate(0 0.765625)" xlink:href="#DejaVuSans-49"/>
       <use transform="translate(63.623047 0.765625)" xlink:href="#DejaVuSans-48"/>
       <use transform="translate(128.203125 39.046875)scale(0.7)" xlink:href="#DejaVuSans-8722"/>
       <use transform="translate(186.855469 39.046875)scale(0.7)" xlink:href="#DejaVuSans-50"/>
      </g>
     </g>
    </g>
    <g id="ytick_7">
     <g id="line2d_15">
      <g>
       <use style="stroke:#000000;stroke-width:0.8;" x="37.7" xlink:href="#m2713f1bf0c" y="51.67703"/>
      </g>
     </g>
     <g id="text_16">
      <!-- $\mathdefault{10^{-1}}$ -->
      <g transform="translate(7.2 55.476248)scale(0.1 -0.1)">
       <use transform="translate(0 0.684375)" xlink:href="#DejaVuSans-49"/>
       <use transform="translate(63.623047 0.684375)" xlink:href="#DejaVuSans-48"/>
       <use transform="translate(128.203125 38.965625)scale(0.7)" xlink:href="#DejaVuSans-8722"/>
       <use transform="translate(186.855469 38.965625)scale(0.7)" xlink:href="#DejaVuSans-49"/>
      </g>
     </g>
    </g>
    <g id="ytick_8">
     <g id="line2d_16">
      <defs>
       <path d="M 0 0 
L -2 0 
" id="mc5d6b920af" style="stroke:#000000;stroke-width:0.6;"/>
      </defs>
      <g>
       <use style="stroke:#000000;stroke-width:0.6;" x="37.7" xlink:href="#mc5d6b920af" y="238.87226"/>
      </g>
     </g>
    </g>
    <g id="ytick_9">
     <g id="line2d_17">
      <g>
       <use style="stroke:#000000;stroke-width:0.6;" x="37.7" xlink:href="#mc5d6b920af" y="237.301709"/>
      </g>
     </g>
    </g>
    <g id="ytick_10">
     <g id="line2d_18">
      <g>
       <use style="stroke:#000000;stroke-width:0.6;" x="37.7" xlink:href="#mc5d6b920af" y="226.65419"/>
      </g>
     </g>
    </g>
    <g id="ytick_11">
     <g id="line2d_19">
      <g>
       <use style="stroke:#000000;stroke-width:0.6;" x="37.7" xlink:href="#mc5d6b920af" y="221.247608"/>
      </g>
     </g>
    </g>
    <g id="ytick_12">
     <g id="line2d_20">
      <g>
       <use style="stroke:#000000;stroke-width:0.6;" x="37.7" xlink:href="#mc5d6b920af" y="217.411577"/>
      </g>
     </g>
    </g>
    <g id="ytick_13">
     <g id="line2d_21">
      <g>
       <use style="stroke:#000000;stroke-width:0.6;" x="37.7" xlink:href="#mc5d6b920af" y="214.436121"/>
      </g>
     </g>
    </g>
    <g id="ytick_14">
     <g id="line2d_22">
      <g>
       <use style="stroke:#000000;stroke-width:0.6;" x="37.7" xlink:href="#mc5d6b920af" y="212.004995"/>
      </g>
     </g>
    </g>
    <g id="ytick_15">
     <g id="line2d_23">
      <g>
       <use style="stroke:#000000;stroke-width:0.6;" x="37.7" xlink:href="#mc5d6b920af" y="209.949508"/>
      </g>
     </g>
    </g>
    <g id="ytick_16">
     <g id="line2d_24">
      <g>
       <use style="stroke:#000000;stroke-width:0.6;" x="37.7" xlink:href="#mc5d6b920af" y="208.168964"/>
      </g>
     </g>
    </g>
    <g id="ytick_17">
     <g id="line2d_25">
      <g>
       <use style="stroke:#000000;stroke-width:0.6;" x="37.7" xlink:href="#mc5d6b920af" y="206.598413"/>
      </g>
     </g>
    </g>
    <g id="ytick_18">
     <g id="line2d_26">
      <g>
       <use style="stroke:#000000;stroke-width:0.6;" x="37.7" xlink:href="#mc5d6b920af" y="195.950895"/>
      </g>
     </g>
    </g>
    <g id="ytick_19">
     <g id="line2d_27">
      <g>
       <use style="stroke:#000000;stroke-width:0.6;" x="37.7" xlink:href="#mc5d6b920af" y="190.544313"/>
      </g>
     </g>
    </g>
    <g id="ytick_20">
     <g id="line2d_28">
      <g>
       <use style="stroke:#000000;stroke-width:0.6;" x="37.7" xlink:href="#mc5d6b920af" y="186.708282"/>
      </g>
     </g>
    </g>
    <g id="ytick_21">
     <g id="line2d_29">
      <g>
       <use style="stroke:#000000;stroke-width:0.6;" x="37.7" xlink:href="#mc5d6b920af" y="183.732825"/>
      </g>
     </g>
    </g>
    <g id="ytick_22">
     <g id="line2d_30">
      <g>
       <use style="stroke:#000000;stroke-width:0.6;" x="37.7" xlink:href="#mc5d6b920af" y="181.3017"/>
      </g>
     </g>
    </g>
    <g id="ytick_23">
     <g id="line2d_31">
      <g>
       <use style="stroke:#000000;stroke-width:0.6;" x="37.7" xlink:href="#mc5d6b920af" y="179.246213"/>
      </g>
     </g>
    </g>
    <g id="ytick_24">
     <g id="line2d_32">
      <g>
       <use style="stroke:#000000;stroke-width:0.6;" x="37.7" xlink:href="#mc5d6b920af" y="177.465669"/>
      </g>
     </g>
    </g>
    <g id="ytick_25">
     <g id="line2d_33">
      <g>
       <use style="stroke:#000000;stroke-width:0.6;" x="37.7" xlink:href="#mc5d6b920af" y="175.895118"/>
      </g>
     </g>
    </g>
    <g id="ytick_26">
     <g id="line2d_34">
      <g>
       <use style="stroke:#000000;stroke-width:0.6;" x="37.7" xlink:href="#mc5d6b920af" y="165.247599"/>
      </g>
     </g>
    </g>
    <g id="ytick_27">
     <g id="line2d_35">
      <g>
       <use style="stroke:#000000;stroke-width:0.6;" x="37.7" xlink:href="#mc5d6b920af" y="159.841017"/>
      </g>
     </g>
    </g>
    <g id="ytick_28">
     <g id="line2d_36">
      <g>
       <use style="stroke:#000000;stroke-width:0.6;" x="37.7" xlink:href="#mc5d6b920af" y="156.004986"/>
      </g>
     </g>
    </g>
    <g id="ytick_29">
     <g id="line2d_37">
      <g>
       <use style="stroke:#000000;stroke-width:0.6;" x="37.7" xlink:href="#mc5d6b920af" y="153.029529"/>
      </g>
     </g>
    </g>
    <g id="ytick_30">
     <g id="line2d_38">
      <g>
       <use style="stroke:#000000;stroke-width:0.6;" x="37.7" xlink:href="#mc5d6b920af" y="150.598404"/>
      </g>
     </g>
    </g>
    <g id="ytick_31">
     <g id="line2d_39">
      <g>
       <use style="stroke:#000000;stroke-width:0.6;" x="37.7" xlink:href="#mc5d6b920af" y="148.542917"/>
      </g>
     </g>
    </g>
    <g id="ytick_32">
     <g id="line2d_40">
      <g>
       <use style="stroke:#000000;stroke-width:0.6;" x="37.7" xlink:href="#mc5d6b920af" y="146.762373"/>
      </g>
     </g>
    </g>
    <g id="ytick_33">
     <g id="line2d_41">
      <g>
       <use style="stroke:#000000;stroke-width:0.6;" x="37.7" xlink:href="#mc5d6b920af" y="145.191822"/>
      </g>
     </g>
    </g>
    <g id="ytick_34">
     <g id="line2d_42">
      <g>
       <use style="stroke:#000000;stroke-width:0.6;" x="37.7" xlink:href="#mc5d6b920af" y="134.544304"/>
      </g>
     </g>
    </g>
    <g id="ytick_35">
     <g id="line2d_43">
      <g>
       <use style="stroke:#000000;stroke-width:0.6;" x="37.7" xlink:href="#mc5d6b920af" y="129.137722"/>
      </g>
     </g>
    </g>
    <g id="ytick_36">
     <g id="line2d_44">
      <g>
       <use style="stroke:#000000;stroke-width:0.6;" x="37.7" xlink:href="#mc5d6b920af" y="125.301691"/>
      </g>
     </g>
    </g>
    <g id="ytick_37">
     <g id="line2d_45">
      <g>
       <use style="stroke:#000000;stroke-width:0.6;" x="37.7" xlink:href="#mc5d6b920af" y="122.326234"/>
      </g>
     </g>
    </g>
    <g id="ytick_38">
     <g id="line2d_46">
      <g>
       <use style="stroke:#000000;stroke-width:0.6;" x="37.7" xlink:href="#mc5d6b920af" y="119.895109"/>
      </g>
     </g>
    </g>
    <g id="ytick_39">
     <g id="line2d_47">
      <g>
       <use style="stroke:#000000;stroke-width:0.6;" x="37.7" xlink:href="#mc5d6b920af" y="117.839622"/>
      </g>
     </g>
    </g>
    <g id="ytick_40">
     <g id="line2d_48">
      <g>
       <use style="stroke:#000000;stroke-width:0.6;" x="37.7" xlink:href="#mc5d6b920af" y="116.059078"/>
      </g>
     </g>
    </g>
    <g id="ytick_41">
     <g id="line2d_49">
      <g>
       <use style="stroke:#000000;stroke-width:0.6;" x="37.7" xlink:href="#mc5d6b920af" y="114.488527"/>
      </g>
     </g>
    </g>
    <g id="ytick_42">
     <g id="line2d_50">
      <g>
       <use style="stroke:#000000;stroke-width:0.6;" x="37.7" xlink:href="#mc5d6b920af" y="103.841008"/>
      </g>
     </g>
    </g>
    <g id="ytick_43">
     <g id="line2d_51">
      <g>
       <use style="stroke:#000000;stroke-width:0.6;" x="37.7" xlink:href="#mc5d6b920af" y="98.434426"/>
      </g>
     </g>
    </g>
    <g id="ytick_44">
     <g id="line2d_52">
      <g>
       <use style="stroke:#000000;stroke-width:0.6;" x="37.7" xlink:href="#mc5d6b920af" y="94.598395"/>
      </g>
     </g>
    </g>
    <g id="ytick_45">
     <g id="line2d_53">
      <g>
       <use style="stroke:#000000;stroke-width:0.6;" x="37.7" xlink:href="#mc5d6b920af" y="91.622938"/>
      </g>
     </g>
    </g>
    <g id="ytick_46">
     <g id="line2d_54">
      <g>
       <use style="stroke:#000000;stroke-width:0.6;" x="37.7" xlink:href="#mc5d6b920af" y="89.191813"/>
      </g>
     </g>
    </g>
    <g id="ytick_47">
     <g id="line2d_55">
      <g>
       <use style="stroke:#000000;stroke-width:0.6;" x="37.7" xlink:href="#mc5d6b920af" y="87.136326"/>
      </g>
     </g>
    </g>
    <g id="ytick_48">
     <g id="line2d_56">
      <g>
       <use style="stroke:#000000;stroke-width:0.6;" x="37.7" xlink:href="#mc5d6b920af" y="85.355782"/>
      </g>
     </g>
    </g>
    <g id="ytick_49">
     <g id="line2d_57">
      <g>
       <use style="stroke:#000000;stroke-width:0.6;" x="37.7" xlink:href="#mc5d6b920af" y="83.785231"/>
      </g>
     </g>
    </g>
    <g id="ytick_50">
     <g id="line2d_58">
      <g>
       <use style="stroke:#000000;stroke-width:0.6;" x="37.7" xlink:href="#mc5d6b920af" y="73.137712"/>
      </g>
     </g>
    </g>
    <g id="ytick_51">
     <g id="line2d_59">
      <g>
       <use style="stroke:#000000;stroke-width:0.6;" x="37.7" xlink:href="#mc5d6b920af" y="67.73113"/>
      </g>
     </g>
    </g>
    <g id="ytick_52">
     <g id="line2d_60">
      <g>
       <use style="stroke:#000000;stroke-width:0.6;" x="37.7" xlink:href="#mc5d6b920af" y="63.895099"/>
      </g>
     </g>
    </g>
    <g id="ytick_53">
     <g id="line2d_61">
      <g>
       <use style="stroke:#000000;stroke-width:0.6;" x="37.7" xlink:href="#mc5d6b920af" y="60.919643"/>
      </g>
     </g>
    </g>
    <g id="ytick_54">
     <g id="line2d_62">
      <g>
       <use style="stroke:#000000;stroke-width:0.6;" x="37.7" xlink:href="#mc5d6b920af" y="58.488517"/>
      </g>
     </g>
    </g>
    <g id="ytick_55">
     <g id="line2d_63">
      <g>
       <use style="stroke:#000000;stroke-width:0.6;" x="37.7" xlink:href="#mc5d6b920af" y="56.43303"/>
      </g>
     </g>
    </g>
    <g id="ytick_56">
     <g id="line2d_64">
      <g>
       <use style="stroke:#000000;stroke-width:0.6;" x="37.7" xlink:href="#mc5d6b920af" y="54.652486"/>
      </g>
     </g>
    </g>
    <g id="ytick_57">
     <g id="line2d_65">
      <g>
       <use style="stroke:#000000;stroke-width:0.6;" x="37.7" xlink:href="#mc5d6b920af" y="53.081935"/>
      </g>
     </g>
    </g>
    <g id="ytick_58">
     <g id="line2d_66">
      <g>
       <use style="stroke:#000000;stroke-width:0.6;" x="37.7" xlink:href="#mc5d6b920af" y="42.434417"/>
      </g>
     </g>
    </g>
    <g id="ytick_59">
     <g id="line2d_67">
      <g>
       <use style="stroke:#000000;stroke-width:0.6;" x="37.7" xlink:href="#mc5d6b920af" y="37.027835"/>
      </g>
     </g>
    </g>
    <g id="ytick_60">
     <g id="line2d_68">
      <g>
       <use style="stroke:#000000;stroke-width:0.6;" x="37.7" xlink:href="#mc5d6b920af" y="33.191804"/>
      </g>
     </g>
    </g>
    <g id="ytick_61">
     <g id="line2d_69">
      <g>
       <use style="stroke:#000000;stroke-width:0.6;" x="37.7" xlink:href="#mc5d6b920af" y="30.216347"/>
      </g>
     </g>
    </g>
    <g id="ytick_62">
     <g id="line2d_70">
      <g>
       <use style="stroke:#000000;stroke-width:0.6;" x="37.7" xlink:href="#mc5d6b920af" y="27.785222"/>
      </g>
     </g>
    </g>
    <g id="ytick_63">
     <g id="line2d_71">
      <g>
       <use style="stroke:#000000;stroke-width:0.6;" x="37.7" xlink:href="#mc5d6b920af" y="25.729735"/>
      </g>
     </g>
    </g>
    <g id="ytick_64">
     <g id="line2d_72">
      <g>
       <use style="stroke:#000000;stroke-width:0.6;" x="37.7" xlink:href="#mc5d6b920af" y="23.949191"/>
      </g>
     </g>
    </g>
    <g id="ytick_65">
     <g id="line2d_73">
      <g>
       <use style="stroke:#000000;stroke-width:0.6;" x="37.7" xlink:href="#mc5d6b920af" y="22.37864"/>
      </g>
     </g>
    </g>
   </g>
   <g id="line2d_74">
    <path clip-path="url(#p564a7c95cb)" d="M 52.918182 32.201761 
L 53.382151 33.826972 
L 54.774058 37.051807 
L 55.701996 38.606823 
L 56.165965 39.566975 
L 56.629933 41.334535 
L 57.093902 42.41931 
L 57.557871 42.487137 
L 58.02184 42.910814 
L 58.949778 45.29342 
L 59.413747 46.083339 
L 59.877716 47.219739 
L 60.341685 47.618281 
L 61.269623 48.897279 
L 62.197561 51.104768 
L 62.66153 51.664148 
L 63.125499 51.503362 
L 63.589468 51.757866 
L 64.517406 53.923247 
L 64.981375 54.79733 
L 65.445344 55.339921 
L 66.373282 57.210279 
L 67.30122 59.566379 
L 67.765188 60.425937 
L 68.229157 60.448094 
L 68.693126 61.178228 
L 69.157095 62.193729 
L 69.621064 62.314392 
L 70.085033 63.357771 
L 70.549002 62.811752 
L 71.47694 61.065422 
L 71.940909 61.127953 
L 72.404878 61.371781 
L 73.332816 62.299621 
L 73.796785 63.539611 
L 74.260754 63.992104 
L 74.724723 64.619499 
L 75.652661 67.028504 
L 76.11663 67.514227 
L 76.580599 67.708018 
L 77.508537 68.812148 
L 79.828381 72.666378 
L 80.756319 73.849607 
L 81.684257 73.908998 
L 82.148226 73.627938 
L 82.612195 73.89973 
L 83.076164 73.588703 
L 83.540133 74.622131 
L 84.468071 74.967971 
L 84.93204 75.342445 
L 85.396009 74.6735 
L 86.323947 72.76223 
L 86.787916 71.776843 
L 87.251885 71.90395 
L 87.715854 72.606456 
L 88.179823 72.952197 
L 88.643792 73.038308 
L 89.107761 73.287195 
L 89.571729 73.683306 
L 90.035698 74.510989 
L 91.427605 73.829181 
L 91.891574 74.062197 
L 92.355543 73.482441 
L 93.283481 74.16022 
L 93.74745 74.66322 
L 94.211419 75.34259 
L 94.675388 75.438229 
L 95.139357 73.908778 
L 96.067295 72.198382 
L 96.531264 71.523726 
L 96.995233 71.058375 
L 97.459202 70.819606 
L 98.851109 69.168684 
L 99.315078 69.082314 
L 99.779047 69.248707 
L 100.243016 69.119363 
L 100.706984 69.58447 
L 101.634922 70.992853 
L 102.098891 70.822455 
L 102.56286 71.273095 
L 103.026829 70.923586 
L 103.490798 69.433005 
L 104.418736 67.364008 
L 104.882705 66.790481 
L 105.346674 67.25272 
L 105.810643 68.885732 
L 106.738581 71.222574 
L 108.130488 73.608535 
L 108.594457 75.080967 
L 109.058426 76.044776 
L 109.522395 76.623862 
L 109.986364 76.679131 
L 110.450333 76.373912 
L 110.914302 76.299256 
L 111.378271 75.020971 
L 112.306208 73.31491 
L 112.770177 72.001804 
L 113.698115 71.15157 
L 114.626053 69.204424 
L 115.090022 68.424273 
L 115.553991 68.03655 
L 116.481929 68.438348 
L 116.945898 68.611294 
L 117.409867 69.3423 
L 117.873836 70.306079 
L 118.337805 70.232366 
L 118.801774 70.606761 
L 119.265743 72.324135 
L 119.729712 73.422853 
L 120.193681 73.087389 
L 120.65765 72.207564 
L 121.121619 71.65126 
L 121.585588 71.639436 
L 122.513525 71.795324 
L 122.977494 72.143184 
L 123.441463 71.625364 
L 123.905432 71.622776 
L 124.369401 72.381437 
L 125.297339 73.246425 
L 125.761308 73.124923 
L 126.225277 73.14815 
L 126.689246 72.733713 
L 127.153215 72.763139 
L 127.617184 73.144317 
L 128.081153 73.032384 
L 128.545122 72.459327 
L 129.937029 69.53917 
L 131.328936 65.422359 
L 131.792905 65.389436 
L 132.256874 65.112609 
L 132.720843 65.366404 
L 133.64878 66.614073 
L 134.112749 66.7424 
L 134.576718 65.863253 
L 135.040687 65.914468 
L 135.504656 66.249413 
L 135.968625 66.160171 
L 136.432594 66.734014 
L 136.896563 68.232696 
L 137.360532 69.353931 
L 137.824501 70.123181 
L 138.28847 71.533661 
L 138.752439 70.951354 
L 140.144346 73.001315 
L 140.608315 73.887619 
L 141.072284 73.883435 
L 141.536253 74.064184 
L 142.000222 74.576199 
L 142.464191 74.04794 
L 143.392129 72.419404 
L 143.856098 72.388631 
L 144.320067 72.168249 
L 144.784035 70.97613 
L 145.248004 70.188054 
L 145.711973 70.082366 
L 146.175942 69.661142 
L 146.639911 68.859359 
L 147.10388 68.443733 
L 147.567849 69.047848 
L 148.031818 68.642383 
L 148.495787 68.599219 
L 149.887694 69.152498 
L 150.351663 68.715489 
L 150.815632 68.887103 
L 151.279601 70.163847 
L 151.74357 70.286616 
L 152.671508 69.263626 
L 153.135477 69.538589 
L 153.599446 70.41288 
L 154.063415 71.981492 
L 154.527384 72.26154 
L 154.991353 73.02972 
L 155.455322 73.376661 
L 155.91929 73.556332 
L 156.383259 72.027235 
L 156.847228 71.359909 
L 157.775166 70.604091 
L 158.239135 69.605524 
L 158.703104 69.976558 
L 159.167073 69.192788 
L 159.631042 67.739874 
L 160.55898 66.528253 
L 161.022949 66.509678 
L 161.486918 65.89919 
L 162.414856 63.563705 
L 162.878825 63.170466 
L 163.342794 63.039618 
L 164.270732 64.528741 
L 164.734701 63.411923 
L 165.19867 63.557441 
L 165.662639 64.438328 
L 166.126608 64.988818 
L 166.590576 66.019354 
L 167.054545 66.11353 
L 167.518514 66.588988 
L 167.982483 67.343412 
L 168.910421 68.263217 
L 169.37439 68.403432 
L 169.838359 68.069671 
L 170.302328 67.525943 
L 171.230266 67.907282 
L 171.694235 67.832122 
L 172.158204 67.977635 
L 173.086142 69.79729 
L 173.550111 69.426662 
L 174.01408 67.901331 
L 174.478049 66.835221 
L 174.942018 66.402018 
L 175.405987 65.303123 
L 175.869956 65.327167 
L 176.333925 64.464875 
L 176.797894 63.849514 
L 177.261863 64.483348 
L 177.725831 64.49167 
L 178.1898 65.206248 
L 178.653769 66.793973 
L 179.117738 67.362901 
L 179.581707 67.199533 
L 180.045676 66.830319 
L 180.509645 66.900213 
L 180.973614 67.692648 
L 181.437583 68.15591 
L 181.901552 68.043703 
L 182.365521 68.242654 
L 182.82949 67.665016 
L 183.757428 68.730158 
L 184.685366 67.256454 
L 185.613304 66.08821 
L 186.077273 65.971589 
L 186.541242 66.553388 
L 187.005211 66.633386 
L 187.46918 66.588369 
L 187.933149 66.158189 
L 188.861086 63.247409 
L 189.325055 62.745454 
L 189.789024 61.925315 
L 190.252993 61.452182 
L 191.180931 58.972458 
L 191.6449 58.724355 
L 192.108869 57.319725 
L 193.036807 55.91084 
L 193.500776 56.403987 
L 193.964745 57.660792 
L 194.428714 58.568816 
L 194.892683 59.184289 
L 195.356652 59.360253 
L 196.748559 61.921131 
L 199.068404 64.372252 
L 199.532373 64.506832 
L 199.996341 64.771261 
L 200.924279 64.381856 
L 201.388248 64.565421 
L 202.780155 67.081062 
L 203.244124 67.305365 
L 204.172062 68.209195 
L 204.636031 67.797363 
L 205.1 68.269004 
L 205.563969 68.478765 
L 206.491907 70.569348 
L 206.955876 70.743695 
L 207.419845 71.141815 
L 207.883814 71.729413 
L 208.347783 73.088822 
L 208.811752 73.868818 
L 209.275721 74.140878 
L 209.73969 73.964839 
L 210.203659 73.907655 
L 210.667627 73.617268 
L 211.595565 74.026814 
L 213.91541 72.071945 
L 214.843348 70.512097 
L 215.307317 70.539255 
L 215.771286 71.48955 
L 216.699224 72.671756 
L 217.163193 73.228644 
L 217.627162 73.997782 
L 218.091131 73.404678 
L 218.5551 73.433447 
L 219.019069 72.969017 
L 219.947007 70.548692 
L 220.410976 68.907293 
L 220.874945 68.643994 
L 222.266851 69.42099 
L 222.73082 69.296438 
L 224.586696 69.341238 
L 225.050665 69.038487 
L 226.442572 69.139427 
L 226.906541 70.131982 
L 227.834479 69.66273 
L 228.298448 69.627623 
L 229.690355 68.97606 
L 230.154324 68.989212 
L 230.618293 68.766061 
L 231.082262 68.414675 
L 231.546231 68.390839 
L 232.0102 68.505113 
L 232.474169 68.741427 
L 232.938137 69.642588 
L 233.402106 69.864344 
L 233.866075 70.707331 
L 234.330044 70.950972 
L 234.794013 71.556424 
L 235.721951 73.318763 
L 236.18592 73.543263 
L 236.649889 71.756637 
L 237.113858 71.415448 
L 238.041796 73.11305 
L 239.433703 72.433133 
L 239.897672 72.89785 
L 240.361641 72.73065 
L 240.82561 72.362147 
L 241.289579 72.415994 
L 241.753548 71.444074 
L 242.217517 71.411635 
L 242.681486 71.667394 
L 243.145455 70.739326 
L 243.609424 70.693293 
L 244.073392 70.527176 
L 244.537361 70.644284 
L 245.00133 71.295499 
L 245.465299 71.425538 
L 247.785144 77.80316 
L 249.64102 77.612434 
L 250.104989 78.408804 
L 250.568958 78.93875 
L 251.032927 79.233326 
L 251.960865 79.30697 
L 252.888803 80.793376 
L 253.352772 80.864978 
L 253.816741 81.750741 
L 254.28071 81.807224 
L 254.744678 81.422887 
L 255.208647 81.880873 
L 255.672616 82.065946 
L 256.136585 82.744887 
L 256.600554 82.564437 
L 257.064523 81.372979 
L 257.528492 80.682577 
L 257.992461 80.689987 
L 258.920399 80.263179 
L 259.384368 80.37063 
L 259.848337 80.770797 
L 260.312306 80.459863 
L 260.776275 80.432817 
L 261.704213 79.387719 
L 262.168182 80.514783 
L 262.632151 80.896021 
L 263.09612 81.537993 
L 263.560089 81.772694 
L 264.024058 81.851782 
L 264.488027 81.714959 
L 264.951996 82.110921 
L 265.415965 82.863706 
L 265.879933 83.977563 
L 266.343902 84.720948 
L 266.807871 84.886606 
L 267.735809 87.135429 
L 268.199778 86.614419 
L 268.663747 87.63621 
L 269.591685 90.232556 
L 270.055654 91.00726 
L 270.519623 92.204872 
L 271.91153 94.599105 
L 272.375499 95.709781 
L 272.839468 96.460286 
L 273.303437 97.729819 
L 275.159313 101.371365 
L 275.623282 102.831077 
L 276.087251 102.961914 
L 276.55122 103.74047 
L 277.943126 106.987106 
L 278.407095 107.276798 
L 278.871064 107.074748 
L 279.335033 108.377521 
L 279.799002 108.640172 
L 280.262971 109.44652 
L 280.72694 109.721453 
L 281.190909 110.484321 
L 282.118847 113.494974 
L 283.046785 115.466418 
L 283.510754 115.852795 
L 283.974723 116.443239 
L 284.438692 117.315784 
L 285.830599 118.681564 
L 286.294568 119.179962 
L 287.222506 122.185376 
L 287.686475 121.975976 
L 289.078381 123.794848 
L 290.006319 124.378848 
L 290.470288 125.090049 
L 290.934257 126.475982 
L 291.398226 127.162162 
L 291.862195 127.630137 
L 292.326164 126.990115 
L 292.790133 126.540205 
L 293.254102 127.28677 
L 293.718071 127.506001 
L 294.18204 128.40675 
L 294.646009 128.855199 
L 295.109978 129.860069 
L 295.573947 130.200858 
L 296.037916 130.918005 
L 296.501885 132.052392 
L 296.965854 132.840714 
L 297.429823 132.724271 
L 297.893792 133.79132 
L 298.357761 135.231356 
L 298.821729 135.658627 
L 299.285698 136.634552 
L 299.749667 137.278947 
L 300.677605 139.278374 
L 301.605543 140.602853 
L 302.069512 141.299277 
L 302.533481 141.654341 
L 302.99745 141.41425 
L 303.461419 141.767104 
L 303.925388 143.294046 
L 304.853326 144.660864 
L 305.317295 145.540172 
L 305.781264 146.075379 
L 306.245233 146.958509 
L 306.709202 148.371919 
L 307.173171 148.824252 
L 308.101109 151.085908 
L 308.565078 152.09936 
L 309.029047 152.603065 
L 309.493016 153.340375 
L 309.956984 154.315391 
L 310.420953 156.051616 
L 310.884922 156.680242 
L 311.348891 156.085595 
L 311.81286 156.52624 
L 312.276829 155.332594 
L 312.740798 155.586379 
L 313.668736 158.397439 
L 314.132705 158.486046 
L 314.596674 159.304766 
L 315.524612 162.535316 
L 316.45255 164.601659 
L 317.844457 167.804431 
L 318.308426 169.514344 
L 318.772395 170.596478 
L 319.236364 171.027831 
L 320.164302 174.125799 
L 320.628271 174.314879 
L 321.092239 174.961337 
L 321.556208 175.102928 
L 322.020177 176.334727 
L 323.412084 178.757848 
L 323.876053 179.853492 
L 324.340022 179.818036 
L 324.803991 180.700875 
L 325.26796 181.028167 
L 325.731929 180.842536 
L 326.659867 182.433722 
L 327.123836 182.549185 
L 328.515743 185.233803 
L 328.979712 185.796764 
L 329.443681 185.899321 
L 329.90765 185.667488 
L 330.371619 186.259735 
L 332.227494 192.209195 
L 332.691463 192.86382 
L 334.08337 195.913064 
L 334.547339 195.583269 
L 335.011308 194.892164 
L 335.475277 195.193887 
L 335.939246 195.905087 
L 336.403215 197.066793 
L 336.867184 197.562967 
L 337.795122 198.953299 
L 338.259091 201.062061 
L 338.72306 201.618585 
L 339.187029 201.259932 
L 340.114967 203.703718 
L 340.578936 204.178265 
L 341.042905 204.464551 
L 342.434812 206.218 
L 342.89878 206.627614 
L 344.290687 208.419051 
L 345.218625 208.565405 
L 345.682594 209.638108 
L 346.610532 210.463294 
L 347.074501 211.691349 
L 348.002439 213.111634 
L 348.930377 215.556641 
L 349.858315 217.16484 
L 350.786253 219.186712 
L 351.250222 219.812488 
L 353.106098 223.645599 
L 353.570067 224.928032 
L 354.034035 225.628154 
L 354.498004 226.710147 
L 354.961973 227.118928 
L 355.425942 228.235878 
L 355.889911 228.666429 
L 356.35388 228.593028 
L 356.817849 228.865543 
L 357.281818 229.874489 
L 357.281818 229.874489 
" style="fill:none;stroke:#1f77b4;stroke-linecap:square;stroke-width:1.5;"/>
   </g>
   <g id="patch_3">
    <path d="M 37.7 239.758125 
L 37.7 22.318125 
" style="fill:none;stroke:#000000;stroke-linecap:square;stroke-linejoin:miter;stroke-width:0.8;"/>
   </g>
   <g id="patch_4">
    <path d="M 372.5 239.758125 
L 372.5 22.318125 
" style="fill:none;stroke:#000000;stroke-linecap:square;stroke-linejoin:miter;stroke-width:0.8;"/>
   </g>
   <g id="patch_5">
    <path d="M 37.7 239.758125 
L 372.5 239.758125 
" style="fill:none;stroke:#000000;stroke-linecap:square;stroke-linejoin:miter;stroke-width:0.8;"/>
   </g>
   <g id="patch_6">
    <path d="M 37.7 22.318125 
L 372.5 22.318125 
" style="fill:none;stroke:#000000;stroke-linecap:square;stroke-linejoin:miter;stroke-width:0.8;"/>
   </g>
   <g id="text_17">
    <!-- Standard deviation of the population distribution -->
    <g transform="translate(58.629688 16.318125)scale(0.12 -0.12)">
     <defs>
      <path d="M 53.515625 70.515625 
L 53.515625 60.890625 
Q 47.90625 63.578125 42.921875 64.890625 
Q 37.9375 66.21875 33.296875 66.21875 
Q 25.25 66.21875 20.875 63.09375 
Q 16.5 59.96875 16.5 54.203125 
Q 16.5 49.359375 19.40625 46.890625 
Q 22.3125 44.4375 30.421875 42.921875 
L 36.375 41.703125 
Q 47.40625 39.59375 52.65625 34.296875 
Q 57.90625 29 57.90625 20.125 
Q 57.90625 9.515625 50.796875 4.046875 
Q 43.703125 -1.421875 29.984375 -1.421875 
Q 24.8125 -1.421875 18.96875 -0.25 
Q 13.140625 0.921875 6.890625 3.21875 
L 6.890625 13.375 
Q 12.890625 10.015625 18.65625 8.296875 
Q 24.421875 6.59375 29.984375 6.59375 
Q 38.421875 6.59375 43.015625 9.90625 
Q 47.609375 13.234375 47.609375 19.390625 
Q 47.609375 24.75 44.3125 27.78125 
Q 41.015625 30.8125 33.5 32.328125 
L 27.484375 33.5 
Q 16.453125 35.6875 11.515625 40.375 
Q 6.59375 45.0625 6.59375 53.421875 
Q 6.59375 63.09375 13.40625 68.65625 
Q 20.21875 74.21875 32.171875 74.21875 
Q 37.3125 74.21875 42.625 73.28125 
Q 47.953125 72.359375 53.515625 70.515625 
z
" id="DejaVuSans-83"/>
      <path d="M 18.3125 70.21875 
L 18.3125 54.6875 
L 36.8125 54.6875 
L 36.8125 47.703125 
L 18.3125 47.703125 
L 18.3125 18.015625 
Q 18.3125 11.328125 20.140625 9.421875 
Q 21.96875 7.515625 27.59375 7.515625 
L 36.8125 7.515625 
L 36.8125 0 
L 27.59375 0 
Q 17.1875 0 13.234375 3.875 
Q 9.28125 7.765625 9.28125 18.015625 
L 9.28125 47.703125 
L 2.6875 47.703125 
L 2.6875 54.6875 
L 9.28125 54.6875 
L 9.28125 70.21875 
z
" id="DejaVuSans-116"/>
      <path d="M 54.890625 33.015625 
L 54.890625 0 
L 45.90625 0 
L 45.90625 32.71875 
Q 45.90625 40.484375 42.875 44.328125 
Q 39.84375 48.1875 33.796875 48.1875 
Q 26.515625 48.1875 22.3125 43.546875 
Q 18.109375 38.921875 18.109375 30.90625 
L 18.109375 0 
L 9.078125 0 
L 9.078125 54.6875 
L 18.109375 54.6875 
L 18.109375 46.1875 
Q 21.34375 51.125 25.703125 53.5625 
Q 30.078125 56 35.796875 56 
Q 45.21875 56 50.046875 50.171875 
Q 54.890625 44.34375 54.890625 33.015625 
z
" id="DejaVuSans-110"/>
      <path d="M 45.40625 46.390625 
L 45.40625 75.984375 
L 54.390625 75.984375 
L 54.390625 0 
L 45.40625 0 
L 45.40625 8.203125 
Q 42.578125 3.328125 38.25 0.953125 
Q 33.9375 -1.421875 27.875 -1.421875 
Q 17.96875 -1.421875 11.734375 6.484375 
Q 5.515625 14.40625 5.515625 27.296875 
Q 5.515625 40.1875 11.734375 48.09375 
Q 17.96875 56 27.875 56 
Q 33.9375 56 38.25 53.625 
Q 42.578125 51.265625 45.40625 46.390625 
z
M 14.796875 27.296875 
Q 14.796875 17.390625 18.875 11.75 
Q 22.953125 6.109375 30.078125 6.109375 
Q 37.203125 6.109375 41.296875 11.75 
Q 45.40625 17.390625 45.40625 27.296875 
Q 45.40625 37.203125 41.296875 42.84375 
Q 37.203125 48.484375 30.078125 48.484375 
Q 22.953125 48.484375 18.875 42.84375 
Q 14.796875 37.203125 14.796875 27.296875 
z
" id="DejaVuSans-100"/>
      <path d="M 41.109375 46.296875 
Q 39.59375 47.171875 37.8125 47.578125 
Q 36.03125 48 33.890625 48 
Q 26.265625 48 22.1875 43.046875 
Q 18.109375 38.09375 18.109375 28.8125 
L 18.109375 0 
L 9.078125 0 
L 9.078125 54.6875 
L 18.109375 54.6875 
L 18.109375 46.1875 
Q 20.953125 51.171875 25.484375 53.578125 
Q 30.03125 56 36.53125 56 
Q 37.453125 56 38.578125 55.875 
Q 39.703125 55.765625 41.0625 55.515625 
z
" id="DejaVuSans-114"/>
      <path id="DejaVuSans-32"/>
      <path d="M 9.421875 54.6875 
L 18.40625 54.6875 
L 18.40625 0 
L 9.421875 0 
z
M 9.421875 75.984375 
L 18.40625 75.984375 
L 18.40625 64.59375 
L 9.421875 64.59375 
z
" id="DejaVuSans-105"/>
      <path d="M 30.609375 48.390625 
Q 23.390625 48.390625 19.1875 42.75 
Q 14.984375 37.109375 14.984375 27.296875 
Q 14.984375 17.484375 19.15625 11.84375 
Q 23.34375 6.203125 30.609375 6.203125 
Q 37.796875 6.203125 41.984375 11.859375 
Q 46.1875 17.53125 46.1875 27.296875 
Q 46.1875 37.015625 41.984375 42.703125 
Q 37.796875 48.390625 30.609375 48.390625 
z
M 30.609375 56 
Q 42.328125 56 49.015625 48.375 
Q 55.71875 40.765625 55.71875 27.296875 
Q 55.71875 13.875 49.015625 6.21875 
Q 42.328125 -1.421875 30.609375 -1.421875 
Q 18.84375 -1.421875 12.171875 6.21875 
Q 5.515625 13.875 5.515625 27.296875 
Q 5.515625 40.765625 12.171875 48.375 
Q 18.84375 56 30.609375 56 
z
" id="DejaVuSans-111"/>
      <path d="M 37.109375 75.984375 
L 37.109375 68.5 
L 28.515625 68.5 
Q 23.6875 68.5 21.796875 66.546875 
Q 19.921875 64.59375 19.921875 59.515625 
L 19.921875 54.6875 
L 34.71875 54.6875 
L 34.71875 47.703125 
L 19.921875 47.703125 
L 19.921875 0 
L 10.890625 0 
L 10.890625 47.703125 
L 2.296875 47.703125 
L 2.296875 54.6875 
L 10.890625 54.6875 
L 10.890625 58.5 
Q 10.890625 67.625 15.140625 71.796875 
Q 19.390625 75.984375 28.609375 75.984375 
z
" id="DejaVuSans-102"/>
      <path d="M 54.890625 33.015625 
L 54.890625 0 
L 45.90625 0 
L 45.90625 32.71875 
Q 45.90625 40.484375 42.875 44.328125 
Q 39.84375 48.1875 33.796875 48.1875 
Q 26.515625 48.1875 22.3125 43.546875 
Q 18.109375 38.921875 18.109375 30.90625 
L 18.109375 0 
L 9.078125 0 
L 9.078125 75.984375 
L 18.109375 75.984375 
L 18.109375 46.1875 
Q 21.34375 51.125 25.703125 53.5625 
Q 30.078125 56 35.796875 56 
Q 45.21875 56 50.046875 50.171875 
Q 54.890625 44.34375 54.890625 33.015625 
z
" id="DejaVuSans-104"/>
      <path d="M 18.109375 8.203125 
L 18.109375 -20.796875 
L 9.078125 -20.796875 
L 9.078125 54.6875 
L 18.109375 54.6875 
L 18.109375 46.390625 
Q 20.953125 51.265625 25.265625 53.625 
Q 29.59375 56 35.59375 56 
Q 45.5625 56 51.78125 48.09375 
Q 58.015625 40.1875 58.015625 27.296875 
Q 58.015625 14.40625 51.78125 6.484375 
Q 45.5625 -1.421875 35.59375 -1.421875 
Q 29.59375 -1.421875 25.265625 0.953125 
Q 20.953125 3.328125 18.109375 8.203125 
z
M 48.6875 27.296875 
Q 48.6875 37.203125 44.609375 42.84375 
Q 40.53125 48.484375 33.40625 48.484375 
Q 26.265625 48.484375 22.1875 42.84375 
Q 18.109375 37.203125 18.109375 27.296875 
Q 18.109375 17.390625 22.1875 11.75 
Q 26.265625 6.109375 33.40625 6.109375 
Q 40.53125 6.109375 44.609375 11.75 
Q 48.6875 17.390625 48.6875 27.296875 
z
" id="DejaVuSans-112"/>
      <path d="M 8.5 21.578125 
L 8.5 54.6875 
L 17.484375 54.6875 
L 17.484375 21.921875 
Q 17.484375 14.15625 20.5 10.265625 
Q 23.53125 6.390625 29.59375 6.390625 
Q 36.859375 6.390625 41.078125 11.03125 
Q 45.3125 15.671875 45.3125 23.6875 
L 45.3125 54.6875 
L 54.296875 54.6875 
L 54.296875 0 
L 45.3125 0 
L 45.3125 8.40625 
Q 42.046875 3.421875 37.71875 1 
Q 33.40625 -1.421875 27.6875 -1.421875 
Q 18.265625 -1.421875 13.375 4.4375 
Q 8.5 10.296875 8.5 21.578125 
z
M 31.109375 56 
z
" id="DejaVuSans-117"/>
      <path d="M 48.6875 27.296875 
Q 48.6875 37.203125 44.609375 42.84375 
Q 40.53125 48.484375 33.40625 48.484375 
Q 26.265625 48.484375 22.1875 42.84375 
Q 18.109375 37.203125 18.109375 27.296875 
Q 18.109375 17.390625 22.1875 11.75 
Q 26.265625 6.109375 33.40625 6.109375 
Q 40.53125 6.109375 44.609375 11.75 
Q 48.6875 17.390625 48.6875 27.296875 
z
M 18.109375 46.390625 
Q 20.953125 51.265625 25.265625 53.625 
Q 29.59375 56 35.59375 56 
Q 45.5625 56 51.78125 48.09375 
Q 58.015625 40.1875 58.015625 27.296875 
Q 58.015625 14.40625 51.78125 6.484375 
Q 45.5625 -1.421875 35.59375 -1.421875 
Q 29.59375 -1.421875 25.265625 0.953125 
Q 20.953125 3.328125 18.109375 8.203125 
L 18.109375 0 
L 9.078125 0 
L 9.078125 75.984375 
L 18.109375 75.984375 
z
" id="DejaVuSans-98"/>
     </defs>
     <use xlink:href="#DejaVuSans-83"/>
     <use x="63.476562" xlink:href="#DejaVuSans-116"/>
     <use x="102.685547" xlink:href="#DejaVuSans-97"/>
     <use x="163.964844" xlink:href="#DejaVuSans-110"/>
     <use x="227.34375" xlink:href="#DejaVuSans-100"/>
     <use x="290.820312" xlink:href="#DejaVuSans-97"/>
     <use x="352.099609" xlink:href="#DejaVuSans-114"/>
     <use x="391.462891" xlink:href="#DejaVuSans-100"/>
     <use x="454.939453" xlink:href="#DejaVuSans-32"/>
     <use x="486.726562" xlink:href="#DejaVuSans-100"/>
     <use x="550.203125" xlink:href="#DejaVuSans-101"/>
     <use x="611.726562" xlink:href="#DejaVuSans-118"/>
     <use x="670.90625" xlink:href="#DejaVuSans-105"/>
     <use x="698.689453" xlink:href="#DejaVuSans-97"/>
     <use x="759.96875" xlink:href="#DejaVuSans-116"/>
     <use x="799.177734" xlink:href="#DejaVuSans-105"/>
     <use x="826.960938" xlink:href="#DejaVuSans-111"/>
     <use x="888.142578" xlink:href="#DejaVuSans-110"/>
     <use x="951.521484" xlink:href="#DejaVuSans-32"/>
     <use x="983.308594" xlink:href="#DejaVuSans-111"/>
     <use x="1044.490234" xlink:href="#DejaVuSans-102"/>
     <use x="1079.695312" xlink:href="#DejaVuSans-32"/>
     <use x="1111.482422" xlink:href="#DejaVuSans-116"/>
     <use x="1150.691406" xlink:href="#DejaVuSans-104"/>
     <use x="1214.070312" xlink:href="#DejaVuSans-101"/>
     <use x="1275.59375" xlink:href="#DejaVuSans-32"/>
     <use x="1307.380859" xlink:href="#DejaVuSans-112"/>
     <use x="1370.857422" xlink:href="#DejaVuSans-111"/>
     <use x="1432.039062" xlink:href="#DejaVuSans-112"/>
     <use x="1495.515625" xlink:href="#DejaVuSans-117"/>
     <use x="1558.894531" xlink:href="#DejaVuSans-108"/>
     <use x="1586.677734" xlink:href="#DejaVuSans-97"/>
     <use x="1647.957031" xlink:href="#DejaVuSans-116"/>
     <use x="1687.166016" xlink:href="#DejaVuSans-105"/>
     <use x="1714.949219" xlink:href="#DejaVuSans-111"/>
     <use x="1776.130859" xlink:href="#DejaVuSans-110"/>
     <use x="1839.509766" xlink:href="#DejaVuSans-32"/>
     <use x="1871.296875" xlink:href="#DejaVuSans-100"/>
     <use x="1934.773438" xlink:href="#DejaVuSans-105"/>
     <use x="1962.556641" xlink:href="#DejaVuSans-115"/>
     <use x="2014.65625" xlink:href="#DejaVuSans-116"/>
     <use x="2053.865234" xlink:href="#DejaVuSans-114"/>
     <use x="2094.978516" xlink:href="#DejaVuSans-105"/>
     <use x="2122.761719" xlink:href="#DejaVuSans-98"/>
     <use x="2186.238281" xlink:href="#DejaVuSans-117"/>
     <use x="2249.617188" xlink:href="#DejaVuSans-116"/>
     <use x="2288.826172" xlink:href="#DejaVuSans-105"/>
     <use x="2316.609375" xlink:href="#DejaVuSans-111"/>
     <use x="2377.791016" xlink:href="#DejaVuSans-110"/>
    </g>
   </g>
   <g id="legend_1">
    <g id="patch_7">
     <path d="M 303.295312 44.99625 
L 365.5 44.99625 
Q 367.5 44.99625 367.5 42.99625 
L 367.5 29.318125 
Q 367.5 27.318125 365.5 27.318125 
L 303.295312 27.318125 
Q 301.295312 27.318125 301.295312 29.318125 
L 301.295312 42.99625 
Q 301.295312 44.99625 303.295312 44.99625 
z
" style="fill:#ffffff;opacity:0.8;stroke:#cccccc;stroke-linejoin:miter;"/>
    </g>
    <g id="line2d_75">
     <path d="M 305.295312 35.416562 
L 325.295312 35.416562 
" style="fill:none;stroke:#1f77b4;stroke-linecap:square;stroke-width:1.5;"/>
    </g>
    <g id="line2d_76"/>
    <g id="text_18">
     <!-- sigma -->
     <g transform="translate(333.295312 38.916562)scale(0.1 -0.1)">
      <defs>
       <path d="M 45.40625 27.984375 
Q 45.40625 37.75 41.375 43.109375 
Q 37.359375 48.484375 30.078125 48.484375 
Q 22.859375 48.484375 18.828125 43.109375 
Q 14.796875 37.75 14.796875 27.984375 
Q 14.796875 18.265625 18.828125 12.890625 
Q 22.859375 7.515625 30.078125 7.515625 
Q 37.359375 7.515625 41.375 12.890625 
Q 45.40625 18.265625 45.40625 27.984375 
z
M 54.390625 6.78125 
Q 54.390625 -7.171875 48.1875 -13.984375 
Q 42 -20.796875 29.203125 -20.796875 
Q 24.46875 -20.796875 20.265625 -20.09375 
Q 16.0625 -19.390625 12.109375 -17.921875 
L 12.109375 -9.1875 
Q 16.0625 -11.328125 19.921875 -12.34375 
Q 23.78125 -13.375 27.78125 -13.375 
Q 36.625 -13.375 41.015625 -8.765625 
Q 45.40625 -4.15625 45.40625 5.171875 
L 45.40625 9.625 
Q 42.625 4.78125 38.28125 2.390625 
Q 33.9375 0 27.875 0 
Q 17.828125 0 11.671875 7.65625 
Q 5.515625 15.328125 5.515625 27.984375 
Q 5.515625 40.671875 11.671875 48.328125 
Q 17.828125 56 27.875 56 
Q 33.9375 56 38.28125 53.609375 
Q 42.625 51.21875 45.40625 46.390625 
L 45.40625 54.6875 
L 54.390625 54.6875 
z
" id="DejaVuSans-103"/>
       <path d="M 52 44.1875 
Q 55.375 50.25 60.0625 53.125 
Q 64.75 56 71.09375 56 
Q 79.640625 56 84.28125 50.015625 
Q 88.921875 44.046875 88.921875 33.015625 
L 88.921875 0 
L 79.890625 0 
L 79.890625 32.71875 
Q 79.890625 40.578125 77.09375 44.375 
Q 74.3125 48.1875 68.609375 48.1875 
Q 61.625 48.1875 57.5625 43.546875 
Q 53.515625 38.921875 53.515625 30.90625 
L 53.515625 0 
L 44.484375 0 
L 44.484375 32.71875 
Q 44.484375 40.625 41.703125 44.40625 
Q 38.921875 48.1875 33.109375 48.1875 
Q 26.21875 48.1875 22.15625 43.53125 
Q 18.109375 38.875 18.109375 30.90625 
L 18.109375 0 
L 9.078125 0 
L 9.078125 54.6875 
L 18.109375 54.6875 
L 18.109375 46.1875 
Q 21.1875 51.21875 25.484375 53.609375 
Q 29.78125 56 35.6875 56 
Q 41.65625 56 45.828125 52.96875 
Q 50 49.953125 52 44.1875 
z
" id="DejaVuSans-109"/>
      </defs>
      <use xlink:href="#DejaVuSans-115"/>
      <use x="52.099609" xlink:href="#DejaVuSans-105"/>
      <use x="79.882812" xlink:href="#DejaVuSans-103"/>
      <use x="143.359375" xlink:href="#DejaVuSans-109"/>
      <use x="240.771484" xlink:href="#DejaVuSans-97"/>
     </g>
    </g>
   </g>
  </g>
 </g>
 <defs>
  <clipPath id="p564a7c95cb">
   <rect height="217.44" width="334.8" x="37.7" y="22.318125"/>
  </clipPath>
 </defs>
</svg>
